<svg width="257" height="236" viewBox="0 0 257 236" fill="none" xmlns="http://www.w3.org/2000/svg">
<ellipse cx="128.5" cy="80" rx="88.5" ry="80" fill="#CEFCFF"/>
<path d="M11.968 228.928L12.256 228.72C12.6187 228.507 12.8747 228.4 13.024 228.4C13.3547 228.4 13.712 228.699 14.096 229.296C14.3307 229.669 14.448 229.968 14.448 230.192C14.448 230.416 14.3733 230.603 14.224 230.752C14.0853 230.901 13.92 231.035 13.728 231.152C13.536 231.269 13.3493 231.381 13.168 231.488C12.9973 231.595 12.64 231.733 12.096 231.904C11.552 232.075 11.024 232.16 10.512 232.16C10.0107 232.16 9.49867 232.096 8.976 231.968C8.464 231.829 7.93067 231.605 7.376 231.296C6.832 230.976 6.34133 230.592 5.904 230.144C5.46667 229.685 5.104 229.104 4.816 228.4C4.53867 227.685 4.4 226.912 4.4 226.08C4.4 225.248 4.53867 224.496 4.816 223.824C5.09333 223.141 5.44533 222.581 5.872 222.144C6.30933 221.696 6.80533 221.323 7.36 221.024C8.40533 220.448 9.456 220.16 10.512 220.16C11.0133 220.16 11.52 220.24 12.032 220.4C12.5547 220.549 12.9493 220.704 13.216 220.864L13.6 221.088C13.792 221.205 13.9413 221.301 14.048 221.376C14.3253 221.6 14.464 221.856 14.464 222.144C14.464 222.421 14.352 222.715 14.128 223.024C13.712 223.6 13.3387 223.888 13.008 223.888C12.816 223.888 12.544 223.771 12.192 223.536C11.744 223.173 11.1467 222.992 10.4 222.992C9.70667 222.992 9.024 223.232 8.352 223.712C8.032 223.947 7.76533 224.277 7.552 224.704C7.33867 225.131 7.232 225.616 7.232 226.16C7.232 226.693 7.33867 227.173 7.552 227.6C7.76533 228.027 8.03733 228.363 8.368 228.608C9.01867 229.077 9.696 229.312 10.4 229.312C10.7307 229.312 11.04 229.269 11.328 229.184C11.6267 229.099 11.84 229.013 11.968 228.928ZM15.2594 227.792C15.2594 226.512 15.7074 225.456 16.6034 224.624C17.4994 223.792 18.5234 223.376 19.6754 223.376C20.8274 223.376 21.846 223.792 22.7314 224.624C23.6167 225.445 24.0594 226.496 24.0594 227.776C24.0594 228.661 23.83 229.451 23.3714 230.144C22.9127 230.827 22.3527 231.333 21.6914 231.664C21.0407 231.984 20.3634 232.144 19.6594 232.144C18.9554 232.144 18.2727 231.973 17.6114 231.632C16.95 231.28 16.39 230.768 15.9314 230.096C15.4834 229.413 15.2594 228.645 15.2594 227.792ZM18.6034 228.944C18.9447 229.2 19.2914 229.328 19.6434 229.328C19.9954 229.328 20.3474 229.195 20.6994 228.928C21.0514 228.661 21.2274 228.267 21.2274 227.744C21.2274 227.221 21.062 226.832 20.7314 226.576C20.4007 226.32 20.0434 226.192 19.6594 226.192C19.2754 226.192 18.918 226.325 18.5874 226.592C18.2567 226.859 18.0914 227.253 18.0914 227.776C18.0914 228.288 18.262 228.677 18.6034 228.944ZM27.8451 224.688C28.3465 223.931 28.9491 223.552 29.6531 223.552C30.7411 223.552 31.5518 224.016 32.0851 224.944C32.2025 224.784 32.3411 224.619 32.5011 224.448C32.6718 224.267 32.9385 224.075 33.3011 223.872C33.6638 223.659 34.0371 223.552 34.4211 223.552C35.2745 223.552 35.9891 223.883 36.5651 224.544C37.1411 225.195 37.4291 226.277 37.4291 227.792V230.592C37.4291 230.837 37.4185 231.024 37.3971 231.152C37.3865 231.269 37.3385 231.408 37.2531 231.568C37.1145 231.856 36.7038 232 36.0211 232C35.3491 232 34.9385 231.851 34.7891 231.552C34.7145 231.392 34.6665 231.253 34.6451 231.136C34.6345 231.008 34.6291 230.821 34.6291 230.576V227.776C34.6291 226.848 34.2985 226.384 33.6371 226.384C33.2638 226.384 33.0078 226.507 32.8691 226.752C32.7411 226.997 32.6771 227.344 32.6771 227.792V230.592C32.6771 230.848 32.6665 231.035 32.6451 231.152C32.6345 231.269 32.5865 231.408 32.5011 231.568C32.3518 231.856 31.9358 232 31.2531 232C30.5811 232 30.1705 231.851 30.0211 231.552C29.9465 231.392 29.8985 231.253 29.8771 231.136C29.8665 231.008 29.8611 230.821 29.8611 230.576V227.776C29.8611 226.848 29.5305 226.384 28.8691 226.384C28.2291 226.384 27.9091 226.848 27.9091 227.776V230.608C27.9091 230.853 27.8985 231.04 27.8771 231.168C27.8665 231.285 27.8185 231.424 27.7331 231.584C27.5731 231.861 27.1571 232 26.4851 232C25.8131 232 25.4025 231.856 25.2531 231.568C25.1785 231.408 25.1305 231.269 25.1091 231.152C25.0985 231.035 25.0931 230.848 25.0931 230.592V224.96C25.0931 224.715 25.0985 224.533 25.1091 224.416C25.1305 224.288 25.1838 224.149 25.2691 224C25.4291 223.712 25.8078 223.568 26.4051 223.568C27.0025 223.568 27.3918 223.664 27.5731 223.856C27.7545 224.048 27.8451 224.325 27.8451 224.688ZM38.7025 234.288V224.944C38.7025 224.699 38.7078 224.517 38.7185 224.4C38.7398 224.283 38.7878 224.149 38.8625 224C39.0118 223.712 39.3692 223.568 39.9345 223.568C40.4998 223.568 40.8785 223.643 41.0705 223.792C41.2732 223.931 41.3905 224.139 41.4225 224.416C41.8278 223.861 42.4625 223.584 43.3265 223.584C44.2012 223.584 45.0278 223.995 45.8065 224.816C46.5852 225.637 46.9745 226.592 46.9745 227.68C46.9745 228.768 46.5852 229.723 45.8065 230.544C45.0385 231.365 44.2172 231.776 43.3425 231.776C42.4678 231.776 41.8332 231.531 41.4385 231.04V234.272C41.4385 234.517 41.4278 234.699 41.4065 234.816C41.3958 234.933 41.3478 235.067 41.2625 235.216C41.1878 235.376 41.0545 235.488 40.8625 235.552C40.6705 235.616 40.4092 235.648 40.0785 235.648C39.7478 235.648 39.4812 235.616 39.2785 235.552C39.0865 235.488 38.9478 235.381 38.8625 235.232C38.7878 235.083 38.7398 234.949 38.7185 234.832C38.7078 234.715 38.7025 234.533 38.7025 234.288ZM41.8705 226.752C41.6252 227.04 41.5025 227.355 41.5025 227.696C41.5025 228.037 41.6252 228.352 41.8705 228.64C42.1265 228.917 42.4465 229.056 42.8305 229.056C43.2252 229.056 43.5558 228.917 43.8225 228.64C44.0998 228.363 44.2385 228.048 44.2385 227.696C44.2385 227.344 44.1105 227.029 43.8545 226.752C43.5985 226.464 43.2625 226.32 42.8465 226.32C42.4412 226.32 42.1158 226.464 41.8705 226.752ZM53.487 224.464C53.551 223.867 53.9723 223.568 54.751 223.568C55.167 223.568 55.4763 223.6 55.679 223.664C55.8817 223.728 56.0203 223.84 56.095 224C56.1803 224.16 56.2283 224.304 56.239 224.432C56.2603 224.549 56.271 224.731 56.271 224.976V230.576C56.271 230.821 56.2603 231.008 56.239 231.136C56.2283 231.253 56.1857 231.392 56.111 231.552C55.9617 231.829 55.5937 231.968 55.007 231.968C54.431 231.968 54.0417 231.899 53.839 231.76C53.647 231.611 53.535 231.397 53.503 231.12C53.1083 231.685 52.447 231.968 51.519 231.968C50.6017 231.968 49.7483 231.547 48.959 230.704C48.1697 229.861 47.775 228.885 47.775 227.776C47.775 226.656 48.1697 225.68 48.959 224.848C49.759 224.005 50.6337 223.584 51.583 223.584C51.9457 223.584 52.2763 223.648 52.575 223.776C52.8737 223.904 53.0817 224.027 53.199 224.144C53.3163 224.251 53.4123 224.357 53.487 224.464ZM50.575 227.792C50.575 228.144 50.7137 228.464 50.991 228.752C51.2683 229.029 51.6043 229.168 51.999 229.168C52.3937 229.168 52.719 229.024 52.975 228.736C53.2417 228.448 53.375 228.133 53.375 227.792C53.375 227.44 53.247 227.115 52.991 226.816C52.7457 226.517 52.4097 226.368 51.983 226.368C51.567 226.368 51.2257 226.517 50.959 226.816C50.703 227.115 50.575 227.44 50.575 227.792ZM63.2743 223.664C63.4769 223.728 63.6423 223.84 63.7703 224C63.9089 224.149 63.9783 224.395 63.9783 224.736C63.9783 225.077 63.8769 225.451 63.6743 225.856C63.4716 226.261 63.1783 226.464 62.7943 226.464C62.6023 226.464 62.4156 226.421 62.2343 226.336C62.0636 226.251 61.8343 226.208 61.5463 226.208C61.2583 226.208 60.9863 226.309 60.7303 226.512C60.4849 226.715 60.3623 226.96 60.3623 227.248V230.608C60.3623 230.853 60.3516 231.04 60.3303 231.168C60.3196 231.285 60.2716 231.424 60.1863 231.584C60.0263 231.861 59.6103 232 58.9383 232C58.4263 232 58.0583 231.909 57.8343 231.728C57.6636 231.579 57.5676 231.349 57.5463 231.04C57.5463 230.933 57.5463 230.779 57.5463 230.576V224.96C57.5463 224.715 57.5516 224.533 57.5623 224.416C57.5836 224.288 57.6316 224.149 57.7063 224C57.8556 223.712 58.2716 223.568 58.9543 223.568C59.5943 223.568 59.9943 223.691 60.1543 223.936C60.2716 224.107 60.3303 224.283 60.3303 224.464C60.3836 224.389 60.4583 224.299 60.5543 224.192C60.6609 224.085 60.8796 223.941 61.2103 223.76C61.5409 223.579 61.8289 223.488 62.0743 223.488C62.3303 223.488 62.5436 223.504 62.7143 223.536C62.8849 223.557 63.0716 223.6 63.2743 223.664ZM69.7548 226.4L68.7148 226.336V228.544C68.7148 228.832 68.7574 229.04 68.8428 229.168C68.9388 229.296 69.1094 229.36 69.3548 229.36C69.6108 229.36 69.8028 229.371 69.9308 229.392C70.0694 229.403 70.2134 229.451 70.3628 229.536C70.6081 229.675 70.7308 230.032 70.7308 230.608C70.7308 231.28 70.5814 231.691 70.2828 231.84C70.1228 231.915 69.9788 231.963 69.8508 231.984C69.7334 231.995 69.5574 232 69.3228 232C68.2134 232 67.3708 231.749 66.7948 231.248C66.2188 230.747 65.9308 229.899 65.9308 228.704V226.336C65.7281 226.368 65.5094 226.384 65.2747 226.384C65.0401 226.384 64.8428 226.293 64.6828 226.112C64.5334 225.931 64.4588 225.621 64.4588 225.184C64.4588 224.747 64.4854 224.432 64.5388 224.24C64.5921 224.037 64.6668 223.893 64.7628 223.808C64.9334 223.669 65.1468 223.6 65.4028 223.6L65.9308 223.664V222.016C65.9308 221.771 65.9361 221.589 65.9468 221.472C65.9681 221.355 66.0214 221.227 66.1068 221.088C66.2454 220.821 66.6561 220.688 67.3388 220.688C68.0641 220.688 68.4961 220.885 68.6348 221.28C68.6881 221.451 68.7148 221.723 68.7148 222.096V223.664C69.1841 223.621 69.5361 223.6 69.7708 223.6C70.0161 223.6 70.1974 223.611 70.3148 223.632C70.4428 223.643 70.5868 223.691 70.7468 223.776C71.0241 223.915 71.1628 224.325 71.1628 225.008C71.1628 225.68 71.0188 226.091 70.7308 226.24C70.5708 226.315 70.4268 226.363 70.2988 226.384C70.1814 226.395 70.0001 226.4 69.7548 226.4ZM79.8618 226.784C79.8618 227.435 79.6964 227.92 79.3658 228.24C79.0458 228.549 78.6884 228.704 78.2938 228.704H74.5018C74.5018 229.003 74.6778 229.253 75.0298 229.456C75.3818 229.659 75.7338 229.76 76.0858 229.76C76.7044 229.76 77.1898 229.696 77.5418 229.568L77.7178 229.504C77.9738 229.387 78.1871 229.328 78.3578 229.328C78.6991 229.328 78.9924 229.568 79.2378 230.048C79.3764 230.336 79.4458 230.581 79.4458 230.784C79.4458 231.733 78.3098 232.208 76.0378 232.208C75.2484 232.208 74.5444 232.075 73.9258 231.808C73.3178 231.531 72.8431 231.168 72.5018 230.72C71.8298 229.856 71.4938 228.891 71.4938 227.824C71.4938 226.48 71.9258 225.408 72.7898 224.608C73.6644 223.797 74.7524 223.392 76.0538 223.392C77.5364 223.392 78.6244 223.915 79.3177 224.96C79.6804 225.515 79.8618 226.123 79.8618 226.784ZM76.4858 227.248C76.8911 227.248 77.0938 227.077 77.0938 226.736C77.0938 226.491 76.9978 226.293 76.8058 226.144C76.6244 225.995 76.3578 225.92 76.0058 225.92C75.6644 225.92 75.3231 226.064 74.9818 226.352C74.6404 226.629 74.4698 226.928 74.4698 227.248H76.4858ZM90.2965 230.944C89.8912 231.477 89.2458 231.744 88.3605 231.744C87.4752 231.744 86.6432 231.339 85.8645 230.528C85.0965 229.707 84.7125 228.752 84.7125 227.664C84.7125 226.576 85.1018 225.621 85.8805 224.8C86.6592 223.979 87.5125 223.568 88.4405 223.568C88.8032 223.568 89.1338 223.637 89.4325 223.776C89.7312 223.904 89.9338 224.027 90.0405 224.144C90.1578 224.251 90.2485 224.352 90.3125 224.448C90.3445 224.149 90.4512 223.925 90.6325 223.776C90.8245 223.616 91.1285 223.536 91.5445 223.536C91.9605 223.536 92.2645 223.568 92.4565 223.632C92.6485 223.696 92.7818 223.808 92.8565 223.968C92.9418 224.117 92.9898 224.251 93.0005 224.368C93.0218 224.485 93.0325 224.667 93.0325 224.912V231.536C93.0325 232.763 92.6058 233.749 91.7525 234.496C90.8992 235.253 89.9392 235.632 88.8725 235.632C88.0618 235.632 87.2885 235.435 86.5525 235.04C85.8165 234.645 85.4485 234.288 85.4485 233.968C85.4485 233.552 85.6085 233.184 85.9285 232.864C86.1312 232.64 86.2858 232.485 86.3925 232.4C86.5098 232.315 86.6432 232.272 86.7925 232.272C86.9418 232.272 87.0965 232.336 87.2565 232.464C87.7685 232.859 88.3232 233.056 88.9205 233.056C89.3258 233.056 89.6565 232.896 89.9125 232.576C90.1685 232.256 90.2965 231.872 90.2965 231.424V230.944ZM87.4485 227.68C87.4485 228.021 87.5818 228.331 87.8485 228.608C88.1258 228.885 88.4565 229.024 88.8405 229.024C89.2352 229.024 89.5605 228.885 89.8165 228.608C90.0725 228.32 90.2005 228.011 90.2005 227.68C90.2005 227.339 90.0778 227.024 89.8325 226.736C89.5872 226.437 89.2565 226.288 88.8405 226.288C88.4245 226.288 88.0885 226.432 87.8325 226.72C87.5765 227.008 87.4485 227.328 87.4485 227.68ZM99.7839 224.464C99.8479 223.867 100.269 223.568 101.048 223.568C101.464 223.568 101.773 223.6 101.976 223.664C102.179 223.728 102.317 223.84 102.392 224C102.477 224.16 102.525 224.304 102.536 224.432C102.557 224.549 102.568 224.731 102.568 224.976V230.576C102.568 230.821 102.557 231.008 102.536 231.136C102.525 231.253 102.483 231.392 102.408 231.552C102.259 231.829 101.891 231.968 101.304 231.968C100.728 231.968 100.339 231.899 100.136 231.76C99.9439 231.611 99.8319 231.397 99.7999 231.12C99.4052 231.685 98.7439 231.968 97.8159 231.968C96.8985 231.968 96.0452 231.547 95.2559 230.704C94.4665 229.861 94.0719 228.885 94.0719 227.776C94.0719 226.656 94.4665 225.68 95.2559 224.848C96.0559 224.005 96.9305 223.584 97.8799 223.584C98.2425 223.584 98.5732 223.648 98.8719 223.776C99.1705 223.904 99.3785 224.027 99.4959 224.144C99.6132 224.251 99.7092 224.357 99.7839 224.464ZM96.8719 227.792C96.8719 228.144 97.0105 228.464 97.2879 228.752C97.5652 229.029 97.9012 229.168 98.2959 229.168C98.6905 229.168 99.0159 229.024 99.2719 228.736C99.5385 228.448 99.6719 228.133 99.6719 227.792C99.6719 227.44 99.5439 227.115 99.2879 226.816C99.0425 226.517 98.7065 226.368 98.2799 226.368C97.8639 226.368 97.5225 226.517 97.2559 226.816C96.9999 227.115 96.8719 227.44 96.8719 227.792ZM103.907 231.248C103.704 231.12 103.603 230.917 103.603 230.64C103.603 230.363 103.806 229.941 104.211 229.376C104.328 229.195 104.515 229.104 104.771 229.104C105.038 229.104 105.395 229.237 105.843 229.504C106.291 229.76 106.696 229.888 107.059 229.888C107.71 229.888 108.035 229.76 108.035 229.504C108.035 229.301 107.678 229.152 106.963 229.056C106.291 228.96 105.624 228.709 104.963 228.304C104.654 228.112 104.398 227.813 104.195 227.408C103.992 226.992 103.891 226.501 103.891 225.936C103.891 224.251 105.048 223.408 107.363 223.408C108.12 223.408 108.899 223.589 109.699 223.952C110.072 224.123 110.259 224.336 110.259 224.592C110.259 224.848 110.142 225.163 109.907 225.536C109.672 225.909 109.432 226.096 109.187 226.096C109.059 226.096 108.819 226.016 108.467 225.856C108.126 225.696 107.752 225.616 107.347 225.616C106.718 225.616 106.403 225.733 106.403 225.968C106.403 226.288 106.766 226.496 107.491 226.592C108.195 226.667 108.878 226.869 109.539 227.2C109.848 227.349 110.104 227.611 110.307 227.984C110.52 228.347 110.627 228.805 110.627 229.36C110.627 229.915 110.52 230.389 110.307 230.784C110.104 231.168 109.816 231.456 109.443 231.648C108.76 231.979 107.902 232.144 106.867 232.144C105.843 232.144 104.856 231.845 103.907 231.248ZM116.317 226.4L115.277 226.336V228.544C115.277 228.832 115.32 229.04 115.405 229.168C115.501 229.296 115.672 229.36 115.917 229.36C116.173 229.36 116.365 229.371 116.493 229.392C116.632 229.403 116.776 229.451 116.925 229.536C117.171 229.675 117.293 230.032 117.293 230.608C117.293 231.28 117.144 231.691 116.845 231.84C116.685 231.915 116.541 231.963 116.413 231.984C116.296 231.995 116.12 232 115.885 232C114.776 232 113.933 231.749 113.357 231.248C112.781 230.747 112.493 229.899 112.493 228.704V226.336C112.291 226.368 112.072 226.384 111.837 226.384C111.603 226.384 111.405 226.293 111.245 226.112C111.096 225.931 111.021 225.621 111.021 225.184C111.021 224.747 111.048 224.432 111.101 224.24C111.155 224.037 111.229 223.893 111.325 223.808C111.496 223.669 111.709 223.6 111.965 223.6L112.493 223.664V222.016C112.493 221.771 112.499 221.589 112.509 221.472C112.531 221.355 112.584 221.227 112.669 221.088C112.808 220.821 113.219 220.688 113.901 220.688C114.627 220.688 115.059 220.885 115.197 221.28C115.251 221.451 115.277 221.723 115.277 222.096V223.664C115.747 223.621 116.099 223.6 116.333 223.6C116.579 223.6 116.76 223.611 116.877 223.632C117.005 223.643 117.149 223.691 117.309 223.776C117.587 223.915 117.725 224.325 117.725 225.008C117.725 225.68 117.581 226.091 117.293 226.24C117.133 226.315 116.989 226.363 116.861 226.384C116.744 226.395 116.563 226.4 116.317 226.4ZM118.369 227.792C118.369 226.512 118.817 225.456 119.713 224.624C120.609 223.792 121.633 223.376 122.785 223.376C123.937 223.376 124.955 223.792 125.841 224.624C126.726 225.445 127.169 226.496 127.169 227.776C127.169 228.661 126.939 229.451 126.481 230.144C126.022 230.827 125.462 231.333 124.801 231.664C124.15 231.984 123.473 232.144 122.769 232.144C122.065 232.144 121.382 231.973 120.721 231.632C120.059 231.28 119.499 230.768 119.041 230.096C118.593 229.413 118.369 228.645 118.369 227.792ZM121.713 228.944C122.054 229.2 122.401 229.328 122.753 229.328C123.105 229.328 123.457 229.195 123.809 228.928C124.161 228.661 124.337 228.267 124.337 227.744C124.337 227.221 124.171 226.832 123.841 226.576C123.51 226.32 123.153 226.192 122.769 226.192C122.385 226.192 122.027 226.325 121.697 226.592C121.366 226.859 121.201 227.253 121.201 227.776C121.201 228.288 121.371 228.677 121.713 228.944ZM128.267 231.248C128.064 231.12 127.963 230.917 127.963 230.64C127.963 230.363 128.165 229.941 128.571 229.376C128.688 229.195 128.875 229.104 129.131 229.104C129.397 229.104 129.755 229.237 130.203 229.504C130.651 229.76 131.056 229.888 131.419 229.888C132.069 229.888 132.395 229.76 132.395 229.504C132.395 229.301 132.037 229.152 131.323 229.056C130.651 228.96 129.984 228.709 129.323 228.304C129.013 228.112 128.757 227.813 128.555 227.408C128.352 226.992 128.251 226.501 128.251 225.936C128.251 224.251 129.408 223.408 131.723 223.408C132.48 223.408 133.259 223.589 134.059 223.952C134.432 224.123 134.619 224.336 134.619 224.592C134.619 224.848 134.501 225.163 134.267 225.536C134.032 225.909 133.792 226.096 133.547 226.096C133.419 226.096 133.179 226.016 132.827 225.856C132.485 225.696 132.112 225.616 131.707 225.616C131.077 225.616 130.763 225.733 130.763 225.968C130.763 226.288 131.125 226.496 131.851 226.592C132.555 226.667 133.237 226.869 133.899 227.2C134.208 227.349 134.464 227.611 134.667 227.984C134.88 228.347 134.987 228.805 134.987 229.36C134.987 229.915 134.88 230.389 134.667 230.784C134.464 231.168 134.176 231.456 133.803 231.648C133.12 231.979 132.261 232.144 131.227 232.144C130.203 232.144 129.216 231.845 128.267 231.248ZM142.718 227.792C142.718 228.24 142.867 228.592 143.166 228.848C143.464 229.093 143.779 229.216 144.11 229.216C144.451 229.216 144.766 229.12 145.054 228.928C145.352 228.725 145.592 228.624 145.774 228.624C146.094 228.624 146.483 228.907 146.942 229.472C147.187 229.781 147.31 230.059 147.31 230.304C147.31 230.709 147.016 231.088 146.43 231.44C145.822 231.867 145.075 232.08 144.19 232.08C143.198 232.08 142.243 231.723 141.326 231.008C140.888 230.667 140.531 230.213 140.254 229.648C139.976 229.072 139.838 228.443 139.838 227.76C139.838 227.067 139.976 226.443 140.254 225.888C140.531 225.323 140.888 224.869 141.326 224.528C142.211 223.824 143.155 223.472 144.158 223.472C144.563 223.472 144.958 223.531 145.342 223.648C145.726 223.755 146.008 223.861 146.19 223.968L146.446 224.128C146.638 224.256 146.787 224.357 146.894 224.432C147.171 224.645 147.31 224.891 147.31 225.168C147.31 225.435 147.198 225.739 146.974 226.08C146.59 226.667 146.222 226.96 145.87 226.96C145.667 226.96 145.379 226.843 145.006 226.608C144.814 226.427 144.536 226.336 144.174 226.336C143.822 226.336 143.491 226.464 143.182 226.72C142.872 226.976 142.718 227.333 142.718 227.792ZM148.103 227.792C148.103 226.512 148.551 225.456 149.447 224.624C150.343 223.792 151.367 223.376 152.519 223.376C153.671 223.376 154.69 223.792 155.575 224.624C156.46 225.445 156.903 226.496 156.903 227.776C156.903 228.661 156.674 229.451 156.215 230.144C155.756 230.827 155.196 231.333 154.535 231.664C153.884 231.984 153.207 232.144 152.503 232.144C151.799 232.144 151.116 231.973 150.455 231.632C149.794 231.28 149.234 230.768 148.775 230.096C148.327 229.413 148.103 228.645 148.103 227.792ZM151.447 228.944C151.788 229.2 152.135 229.328 152.487 229.328C152.839 229.328 153.191 229.195 153.543 228.928C153.895 228.661 154.071 228.267 154.071 227.744C154.071 227.221 153.906 226.832 153.575 226.576C153.244 226.32 152.887 226.192 152.503 226.192C152.119 226.192 151.762 226.325 151.431 226.592C151.1 226.859 150.935 227.253 150.935 227.776C150.935 228.288 151.106 228.677 151.447 228.944ZM162.625 223.568C163.692 223.568 164.577 223.979 165.281 224.8C165.996 225.611 166.353 226.603 166.353 227.776V230.592C166.353 230.837 166.342 231.024 166.321 231.152C166.31 231.269 166.268 231.403 166.193 231.552C166.044 231.84 165.628 231.984 164.945 231.984C164.188 231.984 163.75 231.787 163.633 231.392C163.569 231.211 163.537 230.939 163.537 230.576V227.76C163.537 227.323 163.409 226.981 163.153 226.736C162.908 226.491 162.572 226.368 162.145 226.368C161.729 226.368 161.388 226.496 161.121 226.752C160.865 227.008 160.737 227.344 160.737 227.76V230.592C160.737 230.837 160.726 231.024 160.705 231.152C160.694 231.269 160.646 231.403 160.561 231.552C160.422 231.84 160.012 231.984 159.329 231.984C158.657 231.984 158.246 231.84 158.097 231.552C158.022 231.392 157.974 231.253 157.953 231.136C157.942 231.008 157.937 230.821 157.937 230.576V224.912C157.937 224.677 157.942 224.501 157.953 224.384C157.974 224.256 158.028 224.117 158.113 223.968C158.262 223.701 158.673 223.568 159.345 223.568C159.996 223.568 160.396 223.691 160.545 223.936C160.652 224.117 160.705 224.336 160.705 224.592C160.748 224.517 160.844 224.411 160.993 224.272C161.142 224.133 161.286 224.021 161.425 223.936C161.788 223.691 162.188 223.568 162.625 223.568ZM176.583 226.4L175.543 226.336V228.544C175.543 228.832 175.586 229.04 175.671 229.168C175.767 229.296 175.938 229.36 176.183 229.36C176.439 229.36 176.631 229.371 176.759 229.392C176.898 229.403 177.042 229.451 177.191 229.536C177.436 229.675 177.559 230.032 177.559 230.608C177.559 231.28 177.41 231.691 177.111 231.84C176.951 231.915 176.807 231.963 176.679 231.984C176.562 231.995 176.386 232 176.151 232C175.042 232 174.199 231.749 173.623 231.248C173.047 230.747 172.759 229.899 172.759 228.704V226.336C172.556 226.368 172.338 226.384 172.103 226.384C171.868 226.384 171.671 226.293 171.511 226.112C171.362 225.931 171.287 225.621 171.287 225.184C171.287 224.747 171.314 224.432 171.367 224.24C171.42 224.037 171.495 223.893 171.591 223.808C171.762 223.669 171.975 223.6 172.231 223.6L172.759 223.664V222.016C172.759 221.771 172.764 221.589 172.775 221.472C172.796 221.355 172.85 221.227 172.935 221.088C173.074 220.821 173.484 220.688 174.167 220.688C174.892 220.688 175.324 220.885 175.463 221.28C175.516 221.451 175.543 221.723 175.543 222.096V223.664C176.012 223.621 176.364 223.6 176.599 223.6C176.844 223.6 177.026 223.611 177.143 223.632C177.271 223.643 177.415 223.691 177.575 223.776C177.852 223.915 177.991 224.325 177.991 225.008C177.991 225.68 177.847 226.091 177.559 226.24C177.399 226.315 177.255 226.363 177.127 226.384C177.01 226.395 176.828 226.4 176.583 226.4ZM182.618 231.968C181.541 231.968 180.645 231.563 179.93 230.752C179.226 229.931 178.874 228.933 178.874 227.76V224.96C178.874 224.704 178.88 224.517 178.89 224.4C178.912 224.283 178.96 224.144 179.034 223.984C179.184 223.696 179.6 223.552 180.282 223.552C181.029 223.552 181.466 223.755 181.594 224.16C181.658 224.331 181.69 224.603 181.69 224.976V227.776C181.69 228.213 181.813 228.555 182.058 228.8C182.314 229.045 182.65 229.168 183.066 229.168C183.493 229.168 183.834 229.04 184.09 228.784C184.357 228.528 184.49 228.192 184.49 227.776V224.944C184.49 224.699 184.496 224.517 184.506 224.4C184.528 224.272 184.581 224.128 184.666 223.968C184.805 223.691 185.216 223.552 185.898 223.552C186.57 223.552 186.981 223.696 187.13 223.984C187.205 224.144 187.248 224.288 187.258 224.416C187.28 224.533 187.29 224.715 187.29 224.96V230.624C187.29 230.859 187.28 231.04 187.258 231.168C187.248 231.285 187.2 231.419 187.114 231.568C186.954 231.845 186.544 231.984 185.882 231.984C185.232 231.984 184.832 231.856 184.682 231.6C184.576 231.419 184.522 231.2 184.522 230.944C184.48 231.019 184.384 231.125 184.234 231.264C184.085 231.403 183.941 231.52 183.802 231.616C183.44 231.851 183.045 231.968 182.618 231.968ZM188.642 231.248C188.439 231.12 188.338 230.917 188.338 230.64C188.338 230.363 188.54 229.941 188.946 229.376C189.063 229.195 189.25 229.104 189.506 229.104C189.772 229.104 190.13 229.237 190.578 229.504C191.026 229.76 191.431 229.888 191.794 229.888C192.444 229.888 192.77 229.76 192.77 229.504C192.77 229.301 192.412 229.152 191.698 229.056C191.026 228.96 190.359 228.709 189.698 228.304C189.388 228.112 189.132 227.813 188.93 227.408C188.727 226.992 188.626 226.501 188.626 225.936C188.626 224.251 189.783 223.408 192.098 223.408C192.855 223.408 193.634 223.589 194.434 223.952C194.807 224.123 194.994 224.336 194.994 224.592C194.994 224.848 194.876 225.163 194.642 225.536C194.407 225.909 194.167 226.096 193.922 226.096C193.794 226.096 193.554 226.016 193.202 225.856C192.86 225.696 192.487 225.616 192.082 225.616C191.452 225.616 191.138 225.733 191.138 225.968C191.138 226.288 191.5 226.496 192.226 226.592C192.93 226.667 193.612 226.869 194.274 227.2C194.583 227.349 194.839 227.611 195.042 227.984C195.255 228.347 195.362 228.805 195.362 229.36C195.362 229.915 195.255 230.389 195.042 230.784C194.839 231.168 194.551 231.456 194.178 231.648C193.495 231.979 192.636 232.144 191.602 232.144C190.578 232.144 189.591 231.845 188.642 231.248ZM205.925 224.464C205.989 223.867 206.41 223.568 207.189 223.568C207.605 223.568 207.914 223.6 208.117 223.664C208.319 223.728 208.458 223.84 208.533 224C208.618 224.16 208.666 224.304 208.677 224.432C208.698 224.549 208.709 224.731 208.709 224.976V230.576C208.709 230.821 208.698 231.008 208.677 231.136C208.666 231.253 208.623 231.392 208.549 231.552C208.399 231.829 208.031 231.968 207.445 231.968C206.869 231.968 206.479 231.899 206.277 231.76C206.085 231.611 205.973 231.397 205.941 231.12C205.546 231.685 204.885 231.968 203.957 231.968C203.039 231.968 202.186 231.547 201.397 230.704C200.607 229.861 200.213 228.885 200.213 227.776C200.213 226.656 200.607 225.68 201.397 224.848C202.197 224.005 203.071 223.584 204.021 223.584C204.383 223.584 204.714 223.648 205.013 223.776C205.311 223.904 205.519 224.027 205.637 224.144C205.754 224.251 205.85 224.357 205.925 224.464ZM203.013 227.792C203.013 228.144 203.151 228.464 203.429 228.752C203.706 229.029 204.042 229.168 204.437 229.168C204.831 229.168 205.157 229.024 205.413 228.736C205.679 228.448 205.813 228.133 205.813 227.792C205.813 227.44 205.685 227.115 205.429 226.816C205.183 226.517 204.847 226.368 204.421 226.368C204.005 226.368 203.663 226.517 203.397 226.816C203.141 227.115 203.013 227.44 203.013 227.792ZM212.736 224.688C213.237 223.931 213.84 223.552 214.544 223.552C215.632 223.552 216.442 224.016 216.976 224.944C217.093 224.784 217.232 224.619 217.392 224.448C217.562 224.267 217.829 224.075 218.192 223.872C218.554 223.659 218.928 223.552 219.312 223.552C220.165 223.552 220.88 223.883 221.456 224.544C222.032 225.195 222.32 226.277 222.32 227.792V230.592C222.32 230.837 222.309 231.024 222.288 231.152C222.277 231.269 222.229 231.408 222.144 231.568C222.005 231.856 221.594 232 220.912 232C220.24 232 219.829 231.851 219.68 231.552C219.605 231.392 219.557 231.253 219.536 231.136C219.525 231.008 219.52 230.821 219.52 230.576V227.776C219.52 226.848 219.189 226.384 218.528 226.384C218.154 226.384 217.898 226.507 217.76 226.752C217.632 226.997 217.568 227.344 217.568 227.792V230.592C217.568 230.848 217.557 231.035 217.536 231.152C217.525 231.269 217.477 231.408 217.392 231.568C217.242 231.856 216.826 232 216.144 232C215.472 232 215.061 231.851 214.912 231.552C214.837 231.392 214.789 231.253 214.768 231.136C214.757 231.008 214.752 230.821 214.752 230.576V227.776C214.752 226.848 214.421 226.384 213.76 226.384C213.12 226.384 212.8 226.848 212.8 227.776V230.608C212.8 230.853 212.789 231.04 212.768 231.168C212.757 231.285 212.709 231.424 212.624 231.584C212.464 231.861 212.048 232 211.376 232C210.704 232 210.293 231.856 210.144 231.568C210.069 231.408 210.021 231.269 210 231.152C209.989 231.035 209.984 230.848 209.984 230.592V224.96C209.984 224.715 209.989 224.533 210 224.416C210.021 224.288 210.074 224.149 210.16 224C210.32 223.712 210.698 223.568 211.296 223.568C211.893 223.568 212.282 223.664 212.464 223.856C212.645 224.048 212.736 224.325 212.736 224.688ZM223.593 224.976C223.593 224.731 223.598 224.549 223.609 224.432C223.63 224.304 223.678 224.16 223.753 224C223.902 223.723 224.318 223.584 225.001 223.584C225.513 223.584 225.876 223.675 226.089 223.856C226.27 224.005 226.366 224.235 226.377 224.544C226.388 224.651 226.393 224.805 226.393 225.008V230.608C226.393 230.853 226.382 231.04 226.361 231.168C226.35 231.285 226.302 231.424 226.217 231.584C226.078 231.861 225.668 232 224.985 232C224.313 232 223.902 231.856 223.753 231.568C223.678 231.408 223.63 231.269 223.609 231.152C223.598 231.035 223.593 230.848 223.593 230.592V224.976ZM226.217 222.016C226.142 222.165 226.004 222.272 225.801 222.336C225.598 222.4 225.326 222.432 224.985 222.432C224.654 222.432 224.388 222.4 224.185 222.336C223.982 222.272 223.838 222.16 223.753 222C223.678 221.84 223.63 221.701 223.609 221.584C223.598 221.456 223.593 221.269 223.593 221.024C223.593 220.779 223.598 220.597 223.609 220.48C223.63 220.352 223.678 220.213 223.753 220.064C223.902 219.776 224.318 219.632 225.001 219.632C225.673 219.632 226.078 219.776 226.217 220.064C226.302 220.224 226.35 220.368 226.361 220.496C226.382 220.613 226.393 220.795 226.393 221.04C226.393 221.285 226.382 221.472 226.361 221.6C226.35 221.717 226.302 221.856 226.217 222.016ZM233.015 230.944C232.61 231.477 231.965 231.744 231.079 231.744C230.194 231.744 229.362 231.339 228.583 230.528C227.815 229.707 227.431 228.752 227.431 227.664C227.431 226.576 227.821 225.621 228.599 224.8C229.378 223.979 230.231 223.568 231.159 223.568C231.522 223.568 231.853 223.637 232.151 223.776C232.45 223.904 232.653 224.027 232.759 224.144C232.877 224.251 232.967 224.352 233.031 224.448C233.063 224.149 233.17 223.925 233.351 223.776C233.543 223.616 233.847 223.536 234.263 223.536C234.679 223.536 234.983 223.568 235.175 223.632C235.367 223.696 235.501 223.808 235.575 223.968C235.661 224.117 235.709 224.251 235.719 224.368C235.741 224.485 235.751 224.667 235.751 224.912V231.536C235.751 232.763 235.325 233.749 234.471 234.496C233.618 235.253 232.658 235.632 231.591 235.632C230.781 235.632 230.007 235.435 229.271 235.04C228.535 234.645 228.167 234.288 228.167 233.968C228.167 233.552 228.327 233.184 228.647 232.864C228.85 232.64 229.005 232.485 229.111 232.4C229.229 232.315 229.362 232.272 229.511 232.272C229.661 232.272 229.815 232.336 229.975 232.464C230.487 232.859 231.042 233.056 231.639 233.056C232.045 233.056 232.375 232.896 232.631 232.576C232.887 232.256 233.015 231.872 233.015 231.424V230.944ZM230.167 227.68C230.167 228.021 230.301 228.331 230.567 228.608C230.845 228.885 231.175 229.024 231.559 229.024C231.954 229.024 232.279 228.885 232.535 228.608C232.791 228.32 232.919 228.011 232.919 227.68C232.919 227.339 232.797 227.024 232.551 226.736C232.306 226.437 231.975 226.288 231.559 226.288C231.143 226.288 230.807 226.432 230.551 226.72C230.295 227.008 230.167 227.328 230.167 227.68ZM236.791 227.792C236.791 226.512 237.239 225.456 238.135 224.624C239.031 223.792 240.055 223.376 241.207 223.376C242.359 223.376 243.377 223.792 244.263 224.624C245.148 225.445 245.591 226.496 245.591 227.776C245.591 228.661 245.361 229.451 244.903 230.144C244.444 230.827 243.884 231.333 243.223 231.664C242.572 231.984 241.895 232.144 241.191 232.144C240.487 232.144 239.804 231.973 239.143 231.632C238.481 231.28 237.921 230.768 237.463 230.096C237.015 229.413 236.791 228.645 236.791 227.792ZM240.135 228.944C240.476 229.2 240.823 229.328 241.175 229.328C241.527 229.328 241.879 229.195 242.231 228.928C242.583 228.661 242.759 228.267 242.759 227.744C242.759 227.221 242.593 226.832 242.263 226.576C241.932 226.32 241.575 226.192 241.191 226.192C240.807 226.192 240.449 226.325 240.119 226.592C239.788 226.859 239.623 227.253 239.623 227.776C239.623 228.288 239.793 228.677 240.135 228.944ZM246.688 231.248C246.486 231.12 246.384 230.917 246.384 230.64C246.384 230.363 246.587 229.941 246.992 229.376C247.11 229.195 247.296 229.104 247.552 229.104C247.819 229.104 248.176 229.237 248.624 229.504C249.072 229.76 249.478 229.888 249.84 229.888C250.491 229.888 250.816 229.76 250.816 229.504C250.816 229.301 250.459 229.152 249.744 229.056C249.072 228.96 248.406 228.709 247.744 228.304C247.435 228.112 247.179 227.813 246.976 227.408C246.774 226.992 246.672 226.501 246.672 225.936C246.672 224.251 247.83 223.408 250.144 223.408C250.902 223.408 251.68 223.589 252.48 223.952C252.854 224.123 253.04 224.336 253.04 224.592C253.04 224.848 252.923 225.163 252.688 225.536C252.454 225.909 252.214 226.096 251.968 226.096C251.84 226.096 251.6 226.016 251.248 225.856C250.907 225.696 250.534 225.616 250.128 225.616C249.499 225.616 249.184 225.733 249.184 225.968C249.184 226.288 249.547 226.496 250.272 226.592C250.976 226.667 251.659 226.869 252.32 227.2C252.63 227.349 252.886 227.611 253.088 227.984C253.302 228.347 253.408 228.805 253.408 229.36C253.408 229.915 253.302 230.389 253.088 230.784C252.886 231.168 252.598 231.456 252.224 231.648C251.542 231.979 250.683 232.144 249.648 232.144C248.624 232.144 247.638 231.845 246.688 231.248Z" fill="#FFA72F"/>
<path d="M41.496 169.28C41.7662 169.787 41.9182 170.243 41.952 170.648C42.0196 171.053 42.0533 171.644 42.0533 172.421V200.541C42.0533 202.872 41.4116 204.24 40.128 204.645C39.4862 204.848 38.6756 204.949 37.696 204.949C36.7164 204.949 35.9396 204.865 35.3653 204.696C34.7911 204.527 34.352 204.324 34.048 204.088C33.744 203.852 33.5076 203.514 33.3387 203.075C33.1698 202.5 33.0853 201.622 33.0853 200.44V183.467C32.2409 184.514 31.008 186.186 29.3867 188.483C27.7653 190.746 26.7351 192.164 26.296 192.739C25.8569 193.313 25.5529 193.718 25.384 193.955C25.2151 194.157 24.7929 194.461 24.1173 194.867C23.4756 195.238 22.7662 195.424 21.9893 195.424C21.2462 195.424 20.5538 195.255 19.912 194.917C19.304 194.546 18.8649 194.191 18.5947 193.853L18.1893 193.296C17.5138 192.452 16.1796 190.661 14.1867 187.925C12.1938 185.156 11.1129 183.669 10.944 183.467V200.541C10.944 201.318 10.9102 201.909 10.8427 202.315C10.8089 202.686 10.6569 203.108 10.3867 203.581C9.88 204.493 8.56267 204.949 6.43467 204.949C4.37422 204.949 3.09067 204.493 2.584 203.581C2.31378 203.108 2.14489 202.669 2.07733 202.264C2.04356 201.859 2.02667 201.251 2.02667 200.44V172.32C2.02667 171.543 2.04356 170.969 2.07733 170.597C2.14489 170.192 2.31378 169.736 2.584 169.229C3.09067 168.351 4.408 167.912 6.536 167.912C7.448 167.912 8.22489 168.03 8.86667 168.267C9.54222 168.469 9.98133 168.689 10.184 168.925L10.488 169.229L21.9893 184.328C27.7316 176.728 31.5653 171.712 33.4907 169.28C34.0649 168.368 35.416 167.912 37.544 167.912C39.7058 167.912 41.0231 168.368 41.496 169.28ZM46.1126 182.757C46.1126 181.98 46.1295 181.406 46.1633 181.035C46.2308 180.629 46.3828 180.173 46.6193 179.667C47.0922 178.788 48.4095 178.349 50.5713 178.349C52.1926 178.349 53.341 178.636 54.0166 179.211C54.5908 179.684 54.8948 180.41 54.9286 181.389C54.9624 181.727 54.9793 182.217 54.9793 182.859V200.592C54.9793 201.369 54.9455 201.96 54.8779 202.365C54.8442 202.737 54.6922 203.176 54.4219 203.683C53.9828 204.561 52.6824 205 50.5206 205C48.3926 205 47.0922 204.544 46.6193 203.632C46.3828 203.125 46.2308 202.686 46.1633 202.315C46.1295 201.943 46.1126 201.352 46.1126 200.541V182.757ZM54.4219 173.384C54.1855 173.857 53.7464 174.195 53.1046 174.397C52.4628 174.6 51.6015 174.701 50.5206 174.701C49.4735 174.701 48.629 174.6 47.9873 174.397C47.3455 174.195 46.8895 173.84 46.6193 173.333C46.3828 172.827 46.2308 172.388 46.1633 172.016C46.1295 171.611 46.1126 171.02 46.1126 170.243C46.1126 169.466 46.1295 168.892 46.1633 168.52C46.2308 168.115 46.3828 167.676 46.6193 167.203C47.0922 166.291 48.4095 165.835 50.5713 165.835C52.6993 165.835 53.9828 166.291 54.4219 167.203C54.6922 167.709 54.8442 168.165 54.8779 168.571C54.9455 168.942 54.9793 169.516 54.9793 170.293C54.9793 171.07 54.9455 171.661 54.8779 172.067C54.8442 172.438 54.6922 172.877 54.4219 173.384ZM98.7458 178.907C100.502 179.954 101.38 181.068 101.38 182.251C101.38 182.926 101.043 183.855 100.367 185.037L89.8791 203.024C89.5413 203.598 89.0009 204.122 88.2578 204.595C87.5147 205.034 86.7715 205.253 86.0284 205.253C85.3191 205.253 84.6267 205.084 83.9511 204.747C83.3093 204.375 82.8533 204.004 82.5831 203.632L82.1271 203.075L71.5884 185.037C70.9129 183.923 70.5751 183.011 70.5751 182.301C70.5751 181.085 71.4533 179.954 73.2098 178.907C74.4933 178.164 75.5067 177.792 76.2498 177.792C76.9929 177.792 77.5671 178.028 77.9724 178.501C78.4115 178.94 78.8675 179.616 79.3404 180.528L85.9778 193.296L92.6151 180.528C92.9867 179.886 93.2569 179.43 93.4258 179.16C93.6284 178.856 93.9324 178.569 94.3378 178.299C94.7431 177.995 95.2835 177.843 95.9591 177.843C96.6347 177.843 97.5635 178.197 98.7458 178.907ZM119.946 181.136C120.148 179.244 121.483 178.299 123.948 178.299C125.266 178.299 126.245 178.4 126.887 178.603C127.529 178.805 127.968 179.16 128.204 179.667C128.475 180.173 128.627 180.629 128.66 181.035C128.728 181.406 128.762 181.98 128.762 182.757V200.491C128.762 201.268 128.728 201.859 128.66 202.264C128.627 202.636 128.492 203.075 128.255 203.581C127.782 204.46 126.617 204.899 124.759 204.899C122.935 204.899 121.702 204.679 121.06 204.24C120.452 203.767 120.098 203.092 119.996 202.213C118.747 204.004 116.652 204.899 113.714 204.899C110.809 204.899 108.107 203.564 105.607 200.896C103.108 198.228 101.858 195.137 101.858 191.624C101.858 188.077 103.108 184.987 105.607 182.352C108.14 179.684 110.91 178.349 113.916 178.349C115.065 178.349 116.112 178.552 117.058 178.957C118.004 179.363 118.662 179.751 119.034 180.123C119.405 180.46 119.709 180.798 119.946 181.136ZM110.724 191.675C110.724 192.789 111.164 193.803 112.042 194.715C112.92 195.593 113.984 196.032 115.234 196.032C116.484 196.032 117.514 195.576 118.324 194.664C119.169 193.752 119.591 192.756 119.591 191.675C119.591 190.56 119.186 189.53 118.375 188.584C117.598 187.638 116.534 187.165 115.183 187.165C113.866 187.165 112.785 187.638 111.94 188.584C111.13 189.53 110.724 190.56 110.724 191.675ZM149.621 180.984C149.824 179.194 151.141 178.299 153.573 178.299C154.857 178.299 155.803 178.4 156.411 178.603C157.019 178.805 157.441 179.16 157.677 179.667C157.948 180.14 158.1 180.562 158.133 180.933C158.201 181.305 158.235 181.879 158.235 182.656V212.245C158.235 213.022 158.201 213.596 158.133 213.968C158.1 214.34 157.948 214.762 157.677 215.235C157.441 215.708 157.002 216.045 156.36 216.248C155.752 216.451 154.925 216.552 153.877 216.552C152.83 216.552 152.003 216.451 151.395 216.248C150.787 216.045 150.348 215.691 150.077 215.184C149.841 214.711 149.689 214.289 149.621 213.917C149.588 213.546 149.571 212.972 149.571 212.195V201.96C148.22 203.514 146.311 204.291 143.845 204.291C140.839 204.291 138.12 202.99 135.688 200.389C133.256 197.788 132.04 194.765 132.04 191.32C132.04 187.875 133.273 184.852 135.739 182.251C138.205 179.65 140.805 178.349 143.541 178.349C146.311 178.349 148.338 179.228 149.621 180.984ZM141.971 194.36C142.849 195.238 143.896 195.677 145.112 195.677C146.328 195.677 147.341 195.238 148.152 194.36C148.963 193.448 149.368 192.468 149.368 191.421C149.368 190.34 148.98 189.344 148.203 188.432C147.426 187.486 146.379 187.013 145.061 187.013C143.778 187.013 142.731 187.469 141.92 188.381C141.109 189.26 140.704 190.256 140.704 191.371C140.704 192.485 141.126 193.482 141.971 194.36ZM174.146 204.899C170.734 204.899 167.897 203.615 165.634 201.048C163.404 198.447 162.29 195.289 162.29 191.573V182.707C162.29 181.896 162.307 181.305 162.34 180.933C162.408 180.562 162.56 180.123 162.796 179.616C163.269 178.704 164.587 178.248 166.748 178.248C169.113 178.248 170.498 178.89 170.903 180.173C171.106 180.714 171.207 181.575 171.207 182.757V191.624C171.207 193.009 171.595 194.09 172.372 194.867C173.183 195.644 174.247 196.032 175.564 196.032C176.915 196.032 177.996 195.627 178.807 194.816C179.651 194.005 180.074 192.941 180.074 191.624V182.656C180.074 181.879 180.091 181.305 180.124 180.933C180.192 180.528 180.361 180.072 180.631 179.565C181.07 178.687 182.371 178.248 184.532 178.248C186.66 178.248 187.961 178.704 188.434 179.616C188.67 180.123 188.805 180.579 188.839 180.984C188.907 181.356 188.94 181.93 188.94 182.707V200.643C188.94 201.386 188.907 201.96 188.839 202.365C188.805 202.737 188.653 203.159 188.383 203.632C187.876 204.51 186.576 204.949 184.482 204.949C182.421 204.949 181.155 204.544 180.682 203.733C180.344 203.159 180.175 202.467 180.175 201.656C180.04 201.892 179.736 202.23 179.263 202.669C178.79 203.108 178.334 203.48 177.895 203.784C176.747 204.527 175.497 204.899 174.146 204.899ZM193.016 182.757C193.016 181.98 193.033 181.406 193.067 181.035C193.134 180.629 193.286 180.173 193.523 179.667C193.996 178.788 195.313 178.349 197.475 178.349C199.096 178.349 200.245 178.636 200.92 179.211C201.494 179.684 201.798 180.41 201.832 181.389C201.866 181.727 201.883 182.217 201.883 182.859V200.592C201.883 201.369 201.849 201.96 201.782 202.365C201.748 202.737 201.596 203.176 201.326 203.683C200.886 204.561 199.586 205 197.424 205C195.296 205 193.996 204.544 193.523 203.632C193.286 203.125 193.134 202.686 193.067 202.315C193.033 201.943 193.016 201.352 193.016 200.541V182.757ZM201.326 173.384C201.089 173.857 200.65 174.195 200.008 174.397C199.366 174.6 198.505 174.701 197.424 174.701C196.377 174.701 195.533 174.6 194.891 174.397C194.249 174.195 193.793 173.84 193.523 173.333C193.286 172.827 193.134 172.388 193.067 172.016C193.033 171.611 193.016 171.02 193.016 170.243C193.016 169.466 193.033 168.892 193.067 168.52C193.134 168.115 193.286 167.676 193.523 167.203C193.996 166.291 195.313 165.835 197.475 165.835C199.603 165.835 200.886 166.291 201.326 167.203C201.596 167.709 201.748 168.165 201.782 168.571C201.849 168.942 201.883 169.516 201.883 170.293C201.883 171.07 201.849 171.661 201.782 172.067C201.748 172.438 201.596 172.877 201.326 173.384ZM221.434 187.267L218.141 187.064V194.056C218.141 194.968 218.276 195.627 218.546 196.032C218.85 196.437 219.391 196.64 220.168 196.64C220.978 196.64 221.586 196.674 221.992 196.741C222.431 196.775 222.887 196.927 223.36 197.197C224.137 197.636 224.525 198.768 224.525 200.592C224.525 202.72 224.052 204.02 223.106 204.493C222.6 204.73 222.144 204.882 221.738 204.949C221.367 204.983 220.809 205 220.066 205C216.553 205 213.885 204.206 212.061 202.619C210.237 201.031 209.325 198.346 209.325 194.563V187.064C208.683 187.165 207.991 187.216 207.248 187.216C206.505 187.216 205.88 186.929 205.373 186.355C204.9 185.78 204.664 184.801 204.664 183.416C204.664 182.031 204.748 181.035 204.917 180.427C205.086 179.785 205.322 179.329 205.626 179.059C206.167 178.62 206.842 178.4 207.653 178.4L209.325 178.603V173.384C209.325 172.607 209.342 172.033 209.376 171.661C209.443 171.29 209.612 170.884 209.882 170.445C210.321 169.601 211.622 169.179 213.784 169.179C216.081 169.179 217.449 169.804 217.888 171.053C218.057 171.594 218.141 172.455 218.141 173.637V178.603C219.627 178.468 220.742 178.4 221.485 178.4C222.262 178.4 222.836 178.434 223.208 178.501C223.613 178.535 224.069 178.687 224.576 178.957C225.454 179.396 225.893 180.697 225.893 182.859C225.893 184.987 225.437 186.287 224.525 186.76C224.018 186.996 223.562 187.148 223.157 187.216C222.785 187.25 222.211 187.267 221.434 187.267ZM246.019 181.136C246.221 179.244 247.556 178.299 250.021 178.299C251.339 178.299 252.318 178.4 252.96 178.603C253.602 178.805 254.041 179.16 254.277 179.667C254.548 180.173 254.7 180.629 254.733 181.035C254.801 181.406 254.835 181.98 254.835 182.757V200.491C254.835 201.268 254.801 201.859 254.733 202.264C254.7 202.636 254.564 203.075 254.328 203.581C253.855 204.46 252.69 204.899 250.832 204.899C249.008 204.899 247.775 204.679 247.133 204.24C246.525 203.767 246.171 203.092 246.069 202.213C244.82 204.004 242.725 204.899 239.787 204.899C236.882 204.899 234.18 203.564 231.68 200.896C229.18 198.228 227.931 195.137 227.931 191.624C227.931 188.077 229.18 184.987 231.68 182.352C234.213 179.684 236.983 178.349 239.989 178.349C241.138 178.349 242.185 178.552 243.131 178.957C244.076 179.363 244.735 179.751 245.107 180.123C245.478 180.46 245.782 180.798 246.019 181.136ZM236.797 191.675C236.797 192.789 237.236 193.803 238.115 194.715C238.993 195.593 240.057 196.032 241.307 196.032C242.556 196.032 243.587 195.576 244.397 194.664C245.242 193.752 245.664 192.756 245.664 191.675C245.664 190.56 245.259 189.53 244.448 188.584C243.671 187.638 242.607 187.165 241.256 187.165C239.939 187.165 238.858 187.638 238.013 188.584C237.203 189.53 236.797 190.56 236.797 191.675Z" fill="#582B1C"/>
<mask id="mask0_166_8263" style="mask-type:luminance" maskUnits="userSpaceOnUse" x="42" y="26" width="174" height="144">
<path d="M51.4058 26C46.2116 26 42 30.1839 42 35.3442V160.235C42 165.395 46.2116 169.579 51.4058 169.579H206.504C211.699 169.579 215.909 165.395 215.909 160.235V35.3442C215.909 30.1839 211.699 26 206.504 26H51.4058Z" fill="white"/>
</mask>
<g mask="url(#mask0_166_8263)">
<path d="M169.053 170.338C168.257 170.251 167.461 170.101 166.671 169.883C164.789 169.364 163.561 168.789 163.509 168.765L164.707 166.252C164.717 166.257 165.786 166.753 167.419 167.203C174.144 169.057 181.426 164.986 183.325 158.312C183.622 157.268 183.77 156.19 183.925 155.049C184.166 153.286 184.416 151.461 185.254 149.687C186.598 146.847 188.756 144.795 191.333 143.909L192.248 146.536C190.391 147.175 188.806 148.713 187.787 150.869C187.131 152.258 186.921 153.795 186.698 155.423C186.537 156.609 186.37 157.836 186.019 159.068C183.931 166.402 176.498 171.152 169.053 170.338Z" fill="white"/>
</g>
<mask id="mask1_166_8263" style="mask-type:luminance" maskUnits="userSpaceOnUse" x="42" y="26" width="174" height="144">
<path d="M51.4058 26C46.2116 26 42 30.1839 42 35.3442V160.235C42 165.395 46.2116 169.579 51.4058 169.579H206.504C211.699 169.579 215.909 165.395 215.909 160.235V35.3442C215.909 30.1839 211.699 26 206.504 26H51.4058Z" fill="white"/>
</mask>
<g mask="url(#mask1_166_8263)">
<path d="M193.189 140.111L190.349 141.088C187.001 142.24 184.226 144.843 182.536 148.417C181.5 150.607 181.207 152.753 180.948 154.648C180.802 155.725 180.674 156.655 180.434 157.5C179.253 161.652 175.178 164.667 170.746 164.667C169.89 164.667 169.041 164.553 168.222 164.327C166.877 163.956 165.982 163.55 165.974 163.545L163.251 162.251L161.991 164.976L160.793 167.488L159.51 170.181L162.219 171.461C162.371 171.533 163.765 172.179 165.867 172.759C166.799 173.017 167.76 173.2 168.725 173.306C169.383 173.378 170.053 173.414 170.717 173.414C179.161 173.414 186.642 167.849 188.909 159.881C189.317 158.45 189.507 157.061 189.674 155.836C189.874 154.369 190.046 153.113 190.506 152.139C191.178 150.718 192.146 149.73 193.231 149.357L196.07 148.38L195.087 145.559L194.172 142.932L193.189 140.111ZM191.333 143.909L192.248 146.536C190.391 147.175 188.807 148.714 187.787 150.87C187.13 152.258 186.92 153.795 186.699 155.423C186.536 156.609 186.369 157.836 186.018 159.069C184.087 165.854 177.577 170.429 170.717 170.429C170.164 170.429 169.609 170.399 169.054 170.339C168.257 170.251 167.461 170.101 166.671 169.883C164.789 169.364 163.56 168.789 163.51 168.765L164.706 166.252C164.717 166.257 165.786 166.753 167.42 167.204C168.522 167.508 169.639 167.652 170.746 167.652C176.388 167.652 181.738 163.892 183.326 158.312C183.623 157.268 183.77 156.19 183.926 155.049C184.166 153.285 184.415 151.462 185.255 149.687C186.598 146.847 188.757 144.795 191.333 143.909Z" fill="#36190D"/>
</g>
<mask id="mask2_166_8263" style="mask-type:luminance" maskUnits="userSpaceOnUse" x="42" y="26" width="174" height="144">
<path d="M51.4058 26C46.2116 26 42 30.1839 42 35.3442V160.235C42 165.395 46.2116 169.579 51.4058 169.579H206.504C211.699 169.579 215.909 165.395 215.909 160.235V35.3442C215.909 30.1839 211.699 26 206.504 26H51.4058Z" fill="white"/>
</mask>
<g mask="url(#mask2_166_8263)">
<path d="M186.554 142.292C186.655 141.195 187.056 140.036 187.983 138.94C188.773 138.007 189.82 137.327 190.969 136.9C191.401 136.739 191.911 136.578 192.491 136.445C195.675 135.712 198.125 133.168 198.545 129.947C198.575 129.718 198.6 129.48 198.619 129.235C198.619 129.235 204.133 134.592 201.745 142.236C200.909 144.91 199.077 147.208 196.515 148.376C195.568 148.807 194.471 149.129 193.269 149.169C189.428 149.296 186.205 146.095 186.554 142.292Z" fill="#995036"/>
</g>
<mask id="mask3_166_8263" style="mask-type:luminance" maskUnits="userSpaceOnUse" x="42" y="26" width="174" height="144">
<path d="M51.4058 26C46.2116 26 42 30.1839 42 35.3442V160.235C42 165.395 46.2116 169.579 51.4058 169.579H206.504C211.699 169.579 215.909 165.395 215.909 160.235V35.3442C215.909 30.1839 211.699 26 206.504 26H51.4058Z" fill="white"/>
</mask>
<g mask="url(#mask3_166_8263)">
<path d="M196.112 122.625L195.623 129.008C195.608 129.2 195.589 129.384 195.566 129.563C195.311 131.511 193.839 133.07 191.813 133.536C191.167 133.685 190.528 133.876 189.916 134.104C188.23 134.731 186.766 135.74 185.684 137.019C184.447 138.481 183.733 140.164 183.562 142.021C183.324 144.61 184.177 147.106 185.962 149.05C187.777 151.025 190.359 152.157 193.048 152.157C193.154 152.157 193.262 152.156 193.369 152.153C194.848 152.103 196.328 151.745 197.768 151.089C200.997 149.617 203.492 146.713 204.614 143.121C207.514 133.841 200.998 127.371 200.719 127.1L196.112 122.625ZM198.619 129.235C198.619 129.235 204.133 134.592 201.745 142.236C200.909 144.91 199.076 147.208 196.515 148.375C195.568 148.807 194.472 149.129 193.269 149.169C193.195 149.171 193.121 149.172 193.048 149.172C189.305 149.172 186.212 146.021 186.554 142.292C186.655 141.196 187.057 140.036 187.983 138.94C188.773 138.007 189.82 137.327 190.97 136.899C191.401 136.739 191.911 136.578 192.491 136.445C195.676 135.712 198.125 133.167 198.545 129.946C198.575 129.717 198.6 129.481 198.619 129.235Z" fill="#36190D"/>
</g>
<mask id="mask4_166_8263" style="mask-type:luminance" maskUnits="userSpaceOnUse" x="42" y="26" width="174" height="144">
<path d="M51.4058 26C46.2116 26 42 30.1839 42 35.3442V160.235C42 165.395 46.2116 169.579 51.4058 169.579H206.504C211.699 169.579 215.909 165.395 215.909 160.235V35.3442C215.909 30.1839 211.699 26 206.504 26H51.4058Z" fill="white"/>
</mask>
<g mask="url(#mask4_166_8263)">
<path d="M197.951 139.067C198.812 141.115 197.279 143.701 194.527 144.843C191.776 145.985 188.848 145.25 187.987 143.202C187.126 141.154 188.658 138.568 191.41 137.427C194.162 136.285 197.09 137.019 197.951 139.067Z" fill="#A95A3C"/>
</g>
<mask id="mask5_166_8263" style="mask-type:luminance" maskUnits="userSpaceOnUse" x="42" y="26" width="174" height="144">
<path d="M51.4058 26C46.2116 26 42 30.1839 42 35.3442V160.235C42 165.395 46.2116 169.579 51.4058 169.579H206.504C211.699 169.579 215.909 165.395 215.909 160.235V35.3442C215.909 30.1839 211.699 26 206.504 26H51.4058Z" fill="white"/>
</mask>
<g mask="url(#mask5_166_8263)">
<path d="M168.832 170.342H89.22C89.22 146.612 99.2034 124.202 99.2034 124.202H158.842C158.842 124.202 168.832 146.612 168.832 170.342Z" fill="white"/>
</g>
<mask id="mask6_166_8263" style="mask-type:luminance" maskUnits="userSpaceOnUse" x="42" y="26" width="174" height="144">
<path d="M51.4058 26C46.2116 26 42 30.1839 42 35.3442V160.235C42 165.395 46.2116 169.579 51.4058 169.579H206.504C211.699 169.579 215.909 165.395 215.909 160.235V35.3442C215.909 30.1839 211.699 26 206.504 26H51.4058Z" fill="white"/>
</mask>
<g mask="url(#mask6_166_8263)">
<path d="M157.74 168.501C157.74 169.121 157.723 169.734 157.688 170.342H100.369C100.333 169.734 100.316 169.121 100.316 168.501C100.316 165.003 100.876 161.651 101.907 158.529C105.812 146.676 116.478 138.169 129.031 138.169C141.579 138.169 152.244 146.67 156.15 158.524C157.181 161.645 157.74 165.003 157.74 168.501Z" fill="#FFBDB1"/>
</g>
<mask id="mask7_166_8263" style="mask-type:luminance" maskUnits="userSpaceOnUse" x="42" y="26" width="174" height="144">
<path d="M51.4058 26C46.2116 26 42 30.1839 42 35.3442V160.235C42 165.395 46.2116 169.579 51.4058 169.579H206.504C211.699 169.579 215.909 165.395 215.909 160.235V35.3442C215.909 30.1839 211.699 26 206.504 26H51.4058Z" fill="white"/>
</mask>
<g mask="url(#mask7_166_8263)">
<path d="M156.149 158.524C150.618 163.776 140.541 167.285 129.025 167.285C117.515 167.285 107.438 163.776 101.907 158.53C105.812 146.676 116.477 138.169 129.031 138.169C141.579 138.169 152.245 146.67 156.149 158.524Z" fill="#FFCCC2"/>
</g>
<mask id="mask8_166_8263" style="mask-type:luminance" maskUnits="userSpaceOnUse" x="42" y="26" width="174" height="144">
<path d="M51.4058 26C46.2116 26 42 30.1839 42 35.3442V160.235C42 165.395 46.2116 169.579 51.4058 169.579H206.504C211.699 169.579 215.909 165.395 215.909 160.235V35.3442C215.909 30.1839 211.699 26 206.504 26H51.4058Z" fill="white"/>
</mask>
<g mask="url(#mask8_166_8263)">
<path d="M184.507 100.326C182.633 100.326 180.904 101.252 179.881 102.805C178.52 104.889 176.898 106.967 175.056 108.991C169.547 115.041 163.318 119.208 159.969 121.218L158.842 121.217H100.462L95.4925 116.204L93.6373 114.333L91.5333 115.923C91.4507 115.985 83.2021 122.222 74.8047 128.928C72.125 131.068 70.2117 133.973 69.4177 137.106C68.535 140.573 68.4789 145.752 73.2248 150.724L73.2484 150.749L73.2728 150.773L81.8812 159.385L80.423 162.774C79.8062 164.213 79.8928 165.818 80.6591 167.178C81.4227 168.532 82.7456 169.44 84.2897 169.667C84.9146 169.756 85.5585 169.809 86.2172 169.825C86.2159 169.999 86.2152 170.171 86.2152 170.342V173.328H89.2202H91.5576C92.4652 174.057 93.5961 174.455 94.7513 174.455C95.9315 174.455 97.0501 174.049 97.9334 173.328H168.832H171.836V170.342C171.836 163.246 170.97 155.605 169.26 147.595C181.77 140.685 189.36 130.613 193.583 123.197C196.397 118.235 197.981 114.016 198.675 111.942C199.164 110.486 199.014 108.88 198.265 107.536C197.519 106.197 196.234 105.223 194.739 104.864C193.34 104.529 191.997 104.36 190.745 104.36C190.538 104.36 190.34 104.365 190.151 104.373C189.723 103.594 189.224 102.875 188.659 102.22C187.634 101.021 186.117 100.326 184.507 100.326ZM92.8636 143.336C93.2626 141.756 93.6732 140.248 94.0858 138.815C93.2755 141.6 92.8623 143.335 92.8623 143.335C92.8629 143.335 92.8629 143.336 92.8636 143.336ZM184.507 103.311C185.198 103.311 185.888 103.59 186.38 104.166C187.102 105.001 187.823 106.148 188.329 107.7C188.329 107.7 189.138 107.345 190.745 107.345C191.61 107.345 192.707 107.448 194.032 107.766C195.469 108.111 196.29 109.611 195.824 111C195.004 113.452 193.468 117.319 190.967 121.727C186.382 129.783 178.528 139.649 165.833 146.022C167.512 153.283 168.832 161.722 168.832 170.342H96.5835C96.5294 170.423 96.4698 170.513 96.4191 170.589C96.0309 171.167 95.3972 171.47 94.7513 171.47C94.2954 171.47 93.8335 171.319 93.4486 171.007C93.1855 170.793 92.9529 170.569 92.7392 170.342H89.2202C89.2202 169.102 89.2526 167.866 89.3047 166.636C88.3321 166.786 87.4509 166.846 86.6683 166.846C85.9338 166.846 85.2859 166.793 84.73 166.714C83.4273 166.522 82.6692 165.152 83.1859 163.947L85.4394 158.708L75.4046 148.669C71.724 144.814 71.5657 140.842 72.3307 137.836C72.9921 135.227 74.5775 132.94 76.687 131.255C85.15 124.496 93.3519 118.299 93.3519 118.299L99.2036 124.202C99.2022 124.204 99.2016 124.207 99.2002 124.209C99.2009 124.208 99.2036 124.202 99.2036 124.202H158.842C158.842 124.202 158.981 124.515 159.218 125.084C161.103 124.082 169.793 119.222 177.283 110.993C179.095 109.005 180.84 106.82 182.396 104.44C182.886 103.697 183.696 103.311 184.507 103.311Z" fill="#36190D"/>
</g>
<mask id="mask9_166_8263" style="mask-type:luminance" maskUnits="userSpaceOnUse" x="42" y="26" width="174" height="144">
<path d="M51.4058 26C46.2116 26 42 30.1839 42 35.3442V160.235C42 165.395 46.2116 169.579 51.4058 169.579H206.504C211.699 169.579 215.909 165.395 215.909 160.235V35.3442C215.909 30.1839 211.699 26 206.504 26H51.4058Z" fill="white"/>
</mask>
<g mask="url(#mask9_166_8263)">
<path d="M195.824 111C195.004 113.452 193.468 117.319 190.967 121.727C186.19 130.12 177.88 140.488 164.229 146.814C164.229 146.814 158.67 142.51 158.841 125.281C158.841 125.281 168.83 120.28 177.283 110.993C179.095 109.005 180.841 106.82 182.396 104.44C183.302 103.064 185.31 102.914 186.38 104.166C187.101 105 187.824 106.148 188.329 107.701C188.329 107.701 190.246 106.859 194.033 107.766C195.47 108.111 196.29 109.611 195.824 111Z" fill="white"/>
</g>
<mask id="mask10_166_8263" style="mask-type:luminance" maskUnits="userSpaceOnUse" x="42" y="26" width="174" height="144">
<path d="M51.4058 26C46.2116 26 42 30.1839 42 35.3442V160.235C42 165.395 46.2116 169.579 51.4058 169.579H206.504C211.699 169.579 215.909 165.395 215.909 160.235V35.3442C215.909 30.1839 211.699 26 206.504 26H51.4058Z" fill="white"/>
</mask>
<g mask="url(#mask10_166_8263)">
<path d="M195.824 111C195.004 113.452 193.468 117.319 190.967 121.727C184.798 120.671 179.685 116.549 177.283 110.993C179.095 109.005 180.841 106.82 182.396 104.44C183.302 103.064 185.31 102.914 186.38 104.166C187.101 105 187.824 106.148 188.329 107.701C188.329 107.701 190.246 106.859 194.033 107.766C195.47 108.111 196.29 109.611 195.824 111Z" fill="#FFD4CC"/>
</g>
<mask id="mask11_166_8263" style="mask-type:luminance" maskUnits="userSpaceOnUse" x="42" y="26" width="174" height="144">
<path d="M51.4058 26C46.2116 26 42 30.1839 42 35.3442V160.235C42 165.395 46.2116 169.579 51.4058 169.579H206.504C211.699 169.579 215.909 165.395 215.909 160.235V35.3442C215.909 30.1839 211.699 26 206.504 26H51.4058Z" fill="white"/>
</mask>
<g mask="url(#mask11_166_8263)">
<path d="M101.374 161.509C101.188 162.173 100.933 162.831 100.609 163.461C99.0585 166.529 97.4454 169.063 96.4187 170.59C95.7573 171.576 94.3789 171.761 93.4482 171.007C91.0432 169.049 90.8017 166.351 90.8017 166.351C88.2174 166.953 86.1702 166.919 84.7296 166.714C83.4269 166.522 82.6688 165.152 83.1862 163.947L85.4397 158.709L75.4049 148.67C71.7243 144.814 71.566 140.842 72.3309 137.836C72.9924 135.227 74.5777 132.94 76.6866 131.255C85.1502 124.496 93.3522 118.299 93.3522 118.299L99.2032 124.202C95.3454 134.213 92.8625 143.335 92.8625 143.335C95.7363 146.656 98.073 149.751 99.7957 152.183C101.733 154.922 102.277 158.359 101.374 161.509Z" fill="white"/>
</g>
<mask id="mask12_166_8263" style="mask-type:luminance" maskUnits="userSpaceOnUse" x="42" y="26" width="174" height="144">
<path d="M51.4058 26C46.2116 26 42 30.1839 42 35.3442V160.235C42 165.395 46.2116 169.579 51.4058 169.579H206.504C211.699 169.579 215.909 165.395 215.909 160.235V35.3442C215.909 30.1839 211.699 26 206.504 26H51.4058Z" fill="white"/>
</mask>
<g mask="url(#mask12_166_8263)">
<path d="M101.374 161.509C101.188 162.173 100.933 162.831 100.609 163.461C99.0585 166.529 97.4454 169.063 96.4187 170.59C95.7573 171.576 94.3789 171.761 93.4482 171.007C91.0432 169.049 90.8017 166.351 90.8017 166.351C88.2174 166.953 86.1702 166.919 84.7296 166.714C83.4269 166.522 82.6688 165.152 83.1862 163.947L85.4397 158.709C85.4397 158.709 93.5105 156.271 101.374 161.509Z" fill="#FFD4CC"/>
</g>
<mask id="mask13_166_8263" style="mask-type:luminance" maskUnits="userSpaceOnUse" x="42" y="26" width="174" height="144">
<path d="M51.4058 26C46.2116 26 42 30.1839 42 35.3442V160.235C42 165.395 46.2116 169.579 51.4058 169.579H206.504C211.699 169.579 215.909 165.395 215.909 160.235V35.3442C215.909 30.1839 211.699 26 206.504 26H51.4058Z" fill="white"/>
</mask>
<g mask="url(#mask13_166_8263)">
<path d="M94.6692 173.979C94.5515 173.979 94.4332 173.975 94.3148 173.967C92.5543 173.853 90.9534 172.871 90.0329 171.339C89.6298 170.669 89.3539 169.982 89.1665 169.382C87.3823 169.855 86.2096 169.829 86.05 169.82L86.1643 166.837C86.1778 166.836 87.6265 166.866 89.7448 166.062L91.5953 165.36L91.7772 167.32C91.7779 167.327 91.9185 168.655 92.6125 169.808C93.0325 170.507 93.7244 170.937 94.5103 170.988C95.263 171.039 95.963 170.72 96.4405 170.12C96.6144 169.901 96.7834 169.652 96.9424 169.378L99.4286 164.78C100.793 162.255 101.279 159.415 100.795 156.784C100.571 155.561 100.162 154.413 99.5794 153.373C99.2183 152.728 98.7293 152.076 98.0861 151.378L91.7542 144.518C92.9046 145.253 94.0483 145.999 95.1771 146.766C100.083 150.099 103.373 154.188 103.751 156.247C104.356 159.542 103.761 163.074 102.075 166.192L99.5659 170.833C99.3116 171.271 99.0613 171.639 98.7983 171.97C97.7736 173.259 96.2843 173.979 94.6692 173.979Z" fill="#36190D"/>
</g>
<mask id="mask14_166_8263" style="mask-type:luminance" maskUnits="userSpaceOnUse" x="42" y="26" width="174" height="144">
<path d="M51.4058 26C46.2116 26 42 30.1839 42 35.3442V160.235C42 165.395 46.2116 169.579 51.4058 169.579H206.504C211.699 169.579 215.909 165.395 215.909 160.235V35.3442C215.909 30.1839 211.699 26 206.504 26H51.4058Z" fill="white"/>
</mask>
<g mask="url(#mask14_166_8263)">
<path d="M133.168 154.525C133.168 156.799 131.314 158.641 129.026 158.641C126.738 158.641 124.883 156.799 124.883 154.525C124.883 152.252 126.738 150.409 129.026 150.409C131.314 150.409 133.168 152.252 133.168 154.525Z" fill="#FFA72F"/>
</g>
<mask id="mask15_166_8263" style="mask-type:luminance" maskUnits="userSpaceOnUse" x="42" y="26" width="174" height="144">
<path d="M51.4058 26C46.2116 26 42 30.1839 42 35.3442V160.235C42 165.395 46.2116 169.579 51.4058 169.579H206.504C211.699 169.579 215.909 165.395 215.909 160.235V35.3442C215.909 30.1839 211.699 26 206.504 26H51.4058Z" fill="white"/>
</mask>
<g mask="url(#mask15_166_8263)">
<path d="M129.026 147.424C125.085 147.424 121.879 150.609 121.879 154.525C121.879 158.441 125.085 161.627 129.026 161.627C132.967 161.627 136.173 158.441 136.173 154.525C136.173 150.609 132.967 147.424 129.026 147.424ZM129.026 150.409C131.314 150.409 133.168 152.252 133.168 154.525C133.168 156.799 131.314 158.641 129.026 158.641C126.738 158.641 124.883 156.799 124.883 154.525C124.883 152.252 126.738 150.409 129.026 150.409Z" fill="#36190D"/>
</g>
<mask id="mask16_166_8263" style="mask-type:luminance" maskUnits="userSpaceOnUse" x="42" y="26" width="174" height="144">
<path d="M51.4058 26C46.2116 26 42 30.1839 42 35.3442V160.235C42 165.395 46.2116 169.579 51.4058 169.579H206.504C211.699 169.579 215.909 165.395 215.909 160.235V35.3442C215.909 30.1839 211.699 26 206.504 26H51.4058Z" fill="white"/>
</mask>
<g mask="url(#mask16_166_8263)">
<path d="M140.687 149.061C140.611 148.991 139.409 147.814 139.226 143.808C139.236 143.344 139.243 139.192 136.374 136.256C134.591 134.43 132.119 133.505 129.026 133.505C125.932 133.505 123.46 134.43 121.677 136.255C118.696 139.308 118.825 143.752 118.827 143.752C118.643 147.879 117.4 149.031 117.405 149.031L117.401 149.034C116.763 149.478 116.786 150.424 117.446 150.836L117.45 150.839C120.895 152.996 126.781 153.314 128.514 153.361L129.528 153.369L130.116 153.366V153.34C132.32 153.242 137.471 152.8 140.609 150.835L140.618 150.829C141.25 150.422 141.286 149.515 140.687 149.061Z" fill="#FFA72F"/>
</g>
<mask id="mask17_166_8263" style="mask-type:luminance" maskUnits="userSpaceOnUse" x="42" y="26" width="174" height="144">
<path d="M51.4058 26C46.2116 26 42 30.1839 42 35.3442V160.235C42 165.395 46.2116 169.579 51.4058 169.579H206.504C211.699 169.579 215.909 165.395 215.909 160.235V35.3442C215.909 30.1839 211.699 26 206.504 26H51.4058Z" fill="white"/>
</mask>
<g mask="url(#mask17_166_8263)">
<path d="M129.026 130.52C125.089 130.52 121.891 131.75 119.521 134.176C117.918 135.818 116.771 138 116.204 140.487C116.086 141.006 115.797 142.411 115.831 143.62H115.826C115.732 145.727 115.326 146.705 115.175 147.001C114.361 147.784 113.905 148.873 113.933 150.02C113.967 151.385 114.681 152.635 115.845 153.363C119.828 155.857 125.975 156.279 128.433 156.345C128.451 156.345 128.47 156.346 128.488 156.346L129.503 156.354C129.511 156.355 129.52 156.355 129.528 156.355C129.534 156.355 129.539 156.355 129.545 156.355L130.133 156.351C130.314 156.35 130.492 156.333 130.664 156.302C133.649 156.138 138.745 155.531 142.211 153.36C142.221 153.354 142.23 153.348 142.24 153.341C143.368 152.616 144.065 151.399 144.116 150.079C144.162 148.924 143.709 147.81 142.887 147.012C142.751 146.761 142.336 145.835 142.231 143.758C142.241 142.561 142.045 137.774 138.53 134.176C136.161 131.75 132.963 130.52 129.026 130.52ZM129.026 133.505C132.119 133.505 134.591 134.43 136.374 136.256C139.243 139.193 139.236 143.344 139.226 143.808C139.409 147.814 140.611 148.991 140.687 149.062C141.286 149.516 141.25 150.422 140.618 150.829L140.609 150.835C137.471 152.801 132.32 153.241 130.115 153.34V153.366L129.528 153.369L128.514 153.361C126.781 153.315 120.895 152.997 117.45 150.838L117.446 150.836C116.786 150.424 116.763 149.477 117.401 149.034L117.406 149.031C117.4 149.031 118.643 147.879 118.827 143.752C118.825 143.752 118.696 139.308 121.677 136.255C123.46 134.43 125.932 133.505 129.026 133.505Z" fill="#36190D"/>
</g>
<mask id="mask18_166_8263" style="mask-type:luminance" maskUnits="userSpaceOnUse" x="42" y="26" width="174" height="144">
<path d="M51.4058 26C46.2116 26 42 30.1839 42 35.3442V160.235C42 165.395 46.2116 169.579 51.4058 169.579H206.504C211.699 169.579 215.909 165.395 215.909 160.235V35.3442C215.909 30.1839 211.699 26 206.504 26H51.4058Z" fill="white"/>
</mask>
<g mask="url(#mask18_166_8263)">
<path d="M135.861 136.749C138.924 139.793 139.231 144.424 136.546 147.092C133.861 149.76 129.201 149.455 126.137 146.41C123.072 143.366 122.766 138.736 125.451 136.068C128.136 133.4 132.797 133.705 135.861 136.749Z" fill="#FFB455"/>
</g>
<mask id="mask19_166_8263" style="mask-type:luminance" maskUnits="userSpaceOnUse" x="42" y="26" width="174" height="144">
<path d="M51.4058 26C46.2116 26 42 30.1839 42 35.3442V160.235C42 165.395 46.2116 169.579 51.4058 169.579H206.504C211.699 169.579 215.909 165.395 215.909 160.235V35.3442C215.909 30.1839 211.699 26 206.504 26H51.4058Z" fill="white"/>
</mask>
<g mask="url(#mask19_166_8263)">
<path d="M161.743 125.141C161.419 124.116 160.78 122.817 160.78 122.817H129.026H97.272C97.272 122.817 96.6322 124.116 96.3082 125.141C96.3082 125.141 107.571 138.696 129.023 138.699C129.024 138.699 129.025 138.699 129.026 138.699H129.029C150.48 138.696 161.743 125.141 161.743 125.141Z" fill="#FF2530" stroke="#36190D" stroke-width="6.30667" stroke-miterlimit="10"/>
</g>
<mask id="mask20_166_8263" style="mask-type:luminance" maskUnits="userSpaceOnUse" x="42" y="26" width="174" height="144">
<path d="M51.4058 26C46.2116 26 42 30.1839 42 35.3442V160.235C42 165.395 46.2116 169.579 51.4058 169.579H206.504C211.699 169.579 215.909 165.395 215.909 160.235V35.3442C215.909 30.1839 211.699 26 206.504 26H51.4058Z" fill="white"/>
</mask>
<g mask="url(#mask20_166_8263)">
<path d="M93.4271 61.4673C93.4271 61.4673 81.7292 73.9416 63.6209 75.8709C59.3776 76.3232 55.7558 79.2161 54.4274 83.2461C54.4024 83.3234 54.3774 83.4007 54.353 83.4793C52.3612 89.9177 56.5275 96.5692 63.1461 98.0241C64.9885 98.4293 67.1291 98.6974 69.5355 98.6712C79.5257 98.5617 88.6231 92.9646 93.5421 84.3247C94.8535 82.0204 96.0324 79.3479 96.8656 76.3023L93.4271 61.4673Z" fill="white"/>
</g>
<mask id="mask21_166_8263" style="mask-type:luminance" maskUnits="userSpaceOnUse" x="42" y="26" width="174" height="144">
<path d="M51.4058 26C46.2116 26 42 30.1839 42 35.3442V160.235C42 165.395 46.2116 169.579 51.4058 169.579H206.504C211.699 169.579 215.909 165.395 215.909 160.235V35.3442C215.909 30.1839 211.699 26 206.504 26H51.4058Z" fill="white"/>
</mask>
<g mask="url(#mask21_166_8263)">
<path d="M95.0855 55.3198L91.2317 59.4298C91.0653 59.6045 79.97 71.1266 63.3003 72.9027C57.87 73.4813 53.2661 77.1766 51.5726 82.3174C51.5415 82.4115 51.5104 82.5076 51.4813 82.6037C50.2977 86.4267 50.7711 90.4527 52.8137 93.937C54.8968 97.4919 58.4266 100.044 62.4968 100.939C64.6665 101.416 66.9254 101.658 69.2101 101.658C69.3285 101.658 69.4482 101.657 69.5686 101.656C80.4671 101.537 90.6554 95.4584 96.1568 85.7944C97.7218 83.0452 98.9359 80.1153 99.765 77.0859L99.9625 76.3628L99.7934 75.6324L96.3549 60.7973L95.0855 55.3198ZM93.4271 61.4673L96.8656 76.3024C96.0323 79.3479 94.8535 82.0197 93.5421 84.3247C88.623 92.9646 79.5256 98.5617 69.5354 98.6706C69.4265 98.6719 69.3177 98.6726 69.2101 98.6726C66.9356 98.6726 64.9052 98.4112 63.1461 98.0241C56.5274 96.5692 52.3612 89.9171 54.353 83.4793C54.3774 83.4007 54.4024 83.3234 54.4281 83.2461C55.7557 79.2162 59.3775 76.3225 63.6209 75.8709C81.7291 73.9416 93.4271 61.4673 93.4271 61.4673Z" fill="#36190D"/>
</g>
<mask id="mask22_166_8263" style="mask-type:luminance" maskUnits="userSpaceOnUse" x="42" y="26" width="174" height="144">
<path d="M51.4058 26C46.2116 26 42 30.1839 42 35.3442V160.235C42 165.395 46.2116 169.579 51.4058 169.579H206.504C211.699 169.579 215.909 165.395 215.909 160.235V35.3442C215.909 30.1839 211.699 26 206.504 26H51.4058Z" fill="white"/>
</mask>
<g mask="url(#mask22_166_8263)">
<path d="M86.6196 86.4562C83.7993 91.2657 78.7991 94.4799 73.2301 95.0739C70.8183 95.3333 69.0706 95.039 67.8147 94.5504C65.4806 93.6439 64.1652 91.0359 64.9233 88.6577C64.9768 88.487 65.0417 88.3223 65.1134 88.1631C66.8489 84.2487 73.153 84.3313 73.153 84.3313C84.1192 83.9899 87.9648 77.3203 88.468 76.3486C88.5093 76.272 88.5275 76.231 88.5275 76.231C89.3804 80.1401 88.255 83.66 86.6196 86.4562Z" fill="#FFE3E3"/>
</g>
<mask id="mask23_166_8263" style="mask-type:luminance" maskUnits="userSpaceOnUse" x="42" y="26" width="174" height="144">
<path d="M51.4058 26C46.2116 26 42 30.1839 42 35.3442V160.235C42 165.395 46.2116 169.579 51.4058 169.579H206.504C211.699 169.579 215.909 165.395 215.909 160.235V35.3442C215.909 30.1839 211.699 26 206.504 26H51.4058Z" fill="white"/>
</mask>
<g mask="url(#mask23_166_8263)">
<path d="M88.4681 76.3487C88.1834 78.5153 87.3778 80.4869 86.3829 82.1945C83.568 87.0033 78.5618 90.2175 72.9989 90.8122C70.5878 91.0716 68.834 90.7766 67.578 90.288C66.5115 89.8761 65.6579 89.1053 65.1128 88.1632C66.849 84.2488 73.1531 84.3307 73.1531 84.3307C84.1192 83.9894 87.9642 77.3198 88.4681 76.3487Z" fill="#F5B8AF"/>
</g>
<mask id="mask24_166_8263" style="mask-type:luminance" maskUnits="userSpaceOnUse" x="42" y="26" width="174" height="144">
<path d="M51.4058 26C46.2116 26 42 30.1839 42 35.3442V160.235C42 165.395 46.2116 169.579 51.4058 169.579H206.504C211.699 169.579 215.909 165.395 215.909 160.235V35.3442C215.909 30.1839 211.699 26 206.504 26H51.4058Z" fill="white"/>
</mask>
<g mask="url(#mask24_166_8263)">
<path d="M164.624 61.4673C164.624 61.4673 176.323 73.9416 194.431 75.8709C198.674 76.3232 202.296 79.2161 203.624 83.2461C203.649 83.3234 203.674 83.4007 203.698 83.4793C205.69 89.9177 201.524 96.5692 194.905 98.0241C193.063 98.4293 190.922 98.6974 188.516 98.6712C178.526 98.5617 169.428 92.9646 164.509 84.3247C163.198 82.0204 162.019 79.3479 161.186 76.3023L164.624 61.4673Z" fill="#995036"/>
</g>
<mask id="mask25_166_8263" style="mask-type:luminance" maskUnits="userSpaceOnUse" x="42" y="26" width="174" height="144">
<path d="M51.4058 26C46.2116 26 42 30.1839 42 35.3442V160.235C42 165.395 46.2116 169.579 51.4058 169.579H206.504C211.699 169.579 215.909 165.395 215.909 160.235V35.3442C215.909 30.1839 211.699 26 206.504 26H51.4058Z" fill="white"/>
</mask>
<g mask="url(#mask25_166_8263)">
<path d="M162.964 55.3476L161.697 60.7976L158.258 75.6326L158.089 76.3631L158.287 77.0862C159.116 80.1149 160.329 83.0448 161.894 85.7939C167.396 95.4586 177.584 101.537 188.483 101.656C188.604 101.657 188.723 101.658 188.842 101.658C191.126 101.658 193.385 101.416 195.554 100.939C199.625 100.044 203.155 97.4921 205.238 93.9372C207.281 90.4529 207.753 86.427 206.57 82.6019C206.541 82.5072 206.51 82.4118 206.479 82.317C204.786 77.1769 200.182 73.4809 194.751 72.903C178.039 71.1222 166.929 59.5449 166.819 59.4287L162.964 55.3476ZM164.624 61.4675C164.624 61.4675 176.323 73.9419 194.431 75.8705C198.674 76.3228 202.296 79.2164 203.624 83.2457C203.649 83.323 203.674 83.4009 203.698 83.4796C205.691 89.9173 201.524 96.5688 194.905 98.0243C193.147 98.4114 191.116 98.6728 188.842 98.6728C188.733 98.6728 188.625 98.6721 188.516 98.6708C178.526 98.5613 169.428 92.9648 164.51 84.3243C163.198 82.02 162.019 79.3474 161.186 76.3026L164.624 61.4675Z" fill="#36190D"/>
</g>
<mask id="mask26_166_8263" style="mask-type:luminance" maskUnits="userSpaceOnUse" x="42" y="26" width="174" height="144">
<path d="M51.4058 26C46.2116 26 42 30.1839 42 35.3442V160.235C42 165.395 46.2116 169.579 51.4058 169.579H206.504C211.699 169.579 215.909 165.395 215.909 160.235V35.3442C215.909 30.1839 211.699 26 206.504 26H51.4058Z" fill="white"/>
</mask>
<g mask="url(#mask26_166_8263)">
<path d="M171.432 86.4562C174.252 91.2657 179.252 94.4799 184.821 95.0739C187.233 95.3333 188.981 95.039 190.237 94.5504C192.571 93.6439 193.886 91.0359 193.128 88.6577C193.075 88.487 193.01 88.3223 192.938 88.1631C191.203 84.2487 184.899 84.3313 184.899 84.3313C173.932 83.9899 170.087 77.3203 169.584 76.3486C169.542 76.272 169.524 76.231 169.524 76.231C168.671 80.1401 169.797 83.66 171.432 86.4562Z" fill="#FFE3E3"/>
</g>
<mask id="mask27_166_8263" style="mask-type:luminance" maskUnits="userSpaceOnUse" x="42" y="26" width="174" height="144">
<path d="M51.4058 26C46.2116 26 42 30.1839 42 35.3442V160.235C42 165.395 46.2116 169.579 51.4058 169.579H206.504C211.699 169.579 215.909 165.395 215.909 160.235V35.3442C215.909 30.1839 211.699 26 206.504 26H51.4058Z" fill="white"/>
</mask>
<g mask="url(#mask27_166_8263)">
<path d="M169.583 76.3487C169.868 78.5153 170.674 80.4869 171.669 82.1945C174.484 87.0033 179.49 90.2175 185.053 90.8122C187.464 91.0716 189.218 90.7766 190.474 90.288C191.54 89.8761 192.394 89.1053 192.939 88.1632C191.203 84.2488 184.898 84.3307 184.898 84.3307C173.932 83.9894 170.087 77.3198 169.583 76.3487Z" fill="#F5B8AF"/>
</g>
<mask id="mask28_166_8263" style="mask-type:luminance" maskUnits="userSpaceOnUse" x="42" y="26" width="174" height="144">
<path d="M51.4058 26C46.2116 26 42 30.1839 42 35.3442V160.235C42 165.395 46.2116 169.579 51.4058 169.579H206.504C211.699 169.579 215.909 165.395 215.909 160.235V35.3442C215.909 30.1839 211.699 26 206.504 26H51.4058Z" fill="white"/>
</mask>
<g mask="url(#mask28_166_8263)">
<path d="M129.026 46.5838C97.2047 46.5838 83.7862 71.1844 78.2869 88.4554C74.6117 99.997 79.1228 112.5 89.5702 119.346C90.2242 119.775 90.8837 120.19 91.5472 120.593C114.318 134.411 143.733 134.411 166.504 120.593C167.168 120.19 167.827 119.775 168.481 119.346C178.929 112.5 183.44 99.997 179.765 88.4554C174.265 71.1844 160.847 46.5838 129.026 46.5838Z" fill="white"/>
</g>
<mask id="mask29_166_8263" style="mask-type:luminance" maskUnits="userSpaceOnUse" x="42" y="26" width="174" height="144">
<path d="M51.4058 26C46.2116 26 42 30.1839 42 35.3442V160.235C42 165.395 46.2116 169.579 51.4058 169.579H206.504C211.699 169.579 215.909 165.395 215.909 160.235V35.3442C215.909 30.1839 211.699 26 206.504 26H51.4058Z" fill="white"/>
</mask>
<g mask="url(#mask29_166_8263)">
<path d="M129.026 43.5986C114.052 43.5986 101.466 48.7723 91.6175 58.9766C84.591 66.2557 79.1424 75.8707 75.4219 87.5548C71.3098 100.469 76.3309 114.247 87.9159 121.838C88.5882 122.278 89.2828 122.716 89.9814 123.141C101.626 130.207 115.127 133.942 129.026 133.942C142.924 133.942 156.426 130.207 168.07 123.141C168.769 122.716 169.464 122.278 170.136 121.838C181.721 114.247 186.742 100.469 182.63 87.5548C178.909 75.8707 173.46 66.2557 166.434 58.9766C156.585 48.7723 143.999 43.5986 129.026 43.5986ZM129.026 46.5836C160.847 46.5836 174.265 71.1842 179.765 88.4553C183.44 99.9969 178.929 112.5 168.481 119.346C167.827 119.774 167.168 120.19 166.504 120.593C155.119 127.502 142.072 130.957 129.026 130.957C115.979 130.957 102.933 127.502 91.5472 120.593C90.8837 120.19 90.2242 119.774 89.5702 119.346C79.1228 112.5 74.6117 99.9969 78.2869 88.4553C83.7862 71.1842 97.2047 46.5836 129.026 46.5836Z" fill="#36190D"/>
</g>
<mask id="mask30_166_8263" style="mask-type:luminance" maskUnits="userSpaceOnUse" x="42" y="26" width="174" height="144">
<path d="M51.4058 26C46.2116 26 42 30.1839 42 35.3442V160.235C42 165.395 46.2116 169.579 51.4058 169.579H206.504C211.699 169.579 215.909 165.395 215.909 160.235V35.3442C215.909 30.1839 211.699 26 206.504 26H51.4058Z" fill="white"/>
</mask>
<g mask="url(#mask30_166_8263)">
<path d="M146.893 125.823H144.046H129.026H114.006H111.158L110.959 128.645C110.684 132.531 112.684 140.725 122.216 143.928C124.409 144.666 126.7 145.039 129.026 145.039C131.351 145.039 133.643 144.666 135.835 143.928C145.368 140.725 147.367 132.531 147.093 128.645L146.893 125.823ZM144.046 128.858C144.046 128.858 144.674 137.754 134.857 141.054C132.971 141.688 130.998 142.005 129.026 142.005C127.053 142.005 125.081 141.688 123.195 141.054C113.377 137.754 114.006 128.858 114.006 128.858H129.026H144.046Z" fill="#36190D"/>
</g>
<mask id="mask31_166_8263" style="mask-type:luminance" maskUnits="userSpaceOnUse" x="42" y="26" width="174" height="144">
<path d="M51.4058 26C46.2116 26 42 30.1839 42 35.3442V160.235C42 165.395 46.2116 169.579 51.4058 169.579H206.504C211.699 169.579 215.909 165.395 215.909 160.235V35.3442C215.909 30.1839 211.699 26 206.504 26H51.4058Z" fill="white"/>
</mask>
<g mask="url(#mask31_166_8263)">
<path d="M180.718 92.5077C176.677 93.5439 172.34 94.103 167.838 94.103C145.673 94.103 127.704 80.5696 127.704 63.8812C127.704 57.5644 130.275 51.7012 134.677 46.8567C162.464 49.5763 174.604 72.2456 179.764 88.4576C180.19 89.7942 180.505 91.1476 180.718 92.5077Z" fill="#995036"/>
</g>
<mask id="mask32_166_8263" style="mask-type:luminance" maskUnits="userSpaceOnUse" x="42" y="26" width="174" height="144">
<path d="M51.4058 26C46.2116 26 42 30.1839 42 35.3442V160.235C42 165.395 46.2116 169.579 51.4058 169.579H206.504C211.699 169.579 215.909 165.395 215.909 160.235V35.3442C215.909 30.1839 211.699 26 206.504 26H51.4058Z" fill="white"/>
</mask>
<g mask="url(#mask32_166_8263)">
<path d="M78.3016 42.0202C78.2062 42.7265 78.3023 43.4697 78.6215 44.1598L80.5051 48.2187L80.5044 48.2248L87.9563 64.3077C87.9563 64.3077 98.1792 62.8475 101.796 52.6929L99.9336 51.2622L84.5794 39.4558C83.2964 38.4646 81.5277 38.3712 80.1412 39.2072C79.099 39.8402 78.4551 40.8885 78.3016 42.0202Z" fill="#C8BAB6"/>
</g>
<mask id="mask33_166_8263" style="mask-type:luminance" maskUnits="userSpaceOnUse" x="42" y="26" width="174" height="144">
<path d="M51.4058 26C46.2116 26 42 30.1839 42 35.3442V160.235C42 165.395 46.2116 169.579 51.4058 169.579H206.504C211.699 169.579 215.909 165.395 215.909 160.235V35.3442C215.909 30.1839 211.699 26 206.504 26H51.4058Z" fill="white"/>
</mask>
<g mask="url(#mask33_166_8263)">
<path d="M82.1808 35.6551C80.9114 35.6551 79.6676 36.0012 78.582 36.6551C76.7891 37.7444 75.6041 39.5527 75.3241 41.6225C75.149 42.9154 75.3451 44.2238 75.8916 45.4058L77.4593 48.7853L77.7752 49.4728L85.2271 65.5564L86.1652 67.5798L88.3842 67.2626C88.8752 67.1928 100.453 65.4106 104.629 53.6889L105.354 51.6528L103.634 50.3316L101.772 48.9002L86.4181 37.0952C85.2183 36.1679 83.7114 35.6551 82.1808 35.6551ZM82.1808 38.6402C83.031 38.6402 83.8778 38.9143 84.5791 39.456L99.934 51.2623L101.797 52.693C98.1796 62.8476 87.9568 64.3079 87.9568 64.3079L80.5042 48.2249L80.5049 48.2188L78.622 44.16C78.3027 43.4698 78.206 42.7259 78.3014 42.0203C78.4549 40.8887 79.0988 39.8403 80.141 39.2073C80.7693 38.8283 81.4761 38.6402 82.1808 38.6402Z" fill="#36190D"/>
</g>
<mask id="mask34_166_8263" style="mask-type:luminance" maskUnits="userSpaceOnUse" x="42" y="26" width="174" height="144">
<path d="M51.4058 26C46.2116 26 42 30.1839 42 35.3442V160.235C42 165.395 46.2116 169.579 51.4058 169.579H206.504C211.699 169.579 215.909 165.395 215.909 160.235V35.3442C215.909 30.1839 211.699 26 206.504 26H51.4058Z" fill="white"/>
</mask>
<g mask="url(#mask34_166_8263)">
<path d="M80.5042 48.2247L87.9567 64.3083C87.9567 64.3083 98.1796 62.8474 101.797 52.6935L99.934 51.2621C86.6771 57.6865 80.5042 48.2247 80.5042 48.2247Z" fill="#C0ACA4"/>
</g>
<mask id="mask35_166_8263" style="mask-type:luminance" maskUnits="userSpaceOnUse" x="42" y="26" width="174" height="144">
<path d="M51.4058 26C46.2116 26 42 30.1839 42 35.3442V160.235C42 165.395 46.2116 169.579 51.4058 169.579H206.504C211.699 169.579 215.909 165.395 215.909 160.235V35.3442C215.909 30.1839 211.699 26 206.504 26H51.4058Z" fill="white"/>
</mask>
<g mask="url(#mask35_166_8263)">
<g opacity="0.300003">
<mask id="mask36_166_8263" style="mask-type:luminance" maskUnits="userSpaceOnUse" x="78" y="38" width="24" height="27">
<path d="M101.798 52.6919L84.5809 39.4542C83.2952 38.4657 81.5286 38.3689 80.1414 39.2102C78.4452 40.2391 77.7925 42.3673 78.6237 44.1609L87.9579 64.3108C87.9579 64.3108 98.1807 62.8499 101.798 52.6919Z" fill="white"/>
</mask>
<g mask="url(#mask36_166_8263)">
<path d="M98.505 45.2638C98.505 45.2638 92.351 58.0023 79.3031 58.9263" stroke="#B7A19A" stroke-width="3.504" stroke-miterlimit="10"/>
</g>
<mask id="mask37_166_8263" style="mask-type:luminance" maskUnits="userSpaceOnUse" x="78" y="38" width="24" height="27">
<path d="M101.798 52.6919L84.5809 39.4542C83.2952 38.4657 81.5286 38.3689 80.1414 39.2102C78.4452 40.2391 77.7925 42.3673 78.6237 44.1609L87.9579 64.3108C87.9579 64.3108 98.1807 62.8499 101.798 52.6919Z" fill="white"/>
</mask>
<g mask="url(#mask37_166_8263)">
<path d="M93.3396 39.1581C93.3396 39.1581 87.1856 51.8966 74.1377 52.8206" stroke="#B7A19A" stroke-width="3.504" stroke-miterlimit="10"/>
</g>
</g>
</g>
<mask id="mask38_166_8263" style="mask-type:luminance" maskUnits="userSpaceOnUse" x="42" y="26" width="174" height="144">
<path d="M51.4058 26C46.2116 26 42 30.1839 42 35.3442V160.235C42 165.395 46.2116 169.579 51.4058 169.579H206.504C211.699 169.579 215.909 165.395 215.909 160.235V35.3442C215.909 30.1839 211.699 26 206.504 26H51.4058Z" fill="white"/>
</mask>
<g mask="url(#mask38_166_8263)">
<path d="M179.75 42.0202C179.845 42.7265 179.749 43.4697 179.43 44.1598L177.546 48.2187L177.547 48.2248L170.095 64.3077C170.095 64.3077 159.872 62.8475 156.255 52.6929L158.118 51.2622L173.472 39.4558C174.755 38.4646 176.524 38.3712 177.91 39.2072C178.952 39.8402 179.596 40.8885 179.75 42.0202Z" fill="#C8BAB6"/>
</g>
<mask id="mask39_166_8263" style="mask-type:luminance" maskUnits="userSpaceOnUse" x="42" y="26" width="174" height="144">
<path d="M51.4058 26C46.2116 26 42 30.1839 42 35.3442V160.235C42 165.395 46.2116 169.579 51.4058 169.579H206.504C211.699 169.579 215.909 165.395 215.909 160.235V35.3442C215.909 30.1839 211.699 26 206.504 26H51.4058Z" fill="white"/>
</mask>
<g mask="url(#mask39_166_8263)">
<path d="M175.871 35.6551C174.34 35.6551 172.833 36.1679 171.628 37.0999L156.279 48.9009L154.417 50.3316L152.698 51.6528L153.423 53.6889C157.598 65.4106 169.177 67.1928 169.668 67.2626L171.887 67.5798L172.824 65.5564L180.277 49.4728L180.636 48.6987L180.635 48.6933L182.158 45.4092C182.707 44.2238 182.903 42.9154 182.728 41.6218C182.448 39.5527 181.263 37.7444 179.477 36.6598C178.384 36.0012 177.14 35.6551 175.871 35.6551ZM175.871 38.6402C176.575 38.6402 177.282 38.8283 177.91 39.2073C178.952 39.8403 179.597 40.8887 179.75 42.0203C179.846 42.7259 179.749 43.4698 179.43 44.16L177.547 48.2188L177.548 48.2249L170.095 64.3079C170.095 64.3079 159.872 62.8476 156.255 52.693L158.118 51.2623L173.473 39.456C174.174 38.9143 175.021 38.6402 175.871 38.6402Z" fill="#36190D"/>
</g>
<mask id="mask40_166_8263" style="mask-type:luminance" maskUnits="userSpaceOnUse" x="42" y="26" width="174" height="144">
<path d="M51.4058 26C46.2116 26 42 30.1839 42 35.3442V160.235C42 165.395 46.2116 169.579 51.4058 169.579H206.504C211.699 169.579 215.909 165.395 215.909 160.235V35.3442C215.909 30.1839 211.699 26 206.504 26H51.4058Z" fill="white"/>
</mask>
<g mask="url(#mask40_166_8263)">
<path d="M177.547 48.2247L170.095 64.3083C170.095 64.3083 159.872 62.8474 156.255 52.6935L158.118 51.2621C171.374 57.6865 177.547 48.2247 177.547 48.2247Z" fill="#C0ACA4"/>
</g>
<mask id="mask41_166_8263" style="mask-type:luminance" maskUnits="userSpaceOnUse" x="42" y="26" width="174" height="144">
<path d="M51.4058 26C46.2116 26 42 30.1839 42 35.3442V160.235C42 165.395 46.2116 169.579 51.4058 169.579H206.504C211.699 169.579 215.909 165.395 215.909 160.235V35.3442C215.909 30.1839 211.699 26 206.504 26H51.4058Z" fill="white"/>
</mask>
<g mask="url(#mask41_166_8263)">
<g opacity="0.300003">
<mask id="mask42_166_8263" style="mask-type:luminance" maskUnits="userSpaceOnUse" x="156" y="38" width="24" height="27">
<path d="M156.254 52.6919L173.471 39.4542C174.756 38.4657 176.523 38.3689 177.91 39.2102C179.606 40.2391 180.259 42.3673 179.428 44.1609L170.094 64.3108C170.094 64.3108 159.871 62.8499 156.254 52.6919Z" fill="white"/>
</mask>
<g mask="url(#mask42_166_8263)">
<path d="M159.547 45.2638C159.547 45.2638 165.701 58.0023 178.748 58.9263" stroke="#B7A19A" stroke-width="3.504" stroke-miterlimit="10"/>
</g>
<mask id="mask43_166_8263" style="mask-type:luminance" maskUnits="userSpaceOnUse" x="156" y="38" width="24" height="27">
<path d="M156.254 52.6919L173.471 39.4542C174.756 38.4657 176.523 38.3689 177.91 39.2102C179.606 40.2391 180.259 42.3673 179.428 44.1609L170.094 64.3108C170.094 64.3108 159.871 62.8499 156.254 52.6919Z" fill="white"/>
</mask>
<g mask="url(#mask43_166_8263)">
<path d="M164.712 39.1581C164.712 39.1581 170.866 51.8966 183.914 52.8206" stroke="#B7A19A" stroke-width="3.504" stroke-miterlimit="10"/>
</g>
</g>
</g>
<mask id="mask44_166_8263" style="mask-type:luminance" maskUnits="userSpaceOnUse" x="42" y="26" width="174" height="144">
<path d="M51.4058 26C46.2116 26 42 30.1839 42 35.3442V160.235C42 165.395 46.2116 169.579 51.4058 169.579H206.504C211.699 169.579 215.909 165.395 215.909 160.235V35.3442C215.909 30.1839 211.699 26 206.504 26H51.4058Z" fill="white"/>
</mask>
<g mask="url(#mask44_166_8263)">
<path d="M116.431 76.3487C116.431 81.7086 112.725 86.0531 108.154 86.0531C103.582 86.0531 99.8759 81.7086 99.8759 76.3487C99.8759 70.9889 103.582 66.6444 108.154 66.6444C112.725 66.6444 116.431 70.9889 116.431 76.3487Z" fill="#36190D"/>
</g>
<mask id="mask45_166_8263" style="mask-type:luminance" maskUnits="userSpaceOnUse" x="42" y="26" width="174" height="144">
<path d="M51.4058 26C46.2116 26 42 30.1839 42 35.3442V160.235C42 165.395 46.2116 169.579 51.4058 169.579H206.504C211.699 169.579 215.909 165.395 215.909 160.235V35.3442C215.909 30.1839 211.699 26 206.504 26H51.4058Z" fill="white"/>
</mask>
<g mask="url(#mask45_166_8263)">
<path d="M114.091 72.6876C114.091 74.7096 112.441 76.3486 110.406 76.3486C108.371 76.3486 106.722 74.7096 106.722 72.6876C106.722 70.6655 108.371 69.0265 110.406 69.0265C112.441 69.0265 114.091 70.6655 114.091 72.6876Z" fill="white"/>
</g>
<mask id="mask46_166_8263" style="mask-type:luminance" maskUnits="userSpaceOnUse" x="42" y="26" width="174" height="144">
<path d="M51.4058 26C46.2116 26 42 30.1839 42 35.3442V160.235C42 165.395 46.2116 169.579 51.4058 169.579H206.504C211.699 169.579 215.909 165.395 215.909 160.235V35.3442C215.909 30.1839 211.699 26 206.504 26H51.4058Z" fill="white"/>
</mask>
<g mask="url(#mask46_166_8263)">
<path d="M141.621 76.3487C141.621 81.7086 145.327 86.0531 149.898 86.0531C154.469 86.0531 158.176 81.7086 158.176 76.3487C158.176 70.9889 154.469 66.6444 149.898 66.6444C145.327 66.6444 141.621 70.9889 141.621 76.3487Z" fill="#36190D"/>
</g>
<mask id="mask47_166_8263" style="mask-type:luminance" maskUnits="userSpaceOnUse" x="42" y="26" width="174" height="144">
<path d="M51.4058 26C46.2116 26 42 30.1839 42 35.3442V160.235C42 165.395 46.2116 169.579 51.4058 169.579H206.504C211.699 169.579 215.909 165.395 215.909 160.235V35.3442C215.909 30.1839 211.699 26 206.504 26H51.4058Z" fill="white"/>
</mask>
<g mask="url(#mask47_166_8263)">
<path d="M143.961 72.6876C143.961 74.7096 145.61 76.3486 147.645 76.3486C149.68 76.3486 151.33 74.7096 151.33 72.6876C151.33 70.6655 149.68 69.0265 147.645 69.0265C145.61 69.0265 143.961 70.6655 143.961 72.6876Z" fill="white"/>
</g>
<mask id="mask48_166_8263" style="mask-type:luminance" maskUnits="userSpaceOnUse" x="42" y="26" width="174" height="144">
<path d="M51.4058 26C46.2116 26 42 30.1839 42 35.3442V160.235C42 165.395 46.2116 169.579 51.4058 169.579H206.504C211.699 169.579 215.909 165.395 215.909 160.235V35.3442C215.909 30.1839 211.699 26 206.504 26H51.4058Z" fill="white"/>
</mask>
<g mask="url(#mask48_166_8263)">
<path d="M144.046 128.857H129.026H114.006C114.006 128.857 113.377 137.755 123.195 141.054C126.966 142.322 131.085 142.322 134.856 141.054C144.674 137.755 144.046 128.857 144.046 128.857Z" fill="#FFCCC2"/>
</g>
<mask id="mask49_166_8263" style="mask-type:luminance" maskUnits="userSpaceOnUse" x="42" y="26" width="174" height="144">
<path d="M51.4058 26C46.2116 26 42 30.1839 42 35.3442V160.235C42 165.395 46.2116 169.579 51.4058 169.579H206.504C211.699 169.579 215.909 165.395 215.909 160.235V35.3442C215.909 30.1839 211.699 26 206.504 26H51.4058Z" fill="white"/>
</mask>
<g mask="url(#mask49_166_8263)">
<path d="M136.312 135.233C136.067 135.449 135.793 135.651 135.499 135.853C134.798 136.326 133.958 136.75 132.956 137.085C130.413 137.941 127.638 137.941 125.095 137.085C124.093 136.75 123.252 136.326 122.551 135.853C122.257 135.651 121.984 135.449 121.739 135.233C118.628 132.567 118.894 128.856 118.894 128.856H139.157C139.157 128.856 139.423 132.567 136.312 135.233Z" fill="#36190D"/>
</g>
<mask id="mask50_166_8263" style="mask-type:luminance" maskUnits="userSpaceOnUse" x="42" y="26" width="174" height="144">
<path d="M51.4058 26C46.2116 26 42 30.1839 42 35.3442V160.235C42 165.395 46.2116 169.579 51.4058 169.579H206.504C211.699 169.579 215.909 165.395 215.909 160.235V35.3442C215.909 30.1839 211.699 26 206.504 26H51.4058Z" fill="white"/>
</mask>
<g mask="url(#mask50_166_8263)">
<path d="M144.998 88.9424C136.056 90.2084 129.026 95.8976 129.026 95.8976C129.026 95.8976 121.996 90.2084 113.053 88.9424C101.061 87.2449 90.7091 97.0225 91.4571 109.036C92.0996 119.358 99.0131 132 129.026 132C159.039 132 165.952 119.358 166.595 109.036C167.343 97.0225 156.991 87.2449 144.998 88.9424Z" fill="#FFCCC2"/>
</g>
<mask id="mask51_166_8263" style="mask-type:luminance" maskUnits="userSpaceOnUse" x="42" y="26" width="174" height="144">
<path d="M51.4058 26C46.2116 26 42 30.1839 42 35.3442V160.235C42 165.395 46.2116 169.579 51.4058 169.579H206.504C211.699 169.579 215.909 165.395 215.909 160.235V35.3442C215.909 30.1839 211.699 26 206.504 26H51.4058Z" fill="white"/>
</mask>
<g mask="url(#mask51_166_8263)">
<path d="M120.677 96.503C121.805 101.136 117.114 106.24 110.197 107.903C103.281 109.567 96.7593 107.161 95.6298 102.528C94.5017 97.8954 99.1928 92.7909 106.11 91.127C113.026 89.4638 119.548 91.8702 120.677 96.503Z" fill="#FFD4CC"/>
</g>
<mask id="mask52_166_8263" style="mask-type:luminance" maskUnits="userSpaceOnUse" x="42" y="26" width="174" height="144">
<path d="M51.4058 26C46.2116 26 42 30.1839 42 35.3442V160.235C42 165.395 46.2116 169.579 51.4058 169.579H206.504C211.699 169.579 215.909 165.395 215.909 160.235V35.3442C215.909 30.1839 211.699 26 206.504 26H51.4058Z" fill="white"/>
</mask>
<g mask="url(#mask52_166_8263)">
<path d="M137.375 96.503C136.246 101.136 140.938 106.24 147.854 107.903C154.77 109.567 161.292 107.161 162.422 102.528C163.551 97.8954 158.859 92.7909 151.942 91.127C145.026 89.4638 138.504 91.8702 137.375 96.503Z" fill="#FFD4CC"/>
</g>
<mask id="mask53_166_8263" style="mask-type:luminance" maskUnits="userSpaceOnUse" x="42" y="26" width="174" height="144">
<path d="M51.4058 26C46.2116 26 42 30.1839 42 35.3442V160.235C42 165.395 46.2116 169.579 51.4058 169.579H206.504C211.699 169.579 215.909 165.395 215.909 160.235V35.3442C215.909 30.1839 211.699 26 206.504 26H51.4058Z" fill="white"/>
</mask>
<g mask="url(#mask53_166_8263)">
<path d="M116.726 100.402C116.726 100.766 116.69 101.125 116.631 101.467C116.187 103.845 114.296 105.635 112.033 105.635C109.77 105.635 107.88 103.845 107.435 101.467C107.377 101.125 107.341 100.766 107.341 100.402C107.341 97.5113 109.444 95.1681 112.033 95.1681C114.622 95.1681 116.726 97.5113 116.726 100.402Z" fill="#582B1C"/>
</g>
<mask id="mask54_166_8263" style="mask-type:luminance" maskUnits="userSpaceOnUse" x="42" y="26" width="174" height="144">
<path d="M51.4058 26C46.2116 26 42 30.1839 42 35.3442V160.235C42 165.395 46.2116 169.579 51.4058 169.579H206.504C211.699 169.579 215.909 165.395 215.909 160.235V35.3442C215.909 30.1839 211.699 26 206.504 26H51.4058Z" fill="white"/>
</mask>
<g mask="url(#mask54_166_8263)">
<path d="M116.631 101.467C116.186 103.845 114.297 105.635 112.033 105.635C109.77 105.635 107.88 103.845 107.436 101.467C107.88 99.0889 109.77 97.2994 112.033 97.2994C114.297 97.2994 116.186 99.0889 116.631 101.467Z" fill="#36190D"/>
</g>
<mask id="mask55_166_8263" style="mask-type:luminance" maskUnits="userSpaceOnUse" x="42" y="26" width="174" height="144">
<path d="M51.4058 26C46.2116 26 42 30.1839 42 35.3442V160.235C42 165.395 46.2116 169.579 51.4058 169.579H206.504C211.699 169.579 215.909 165.395 215.909 160.235V35.3442C215.909 30.1839 211.699 26 206.504 26H51.4058Z" fill="white"/>
</mask>
<g mask="url(#mask55_166_8263)">
<path d="M141.326 100.402C141.326 100.766 141.362 101.125 141.421 101.467C141.865 103.845 143.755 105.635 146.018 105.635C148.281 105.635 150.172 103.845 150.616 101.467C150.675 101.125 150.711 100.766 150.711 100.402C150.711 97.5113 148.607 95.1681 146.018 95.1681C143.429 95.1681 141.326 97.5113 141.326 100.402Z" fill="#582B1C"/>
</g>
<mask id="mask56_166_8263" style="mask-type:luminance" maskUnits="userSpaceOnUse" x="42" y="26" width="174" height="144">
<path d="M51.4058 26C46.2116 26 42 30.1839 42 35.3442V160.235C42 165.395 46.2116 169.579 51.4058 169.579H206.504C211.699 169.579 215.909 165.395 215.909 160.235V35.3442C215.909 30.1839 211.699 26 206.504 26H51.4058Z" fill="white"/>
</mask>
<g mask="url(#mask56_166_8263)">
<path d="M141.421 101.467C141.865 103.845 143.755 105.635 146.018 105.635C148.282 105.635 150.171 103.845 150.616 101.467C150.171 99.0889 148.282 97.2994 146.018 97.2994C143.755 97.2994 141.865 99.0889 141.421 101.467Z" fill="#36190D"/>
</g>
<mask id="mask57_166_8263" style="mask-type:luminance" maskUnits="userSpaceOnUse" x="42" y="26" width="174" height="144">
<path d="M51.4058 26C46.2116 26 42 30.1839 42 35.3442V160.235C42 165.395 46.2116 169.579 51.4058 169.579H206.504C211.699 169.579 215.909 165.395 215.909 160.235V35.3442C215.909 30.1839 211.699 26 206.504 26H51.4058Z" fill="white"/>
</mask>
<g mask="url(#mask57_166_8263)">
<path d="M135.499 135.853C134.799 136.326 133.958 136.75 132.956 137.084C130.413 137.941 127.638 137.941 125.095 137.084C124.093 136.75 123.252 136.326 122.552 135.853C123.89 134.516 126.293 133.639 129.026 133.639C131.758 133.639 134.161 134.516 135.499 135.853Z" fill="#FF2530"/>
</g>
<mask id="mask58_166_8263" style="mask-type:luminance" maskUnits="userSpaceOnUse" x="42" y="26" width="174" height="144">
<path d="M51.4058 26C46.2116 26 42 30.1839 42 35.3442V160.235C42 165.395 46.2116 169.579 51.4058 169.579H206.504C211.699 169.579 215.909 165.395 215.909 160.235V35.3442C215.909 30.1839 211.699 26 206.504 26H51.4058Z" fill="white"/>
</mask>
<g mask="url(#mask58_166_8263)">
<path d="M171.152 84.6746C171.152 87.2175 168.247 89.2792 164.664 89.2792C161.081 89.2792 158.176 87.2175 158.176 84.6746C158.176 82.1318 161.081 80.0701 164.664 80.0701C168.247 80.0701 171.152 82.1318 171.152 84.6746Z" fill="#FFB1B1"/>
</g>
<mask id="mask59_166_8263" style="mask-type:luminance" maskUnits="userSpaceOnUse" x="42" y="26" width="174" height="144">
<path d="M51.4058 26C46.2116 26 42 30.1839 42 35.3442V160.235C42 165.395 46.2116 169.579 51.4058 169.579H206.504C211.699 169.579 215.909 165.395 215.909 160.235V35.3442C215.909 30.1839 211.699 26 206.504 26H51.4058Z" fill="white"/>
</mask>
<g mask="url(#mask59_166_8263)">
<path d="M86.8995 84.6746C86.8995 87.2175 89.8044 89.2792 93.3876 89.2792C96.9709 89.2792 99.8757 87.2175 99.8757 84.6746C99.8757 82.1318 96.9709 80.0701 93.3876 80.0701C89.8044 80.0701 86.8995 82.1318 86.8995 84.6746Z" fill="#FFB1B1"/>
</g>
<path d="M165.833 146.023C165.833 146.023 164.61 140.095 162.2 133.549C162.2 133.549 166.282 138.055 168.938 146.283L165.833 146.023Z" fill="#36190D"/>
</svg>
