<svg width="47" height="37" viewBox="0 0 47 37" fill="none" xmlns="http://www.w3.org/2000/svg">
<ellipse cx="23.8615" cy="18.5" rx="18.0769" ry="18.5" fill="#CEFCFF"/>
<mask id="mask0_5_1123" style="mask-type:luminance" maskUnits="userSpaceOnUse" x="0" y="0" width="47" height="37">
<path d="M2.54198 -2.8022e-07C1.1382 -2.8022e-07 0 1.07818 0 2.40797V34.592C0 35.9218 1.1382 37 2.54198 37H44.458C45.862 37 47 35.9218 47 34.592V2.40797C47 1.07818 45.862 -2.8022e-07 44.458 -2.8022e-07H2.54198Z" fill="white"/>
</mask>
<g mask="url(#mask0_5_1123)">
<path d="M34.3369 37.1957C34.1217 37.1732 33.9066 37.1346 33.6929 37.0783C33.1844 36.9446 32.8525 36.7966 32.8386 36.7903L33.1621 36.1427C33.1649 36.1441 33.4538 36.2719 33.8953 36.3879C35.7127 36.8655 37.6807 35.8164 38.194 34.0966C38.2742 33.8275 38.3141 33.5498 38.3561 33.2557C38.4212 32.8013 38.4886 32.3311 38.7153 31.874C39.0783 31.1421 39.6617 30.6133 40.358 30.3848L40.6055 31.062C40.1035 31.2265 39.6753 31.623 39.3998 32.1786C39.2223 32.5365 39.1657 32.9326 39.1055 33.3522C39.0618 33.6576 39.0167 33.9739 38.9218 34.2915C38.3576 36.1813 36.349 37.4055 34.3369 37.1957Z" fill="white"/>
</g>
<mask id="mask1_5_1123" style="mask-type:luminance" maskUnits="userSpaceOnUse" x="0" y="0" width="47" height="37">
<path d="M2.54198 -2.8022e-07C1.1382 -2.8022e-07 0 1.07818 0 2.40797V34.592C0 35.9218 1.1382 37 2.54198 37H44.458C45.862 37 47 35.9218 47 34.592V2.40797C47 1.07818 45.862 -2.8022e-07 44.458 -2.8022e-07H2.54198Z" fill="white"/>
</mask>
<g mask="url(#mask1_5_1123)">
<path d="M40.8596 29.4061L40.0922 29.6579C39.1873 29.9547 38.4373 30.6256 37.9805 31.5467C37.7007 32.1109 37.6214 32.664 37.5516 33.1522C37.5119 33.43 37.4775 33.6697 37.4126 33.8873C37.0933 34.9574 35.992 35.7342 34.7943 35.7342C34.5628 35.7342 34.3335 35.7048 34.1123 35.6466C33.7487 35.551 33.5069 35.4462 33.5045 35.4452L32.7688 35.1115L32.4281 35.8137L32.1046 36.4612L31.7578 37.1553L32.4899 37.485C32.531 37.5035 32.9077 37.6701 33.4756 37.8196C33.7275 37.8859 33.9873 37.9332 34.2481 37.9604C34.4259 37.9789 34.6071 37.9883 34.7866 37.9883C37.0685 37.9883 39.0902 36.5542 39.7031 34.5009C39.8133 34.132 39.8645 33.7741 39.9098 33.4584C39.9638 33.0805 40.0102 32.7569 40.1347 32.5058C40.3162 32.1397 40.5777 31.8849 40.8711 31.7888L41.6382 31.537L41.3727 30.8102L41.1253 30.1331L40.8596 29.4061ZM40.358 30.3849L40.6053 31.0618C40.1036 31.2265 39.6753 31.6231 39.3999 32.1786C39.2222 32.5364 39.1655 32.9326 39.1056 33.3521C39.0617 33.6577 39.0166 33.9738 38.9217 34.2915C38.3999 36.0402 36.6406 37.219 34.7866 37.219C34.6371 37.219 34.487 37.2114 34.3369 37.1958C34.1216 37.1733 33.9065 37.1345 33.693 37.0784C33.1845 36.9445 32.8524 36.7965 32.8386 36.7902L33.162 36.1427C33.1649 36.144 33.4539 36.2718 33.8953 36.388C34.1933 36.4662 34.4952 36.5035 34.7943 36.5035C36.319 36.5035 37.7649 35.5346 38.194 34.0965C38.2743 33.8274 38.3141 33.5498 38.3562 33.2556C38.4212 32.8012 38.4885 32.3312 38.7153 31.8739C39.0783 31.142 39.6618 30.6133 40.358 30.3849Z" fill="#36190D"/>
</g>
<mask id="mask2_5_1123" style="mask-type:luminance" maskUnits="userSpaceOnUse" x="0" y="0" width="47" height="37">
<path d="M2.54198 -2.8022e-07C1.1382 -2.8022e-07 0 1.07818 0 2.40797V34.592C0 35.9218 1.1382 37 2.54198 37H44.458C45.862 37 47 35.9218 47 34.592V2.40797C47 1.07818 45.862 -2.8022e-07 44.458 -2.8022e-07H2.54198Z" fill="white"/>
</mask>
<g mask="url(#mask2_5_1123)">
<path d="M39.0666 29.9682C39.0938 29.6856 39.2022 29.3869 39.4528 29.1044C39.6663 28.8641 39.9492 28.6888 40.2598 28.5787C40.3764 28.5373 40.5144 28.4957 40.6711 28.4614C41.5316 28.2727 42.1936 27.6169 42.3072 26.7868C42.3154 26.7278 42.322 26.6667 42.3271 26.6035C42.3271 26.6035 43.8173 27.984 43.1719 29.9537C42.946 30.6429 42.4508 31.235 41.7586 31.5359C41.5027 31.6471 41.2062 31.7301 40.8813 31.7403C39.8432 31.7732 38.9721 30.9482 39.0666 29.9682Z" fill="#995036"/>
</g>
<mask id="mask3_5_1123" style="mask-type:luminance" maskUnits="userSpaceOnUse" x="0" y="0" width="47" height="37">
<path d="M2.54198 -2.8022e-07C1.1382 -2.8022e-07 0 1.07818 0 2.40797V34.592C0 35.9218 1.1382 37 2.54198 37H44.458C45.862 37 47 35.9218 47 34.592V2.40797C47 1.07818 45.862 -2.8022e-07 44.458 -2.8022e-07H2.54198Z" fill="white"/>
</mask>
<g mask="url(#mask3_5_1123)">
<path d="M41.6496 24.9001L41.5175 26.545C41.5135 26.5944 41.5083 26.6418 41.5019 26.6879C41.4332 27.1899 41.0353 27.5919 40.4878 27.7119C40.3131 27.7503 40.1406 27.7995 39.9751 27.8582C39.5195 28.0198 39.1239 28.2797 38.8313 28.6094C38.497 28.9861 38.3041 29.4199 38.2579 29.8984C38.1937 30.5656 38.424 31.2089 38.9066 31.7097C39.397 32.2187 40.0949 32.5105 40.8214 32.5105C40.8503 32.5105 40.8794 32.5102 40.9084 32.5093C41.308 32.4965 41.7079 32.4043 42.0973 32.2352C42.9697 31.8559 43.644 31.1074 43.9474 30.1818C44.731 27.7903 42.9701 26.1232 42.8948 26.0534L41.6496 24.9001ZM42.327 26.6036C42.327 26.6036 43.8173 27.9841 43.1719 29.9538C42.9461 30.6428 42.4508 31.2351 41.7586 31.5359C41.5027 31.6472 41.2064 31.73 40.8814 31.7404C40.8613 31.7409 40.8414 31.7413 40.8214 31.7413C39.8099 31.7413 38.974 30.9293 39.0665 29.9683C39.0938 29.6857 39.2023 29.3868 39.4527 29.1045C39.6662 28.864 39.9492 28.6887 40.2599 28.5786C40.3764 28.5372 40.5144 28.4958 40.671 28.4614C41.5317 28.2726 42.1936 27.6168 42.3073 26.7868C42.3153 26.7277 42.3219 26.6668 42.327 26.6036Z" fill="#36190D"/>
</g>
<mask id="mask4_5_1123" style="mask-type:luminance" maskUnits="userSpaceOnUse" x="0" y="0" width="47" height="37">
<path d="M2.54198 -2.8022e-07C1.1382 -2.8022e-07 0 1.07818 0 2.40797V34.592C0 35.9218 1.1382 37 2.54198 37H44.458C45.862 37 47 35.9218 47 34.592V2.40797C47 1.07818 45.862 -2.8022e-07 44.458 -2.8022e-07H2.54198Z" fill="white"/>
</mask>
<g mask="url(#mask4_5_1123)">
<path d="M42.1467 29.1372C42.3793 29.665 41.9652 30.3314 41.2214 30.6256C40.4778 30.9198 39.6864 30.7305 39.4537 30.2029C39.221 29.675 39.6352 29.0087 40.379 28.7144C41.1225 28.4202 41.914 28.6095 42.1467 29.1372Z" fill="#A95A3C"/>
</g>
<mask id="mask5_5_1123" style="mask-type:luminance" maskUnits="userSpaceOnUse" x="0" y="0" width="47" height="37">
<path d="M2.54198 -2.8022e-07C1.1382 -2.8022e-07 0 1.07818 0 2.40797V34.592C0 35.9218 1.1382 37 2.54198 37H44.458C45.862 37 47 35.9218 47 34.592V2.40797C47 1.07818 45.862 -2.8022e-07 44.458 -2.8022e-07H2.54198Z" fill="white"/>
</mask>
<g mask="url(#mask5_5_1123)">
<path d="M34.277 37.1968H12.7614C12.7614 31.0815 15.4595 25.3065 15.4595 25.3065H31.5772C31.5772 25.3065 34.277 31.0815 34.277 37.1968Z" fill="white"/>
</g>
<mask id="mask6_5_1123" style="mask-type:luminance" maskUnits="userSpaceOnUse" x="0" y="0" width="47" height="37">
<path d="M2.54198 -2.8022e-07C1.1382 -2.8022e-07 0 1.07818 0 2.40797V34.592C0 35.9218 1.1382 37 2.54198 37H44.458C45.862 37 47 35.9218 47 34.592V2.40797C47 1.07818 45.862 -2.8022e-07 44.458 -2.8022e-07H2.54198Z" fill="white"/>
</mask>
<g mask="url(#mask6_5_1123)">
<path d="M31.2794 36.7222C31.2794 36.8819 31.2747 37.04 31.2652 37.1967H15.7744C15.7649 37.04 15.7602 36.8819 15.7602 36.7222C15.7602 35.8209 15.9115 34.9569 16.1903 34.1525C17.2455 31.0979 20.128 28.9057 23.5206 28.9057C26.9118 28.9057 29.7941 31.0963 30.8495 34.1511C31.1283 34.9553 31.2794 35.8209 31.2794 36.7222Z" fill="#FFBDB1"/>
</g>
<mask id="mask7_5_1123" style="mask-type:luminance" maskUnits="userSpaceOnUse" x="0" y="0" width="47" height="37">
<path d="M2.54198 -2.8022e-07C1.1382 -2.8022e-07 0 1.07818 0 2.40797V34.592C0 35.9218 1.1382 37 2.54198 37H44.458C45.862 37 47 35.9218 47 34.592V2.40797C47 1.07818 45.862 -2.8022e-07 44.458 -2.8022e-07H2.54198Z" fill="white"/>
</mask>
<g mask="url(#mask7_5_1123)">
<path d="M30.8495 34.1511C29.3547 35.5046 26.6314 36.4089 23.5191 36.4089C20.4083 36.4089 17.685 35.5046 16.1902 34.1526C17.2456 31.0979 20.1279 28.9058 23.5206 28.9058C26.9118 28.9058 29.7943 31.0965 30.8495 34.1511Z" fill="#FFCCC2"/>
</g>
<mask id="mask8_5_1123" style="mask-type:luminance" maskUnits="userSpaceOnUse" x="0" y="0" width="47" height="37">
<path d="M2.54198 -2.8022e-07C1.1382 -2.8022e-07 0 1.07818 0 2.40797V34.592C0 35.9218 1.1382 37 2.54198 37H44.458C45.862 37 47 35.9218 47 34.592V2.40797C47 1.07818 45.862 -2.8022e-07 44.458 -2.8022e-07H2.54198Z" fill="white"/>
</mask>
<g mask="url(#mask8_5_1123)">
<path d="M38.5134 19.1536C38.0069 19.1536 37.5395 19.3924 37.2632 19.7926C36.8952 20.3296 36.4569 20.8651 35.959 21.3865C34.4704 22.9458 32.7868 24.0194 31.8818 24.5374L31.5773 24.5372H15.7996L14.4567 23.2453L13.9553 22.7632L13.3866 23.173C13.3643 23.1889 11.1351 24.7961 8.86565 26.5244C8.14146 27.0759 7.62437 27.8244 7.40978 28.6319C7.17125 29.5253 7.15607 30.8599 8.43867 32.1411L8.44507 32.1475L8.45165 32.1537L10.7781 34.3731L10.384 35.2464C10.2173 35.6174 10.2407 36.0307 10.4478 36.3814C10.6542 36.7303 11.0117 36.9641 11.429 37.0227C11.5979 37.0457 11.7719 37.0592 11.95 37.0635C11.9496 37.1084 11.9494 37.1527 11.9494 37.1967V37.9661H12.7615H13.3932C13.6385 38.154 13.9441 38.2567 14.2563 38.2567C14.5753 38.2567 14.8776 38.1519 15.1163 37.9661H34.277H35.089V37.1967C35.089 35.368 34.8548 33.3988 34.3927 31.3348C37.7737 29.5542 39.8249 26.9587 40.966 25.0474C41.7268 23.7687 42.1548 22.6815 42.3424 22.1471C42.4743 21.772 42.4339 21.3579 42.2314 21.0116C42.0298 20.6666 41.6825 20.4157 41.2786 20.323C40.9006 20.2368 40.5376 20.1932 40.199 20.1932C40.1433 20.1932 40.0897 20.1944 40.0386 20.1965C39.923 19.9959 39.7881 19.8105 39.6353 19.6418C39.3584 19.3328 38.9484 19.1536 38.5134 19.1536ZM13.7462 30.2372C13.854 29.8301 13.965 29.4415 14.0765 29.0723C13.8575 29.7899 13.7458 30.237 13.7458 30.237C13.746 30.237 13.746 30.2372 13.7462 30.2372ZM38.5134 19.9228C38.7 19.9228 38.8865 19.9949 39.0194 20.1431C39.2146 20.3584 39.4096 20.654 39.5461 21.054C39.5461 21.054 39.7649 20.9624 40.199 20.9624C40.4328 20.9624 40.7293 20.9891 41.0876 21.0708C41.476 21.1598 41.6977 21.5463 41.5718 21.9043C41.35 22.5362 40.9351 23.5326 40.2592 24.6687C39.0199 26.7447 36.8974 29.287 33.4666 30.9296C33.9202 32.8005 34.277 34.9754 34.277 37.1967H14.7515C14.7369 37.2176 14.7208 37.2409 14.7071 37.2604C14.6022 37.4093 14.4309 37.4874 14.2563 37.4874C14.1331 37.4874 14.0083 37.4485 13.9043 37.3681C13.8332 37.3129 13.7703 37.2552 13.7125 37.1967H12.7615C12.7615 36.877 12.7703 36.5587 12.7844 36.2416C12.5215 36.2803 12.2834 36.2957 12.0719 36.2957C11.8734 36.2957 11.6983 36.2822 11.548 36.2617C11.196 36.2122 10.9911 35.8593 11.1307 35.5488L11.7398 34.1987L9.02778 31.6117C8.03307 30.6182 7.9903 29.5946 8.19703 28.82C8.37579 28.1475 8.80424 27.5582 9.37434 27.1241C11.6615 25.3823 13.8781 23.7853 13.8781 23.7853L15.4596 25.3065C15.4592 25.307 15.459 25.3077 15.4587 25.3082C15.4589 25.308 15.4596 25.3065 15.4596 25.3065H31.5773C31.5773 25.3065 31.6148 25.3872 31.6789 25.5338C32.1882 25.2756 34.5368 24.0231 36.5611 21.9026C37.0506 21.3901 37.5224 20.8272 37.9428 20.2138C38.0751 20.0222 38.2943 19.9228 38.5134 19.9228Z" fill="#36190D"/>
</g>
<mask id="mask9_5_1123" style="mask-type:luminance" maskUnits="userSpaceOnUse" x="0" y="0" width="47" height="37">
<path d="M2.54198 -2.8022e-07C1.1382 -2.8022e-07 0 1.07818 0 2.40797V34.592C0 35.9218 1.1382 37 2.54198 37H44.458C45.862 37 47 35.9218 47 34.592V2.40797C47 1.07818 45.862 -2.8022e-07 44.458 -2.8022e-07H2.54198Z" fill="white"/>
</mask>
<g mask="url(#mask9_5_1123)">
<path d="M41.5718 21.9044C41.3501 22.5363 40.935 23.5327 40.2593 24.6687C38.9681 26.8315 36.7224 29.5034 33.0331 31.1335C33.0331 31.1335 31.5308 30.0245 31.5768 25.5846C31.5768 25.5846 34.2766 24.2957 36.561 21.9026C37.0507 21.3902 37.5224 20.8272 37.9428 20.2138C38.1876 19.8592 38.7303 19.8206 39.0194 20.1432C39.2145 20.3583 39.4097 20.6541 39.5462 21.0541C39.5462 21.0541 40.0642 20.8373 41.0876 21.0709C41.4761 21.1599 41.6978 21.5464 41.5718 21.9044Z" fill="white"/>
</g>
<mask id="mask10_5_1123" style="mask-type:luminance" maskUnits="userSpaceOnUse" x="0" y="0" width="47" height="37">
<path d="M2.54198 -2.8022e-07C1.1382 -2.8022e-07 0 1.07818 0 2.40797V34.592C0 35.9218 1.1382 37 2.54198 37H44.458C45.862 37 47 35.9218 47 34.592V2.40797C47 1.07818 45.862 -2.8022e-07 44.458 -2.8022e-07H2.54198Z" fill="white"/>
</mask>
<g mask="url(#mask10_5_1123)">
<path d="M41.5718 21.9044C41.3501 22.5363 40.935 23.5327 40.2592 24.6687C38.5919 24.3965 37.2102 23.3344 36.561 21.9026C37.0507 21.3902 37.5224 20.8272 37.9428 20.2139C38.1876 19.8592 38.7303 19.8206 39.0194 20.1432C39.2144 20.3583 39.4097 20.6541 39.5462 21.0541C39.5462 21.0541 40.0642 20.8373 41.0876 21.0709C41.476 21.1599 41.6978 21.5464 41.5718 21.9044Z" fill="#FFD4CC"/>
</g>
<mask id="mask11_5_1123" style="mask-type:luminance" maskUnits="userSpaceOnUse" x="0" y="0" width="47" height="37">
<path d="M2.54198 -2.8022e-07C1.1382 -2.8022e-07 0 1.07818 0 2.40797V34.592C0 35.9218 1.1382 37 2.54198 37H44.458C45.862 37 47 35.9218 47 34.592V2.40797C47 1.07818 45.862 -2.8022e-07 44.458 -2.8022e-07H2.54198Z" fill="white"/>
</mask>
<g mask="url(#mask11_5_1123)">
<path d="M16.0462 34.9205C15.996 35.0916 15.927 35.2612 15.8395 35.4234C15.4204 36.2141 14.9844 36.867 14.707 37.2606C14.5282 37.5147 14.1557 37.5623 13.9042 37.3681C13.2542 36.8635 13.1889 36.1682 13.1889 36.1682C12.4905 36.3234 11.9372 36.3146 11.5479 36.2617C11.1959 36.2122 10.991 35.8593 11.1308 35.5488L11.7398 34.1987L9.02786 31.6117C8.03315 30.6182 7.99038 29.5946 8.19711 28.82C8.37587 28.1475 8.80432 27.5582 9.37424 27.1241C11.6616 25.3823 13.8782 23.7853 13.8782 23.7853L15.4595 25.3065C14.4169 27.8864 13.7459 30.2371 13.7459 30.2371C14.5225 31.0929 15.1541 31.8905 15.6196 32.5171C16.1431 33.2229 16.2902 34.1087 16.0462 34.9205Z" fill="white"/>
</g>
<mask id="mask12_5_1123" style="mask-type:luminance" maskUnits="userSpaceOnUse" x="0" y="0" width="47" height="37">
<path d="M2.54198 -2.8022e-07C1.1382 -2.8022e-07 0 1.07818 0 2.40797V34.592C0 35.9218 1.1382 37 2.54198 37H44.458C45.862 37 47 35.9218 47 34.592V2.40797C47 1.07818 45.862 -2.8022e-07 44.458 -2.8022e-07H2.54198Z" fill="white"/>
</mask>
<g mask="url(#mask12_5_1123)">
<path d="M16.0462 34.9205C15.9959 35.0916 15.927 35.2612 15.8395 35.4234C15.4204 36.2141 14.9844 36.867 14.7069 37.2606C14.5282 37.5147 14.1557 37.5623 13.9042 37.3681C13.2542 36.8635 13.1889 36.1682 13.1889 36.1682C12.4905 36.3234 11.9372 36.3146 11.5479 36.2617C11.1958 36.2122 10.9909 35.8593 11.1308 35.5488L11.7398 34.1987C11.7398 34.1987 13.921 33.5705 16.0462 34.9205Z" fill="#FFD4CC"/>
</g>
<mask id="mask13_5_1123" style="mask-type:luminance" maskUnits="userSpaceOnUse" x="0" y="0" width="47" height="37">
<path d="M2.54198 -2.8022e-07C1.1382 -2.8022e-07 0 1.07818 0 2.40797V34.592C0 35.9218 1.1382 37 2.54198 37H44.458C45.862 37 47 35.9218 47 34.592V2.40797C47 1.07818 45.862 -2.8022e-07 44.458 -2.8022e-07H2.54198Z" fill="white"/>
</mask>
<g mask="url(#mask13_5_1123)">
<path d="M14.2342 38.1339C14.2024 38.1339 14.1704 38.1328 14.1384 38.1308C13.6626 38.1015 13.2299 37.8485 12.9812 37.4537C12.8722 37.2808 12.7977 37.104 12.747 36.9494C12.2648 37.0711 11.9479 37.0644 11.9048 37.0621L11.9356 36.2934C11.9393 36.2932 12.3308 36.3008 12.9033 36.0937L13.4034 35.9128L13.4526 36.4179C13.4528 36.4198 13.4908 36.7618 13.6783 37.0592C13.7918 37.2393 13.9788 37.3501 14.1912 37.3633C14.3946 37.3762 14.5838 37.294 14.7129 37.1393C14.7598 37.0831 14.8055 37.0188 14.8485 36.9482L15.5204 35.7633C15.8893 35.1127 16.0205 34.3807 15.8898 33.7027C15.8291 33.3876 15.7185 33.0918 15.5612 32.8239C15.4636 32.6576 15.3314 32.4895 15.1576 32.3097L13.4464 30.5418C13.7573 30.7312 14.0664 30.9235 14.3714 31.1212C15.6973 31.98 16.5864 33.0338 16.6886 33.5644C16.8522 34.4136 16.6913 35.3236 16.2356 36.1273L15.5575 37.3231C15.4888 37.436 15.4212 37.5309 15.3501 37.6161C15.0731 37.9484 14.6706 38.1339 14.2342 38.1339Z" fill="#36190D"/>
</g>
<mask id="mask14_5_1123" style="mask-type:luminance" maskUnits="userSpaceOnUse" x="0" y="0" width="47" height="37">
<path d="M2.54198 -2.8022e-07C1.1382 -2.8022e-07 0 1.07818 0 2.40797V34.592C0 35.9218 1.1382 37 2.54198 37H44.458C45.862 37 47 35.9218 47 34.592V2.40797C47 1.07818 45.862 -2.8022e-07 44.458 -2.8022e-07H2.54198Z" fill="white"/>
</mask>
<g mask="url(#mask14_5_1123)">
<path d="M24.6387 33.1207C24.6387 33.7066 24.1375 34.1814 23.5192 34.1814C22.9008 34.1814 22.3996 33.7066 22.3996 33.1207C22.3996 32.5349 22.9008 32.0601 23.5192 32.0601C24.1375 32.0601 24.6387 32.5349 24.6387 33.1207Z" fill="#FFA72F"/>
</g>
<mask id="mask15_5_1123" style="mask-type:luminance" maskUnits="userSpaceOnUse" x="0" y="0" width="47" height="37">
<path d="M2.54198 -2.8022e-07C1.1382 -2.8022e-07 0 1.07818 0 2.40797V34.592C0 35.9218 1.1382 37 2.54198 37H44.458C45.862 37 47 35.9218 47 34.592V2.40797C47 1.07818 45.862 -2.8022e-07 44.458 -2.8022e-07H2.54198Z" fill="white"/>
</mask>
<g mask="url(#mask15_5_1123)">
<path d="M23.5192 31.2908C22.4541 31.2908 21.5877 32.1116 21.5877 33.1207C21.5877 34.1298 22.4541 34.9508 23.5192 34.9508C24.5843 34.9508 25.4507 34.1298 25.4507 33.1207C25.4507 32.1116 24.5843 31.2908 23.5192 31.2908ZM23.5192 32.06C24.1375 32.06 24.6387 32.5348 24.6387 33.1207C24.6387 33.7065 24.1375 34.1814 23.5192 34.1814C22.9008 34.1814 22.3996 33.7065 22.3996 33.1207C22.3996 32.5348 22.9008 32.06 23.5192 32.06Z" fill="#36190D"/>
</g>
<mask id="mask16_5_1123" style="mask-type:luminance" maskUnits="userSpaceOnUse" x="0" y="0" width="47" height="37">
<path d="M2.54198 -2.8022e-07C1.1382 -2.8022e-07 0 1.07818 0 2.40797V34.592C0 35.9218 1.1382 37 2.54198 37H44.458C45.862 37 47 35.9218 47 34.592V2.40797C47 1.07818 45.862 -2.8022e-07 44.458 -2.8022e-07H2.54198Z" fill="white"/>
</mask>
<g mask="url(#mask16_5_1123)">
<path d="M26.6708 31.7126C26.6501 31.6946 26.3253 31.3912 26.2758 30.3589C26.2785 30.2393 26.2806 29.1694 25.5052 28.4126C25.0234 27.9423 24.3553 27.7038 23.5192 27.7038C22.6832 27.7038 22.0151 27.9423 21.5333 28.4125C20.7276 29.1992 20.7625 30.3446 20.763 30.3446C20.7131 31.408 20.3772 31.7048 20.3786 31.7048L20.3775 31.7057C20.2052 31.82 20.2114 32.0638 20.3896 32.17L20.3907 32.1707C21.3218 32.7267 22.9126 32.8086 23.3809 32.8206L23.6549 32.8228L23.8139 32.822V32.8152C24.4094 32.7899 25.8015 32.6762 26.6496 32.1696L26.6522 32.1681C26.8229 32.0633 26.8326 31.8297 26.6708 31.7126Z" fill="#FFA72F"/>
</g>
<mask id="mask17_5_1123" style="mask-type:luminance" maskUnits="userSpaceOnUse" x="0" y="0" width="47" height="37">
<path d="M2.54198 -2.8022e-07C1.1382 -2.8022e-07 0 1.07818 0 2.40797V34.592C0 35.9218 1.1382 37 2.54198 37H44.458C45.862 37 47 35.9218 47 34.592V2.40797C47 1.07818 45.862 -2.8022e-07 44.458 -2.8022e-07H2.54198Z" fill="white"/>
</mask>
<g mask="url(#mask17_5_1123)">
<path d="M23.5192 26.9345C22.4552 26.9345 21.591 27.2516 20.9506 27.8768C20.5174 28.2998 20.2072 28.8623 20.054 29.503C20.022 29.6369 19.944 29.9988 19.9531 30.3105H19.9518C19.9264 30.8534 19.8168 31.1056 19.776 31.1818C19.5559 31.3835 19.4327 31.6641 19.4404 31.9597C19.4494 32.3115 19.6426 32.6336 19.9571 32.8212C21.0334 33.4638 22.6947 33.5728 23.3589 33.5896C23.3639 33.5897 23.369 33.5899 23.3739 33.5899L23.6481 33.592C23.6503 33.5922 23.6527 33.5922 23.6549 33.5922C23.6565 33.5922 23.658 33.5922 23.6596 33.5922L23.8184 33.5911C23.8674 33.591 23.9153 33.5866 23.9619 33.5785C24.7687 33.5362 26.1458 33.3799 27.0826 32.8203C27.0852 32.8188 27.0877 32.8172 27.0905 32.8157C27.3952 32.6288 27.5836 32.315 27.5975 31.9749C27.6098 31.6772 27.4873 31.3903 27.2652 31.1845C27.2287 31.1199 27.1164 30.8813 27.0881 30.346C27.0906 30.0374 27.0376 28.8039 26.0877 27.8768C25.4474 27.2516 24.5832 26.9345 23.5192 26.9345ZM23.5192 27.7038C24.3553 27.7038 25.0234 27.9422 25.5052 28.4127C26.2805 29.1695 26.2785 30.2394 26.2758 30.359C26.3253 31.3911 26.6501 31.6945 26.6708 31.7127C26.8326 31.8298 26.8229 32.0632 26.6521 32.1682L26.6496 32.1697C25.8015 32.6763 24.4094 32.7899 23.8137 32.8153V32.8219L23.6549 32.8228L23.3809 32.8207C22.9126 32.8087 21.3218 32.7268 20.3907 32.1706L20.3896 32.1701C20.2114 32.0639 20.2052 31.8199 20.3775 31.7056L20.3788 31.7049C20.3772 31.7049 20.7131 31.4081 20.763 30.3445C20.7625 30.3445 20.7276 29.1993 21.5333 28.4126C22.0151 27.9422 22.6832 27.7038 23.5192 27.7038Z" fill="#36190D"/>
</g>
<mask id="mask18_5_1123" style="mask-type:luminance" maskUnits="userSpaceOnUse" x="0" y="0" width="47" height="37">
<path d="M2.54198 -2.8022e-07C1.1382 -2.8022e-07 0 1.07818 0 2.40797V34.592C0 35.9218 1.1382 37 2.54198 37H44.458C45.862 37 47 35.9218 47 34.592V2.40797C47 1.07818 45.862 -2.8022e-07 44.458 -2.8022e-07H2.54198Z" fill="white"/>
</mask>
<g mask="url(#mask18_5_1123)">
<path d="M25.3664 28.5398C26.1944 29.3243 26.2774 30.5176 25.5517 31.2051C24.8261 31.8926 23.5665 31.8142 22.7385 31.0295C21.9103 30.2451 21.8275 29.0517 22.5531 28.3642C23.2788 27.6767 24.5383 27.7553 25.3664 28.5398Z" fill="#FFB455"/>
</g>
<mask id="mask19_5_1123" style="mask-type:luminance" maskUnits="userSpaceOnUse" x="0" y="0" width="47" height="37">
<path d="M2.54198 -2.8022e-07C1.1382 -2.8022e-07 0 1.07818 0 2.40797V34.592C0 35.9218 1.1382 37 2.54198 37H44.458C45.862 37 47 35.9218 47 34.592V2.40797C47 1.07818 45.862 -2.8022e-07 44.458 -2.8022e-07H2.54198Z" fill="white"/>
</mask>
<g mask="url(#mask19_5_1123)">
<path d="M32.3613 25.5485C32.2737 25.2844 32.101 24.9495 32.101 24.9495H23.5193H14.9376C14.9376 24.9495 14.7646 25.2844 14.6771 25.5485C14.6771 25.5485 17.721 29.0415 23.5184 29.0422C23.5187 29.0422 23.5189 29.0422 23.5193 29.0422H23.52C29.3174 29.0415 32.3613 25.5485 32.3613 25.5485Z" fill="#FF2530" stroke="#36190D" stroke-width="6.30667" stroke-miterlimit="10"/>
</g>
<mask id="mask20_5_1123" style="mask-type:luminance" maskUnits="userSpaceOnUse" x="0" y="0" width="47" height="37">
<path d="M2.54198 -2.8022e-07C1.1382 -2.8022e-07 0 1.07818 0 2.40797V34.592C0 35.9218 1.1382 37 2.54198 37H44.458C45.862 37 47 35.9218 47 34.592V2.40797C47 1.07818 45.862 -2.8022e-07 44.458 -2.8022e-07H2.54198Z" fill="white"/>
</mask>
<g mask="url(#mask20_5_1123)">
<path d="M13.8985 9.13982C13.8985 9.13982 10.737 12.3544 5.84316 12.8516C4.69637 12.9682 3.71757 13.7137 3.35858 14.7522C3.35181 14.7721 3.34505 14.792 3.33847 14.8123C2.80017 16.4715 3.92612 18.1855 5.71485 18.5604C6.21275 18.6649 6.79126 18.734 7.44161 18.7272C10.1415 18.699 12.6001 17.2566 13.9295 15.0301C14.2839 14.4363 14.6025 13.7476 14.8277 12.9628L13.8985 9.13982Z" fill="white"/>
</g>
<mask id="mask21_5_1123" style="mask-type:luminance" maskUnits="userSpaceOnUse" x="0" y="0" width="47" height="37">
<path d="M2.54198 -2.8022e-07C1.1382 -2.8022e-07 0 1.07818 0 2.40797V34.592C0 35.9218 1.1382 37 2.54198 37H44.458C45.862 37 47 35.9218 47 34.592V2.40797C47 1.07818 45.862 -2.8022e-07 44.458 -2.8022e-07H2.54198Z" fill="white"/>
</mask>
<g mask="url(#mask21_5_1123)">
<path d="M14.3466 7.55567L13.3051 8.6148C13.2602 8.65982 10.2616 11.6291 5.7565 12.0867C4.28893 12.2358 3.04472 13.1881 2.58703 14.5129C2.57862 14.5371 2.57021 14.5619 2.56235 14.5867C2.24248 15.5719 2.37043 16.6093 2.92244 17.5072C3.48541 18.4233 4.43936 19.081 5.53936 19.3117C6.12573 19.4345 6.73623 19.4968 7.35367 19.4968C7.38566 19.4968 7.41801 19.4967 7.45055 19.4963C10.3959 19.4657 13.1494 17.8993 14.6362 15.4089C15.0591 14.7004 15.3872 13.9454 15.6113 13.1647L15.6647 12.9784L15.619 12.7902L14.6897 8.96721L14.3466 7.55567ZM13.8984 9.13986L14.8277 12.9628C14.6025 13.7477 14.2839 14.4362 13.9295 15.0302C12.6001 17.2567 10.1415 18.699 7.44159 18.7271C7.41216 18.7274 7.38273 18.7276 7.35367 18.7276C6.73897 18.7276 6.19025 18.6602 5.71483 18.5605C3.9261 18.1856 2.80015 16.4713 3.33845 14.8123C3.34503 14.7921 3.3518 14.7721 3.35874 14.7522C3.71755 13.7137 4.69636 12.968 5.84314 12.8517C10.737 12.3545 13.8984 9.13986 13.8984 9.13986Z" fill="#36190D"/>
</g>
<mask id="mask22_5_1123" style="mask-type:luminance" maskUnits="userSpaceOnUse" x="0" y="0" width="47" height="37">
<path d="M2.54198 -2.8022e-07C1.1382 -2.8022e-07 0 1.07818 0 2.40797V34.592C0 35.9218 1.1382 37 2.54198 37H44.458C45.862 37 47 35.9218 47 34.592V2.40797C47 1.07818 45.862 -2.8022e-07 44.458 -2.8022e-07H2.54198Z" fill="white"/>
</mask>
<g mask="url(#mask22_5_1123)">
<path d="M12.0587 15.5794C11.2965 16.8188 9.94515 17.6471 8.4401 17.8002C7.78829 17.8671 7.31598 17.7912 6.97655 17.6653C6.34576 17.4317 5.99025 16.7596 6.19515 16.1467C6.20959 16.1028 6.22714 16.0603 6.24651 16.0193C6.71553 15.0106 8.41927 15.0319 8.41927 15.0319C11.3829 14.9439 12.4222 13.2251 12.5582 12.9747C12.5694 12.955 12.5743 12.9444 12.5743 12.9444C12.8048 13.9518 12.5007 14.8589 12.0587 15.5794Z" fill="#FFE3E3"/>
</g>
<mask id="mask23_5_1123" style="mask-type:luminance" maskUnits="userSpaceOnUse" x="0" y="0" width="47" height="37">
<path d="M2.54198 -2.8022e-07C1.1382 -2.8022e-07 0 1.07818 0 2.40797V34.592C0 35.9218 1.1382 37 2.54198 37H44.458C45.862 37 47 35.9218 47 34.592V2.40797C47 1.07818 45.862 -2.8022e-07 44.458 -2.8022e-07H2.54198Z" fill="white"/>
</mask>
<g mask="url(#mask23_5_1123)">
<path d="M12.5583 12.9748C12.4813 13.5331 12.2636 14.0412 11.9947 14.4812C11.234 15.7204 9.88103 16.5487 8.37763 16.702C7.72601 16.7688 7.25205 16.6928 6.91262 16.5669C6.62437 16.4607 6.39369 16.2621 6.24637 16.0193C6.71558 15.0106 8.41931 15.0317 8.41931 15.0317C11.383 14.9437 12.4221 13.225 12.5583 12.9748Z" fill="#F5B8AF"/>
</g>
<mask id="mask24_5_1123" style="mask-type:luminance" maskUnits="userSpaceOnUse" x="0" y="0" width="47" height="37">
<path d="M2.54198 -2.8022e-07C1.1382 -2.8022e-07 0 1.07818 0 2.40797V34.592C0 35.9218 1.1382 37 2.54198 37H44.458C45.862 37 47 35.9218 47 34.592V2.40797C47 1.07818 45.862 -2.8022e-07 44.458 -2.8022e-07H2.54198Z" fill="white"/>
</mask>
<g mask="url(#mask24_5_1123)">
<path d="M33.1399 9.13982C33.1399 9.13982 36.3016 12.3544 41.1952 12.8516C42.342 12.9682 43.3208 13.7137 43.6798 14.7522C43.6866 14.7721 43.6933 14.792 43.6999 14.8123C44.2382 16.4715 43.1123 18.1855 41.3235 18.5604C40.8256 18.6649 40.2471 18.734 39.5968 18.7272C36.8969 18.699 34.4383 17.2566 33.1089 15.0301C32.7544 14.4363 32.4359 13.7476 32.2107 12.9628L33.1399 9.13982Z" fill="#995036"/>
</g>
<mask id="mask25_5_1123" style="mask-type:luminance" maskUnits="userSpaceOnUse" x="0" y="0" width="47" height="37">
<path d="M2.54198 -2.8022e-07C1.1382 -2.8022e-07 0 1.07818 0 2.40797V34.592C0 35.9218 1.1382 37 2.54198 37H44.458C45.862 37 47 35.9218 47 34.592V2.40797C47 1.07818 45.862 -2.8022e-07 44.458 -2.8022e-07H2.54198Z" fill="white"/>
</mask>
<g mask="url(#mask25_5_1123)">
<path d="M32.6913 7.56283L32.3487 8.96727L31.4195 12.7902L31.3736 12.9785L31.4272 13.1648C31.6512 13.9453 31.9792 14.7003 32.4021 15.4088C33.8891 17.8994 36.6423 19.4657 39.5879 19.4964C39.6204 19.4967 39.6526 19.4969 39.6848 19.4969C40.3022 19.4969 40.9125 19.4345 41.4989 19.3116C42.5991 19.0809 43.553 18.4234 44.116 17.5073C44.668 16.6094 44.7958 15.5719 44.4759 14.5862C44.4681 14.5618 44.4598 14.5372 44.4514 14.5128C43.9937 13.1882 42.7495 12.2357 41.2818 12.0868C36.7652 11.6279 33.7628 8.64447 33.733 8.61451L32.6913 7.56283ZM33.1398 9.13992C33.1398 9.13992 36.3015 12.3545 41.1953 12.8515C42.3421 12.9681 43.3209 13.7138 43.6797 14.7521C43.6867 14.772 43.6932 14.7921 43.6998 14.8124C44.2383 16.4714 43.1124 18.1854 41.3234 18.5605C40.8482 18.6603 40.2995 18.7277 39.6848 18.7277C39.6555 18.7277 39.6263 18.7275 39.5969 18.7271C36.897 18.6989 34.4382 17.2567 33.1089 15.0301C32.7543 14.4362 32.4359 13.7475 32.2107 12.9629L33.1398 9.13992Z" fill="#36190D"/>
</g>
<mask id="mask26_5_1123" style="mask-type:luminance" maskUnits="userSpaceOnUse" x="0" y="0" width="47" height="37">
<path d="M2.54198 -2.8022e-07C1.1382 -2.8022e-07 0 1.07818 0 2.40797V34.592C0 35.9218 1.1382 37 2.54198 37H44.458C45.862 37 47 35.9218 47 34.592V2.40797C47 1.07818 45.862 -2.8022e-07 44.458 -2.8022e-07H2.54198Z" fill="white"/>
</mask>
<g mask="url(#mask26_5_1123)">
<path d="M34.9797 15.5794C35.7419 16.8188 37.0932 17.6471 38.5983 17.8002C39.2501 17.8671 39.7224 17.7912 40.0618 17.6653C40.6926 17.4317 41.0481 16.7596 40.8432 16.1467C40.8288 16.1028 40.8113 16.0603 40.7919 16.0193C40.3229 15.0106 38.6191 15.0319 38.6191 15.0319C35.6555 14.9439 34.6163 13.2251 34.4802 12.9747C34.469 12.955 34.4641 12.9444 34.4641 12.9444C34.2336 13.9518 34.5377 14.8589 34.9797 15.5794Z" fill="#FFE3E3"/>
</g>
<mask id="mask27_5_1123" style="mask-type:luminance" maskUnits="userSpaceOnUse" x="0" y="0" width="47" height="37">
<path d="M2.54198 -2.8022e-07C1.1382 -2.8022e-07 0 1.07818 0 2.40797V34.592C0 35.9218 1.1382 37 2.54198 37H44.458C45.862 37 47 35.9218 47 34.592V2.40797C47 1.07818 45.862 -2.8022e-07 44.458 -2.8022e-07H2.54198Z" fill="white"/>
</mask>
<g mask="url(#mask27_5_1123)">
<path d="M34.4801 12.9748C34.5571 13.5331 34.7748 14.0412 35.0437 14.4812C35.8044 15.7204 37.1574 16.5487 38.6608 16.702C39.3124 16.7688 39.7864 16.6928 40.126 16.5669C40.414 16.4607 40.6447 16.2621 40.792 16.0193C40.3228 15.0106 38.6191 15.0317 38.6191 15.0317C35.6554 14.9437 34.6163 13.225 34.4801 12.9748Z" fill="#F5B8AF"/>
</g>
<mask id="mask28_5_1123" style="mask-type:luminance" maskUnits="userSpaceOnUse" x="0" y="0" width="47" height="37">
<path d="M2.54198 -2.8022e-07C1.1382 -2.8022e-07 0 1.07818 0 2.40797V34.592C0 35.9218 1.1382 37 2.54198 37H44.458C45.862 37 47 35.9218 47 34.592V2.40797C47 1.07818 45.862 -2.8022e-07 44.458 -2.8022e-07H2.54198Z" fill="white"/>
</mask>
<g mask="url(#mask28_5_1123)">
<path d="M23.5192 5.30438C14.9194 5.30438 11.293 11.6439 9.80674 16.0946C8.81349 19.0689 10.0327 22.2909 12.8561 24.0551C13.0329 24.1655 13.2111 24.2726 13.3904 24.3765C19.5444 27.9374 27.494 27.9374 33.648 24.3765C33.8273 24.2726 34.0055 24.1655 34.1823 24.0551C37.0057 22.2909 38.2249 19.0689 37.2317 16.0946C35.7454 11.6439 32.119 5.30438 23.5192 5.30438Z" fill="white"/>
</g>
<mask id="mask29_5_1123" style="mask-type:luminance" maskUnits="userSpaceOnUse" x="0" y="0" width="47" height="37">
<path d="M2.54198 -2.8022e-07C1.1382 -2.8022e-07 0 1.07818 0 2.40797V34.592C0 35.9218 1.1382 37 2.54198 37H44.458C45.862 37 47 35.9218 47 34.592V2.40797C47 1.07818 45.862 -2.8022e-07 44.458 -2.8022e-07H2.54198Z" fill="white"/>
</mask>
<g mask="url(#mask29_5_1123)">
<path d="M23.5192 4.53513C19.4725 4.53513 16.0711 5.86839 13.4094 8.49803C11.5105 10.3738 10.038 12.8516 9.03246 15.8626C7.92113 19.1906 9.27812 22.741 12.409 24.6973C12.5907 24.8108 12.7784 24.9237 12.9673 25.0329C16.1142 26.8539 19.763 27.8165 23.5192 27.8165C27.2754 27.8165 30.9241 26.854 34.0711 25.0329C34.2601 24.9237 34.4479 24.8106 34.6294 24.6973C37.7603 22.741 39.1173 19.1906 38.0059 15.8626C37.0004 12.8516 35.5279 10.3738 33.629 8.49803C30.9673 5.86839 27.5659 4.53513 23.5192 4.53513ZM23.5192 5.30437C32.119 5.30437 35.7454 11.6439 37.2317 16.0946C38.2249 19.0689 37.0057 22.2909 34.1823 24.055C34.0055 24.1655 33.8273 24.2725 33.648 24.3764C30.571 26.157 27.0451 27.0473 23.5192 27.0473C19.9933 27.0473 16.4674 26.157 13.3904 24.3764C13.2111 24.2725 13.0329 24.1655 12.8561 24.055C10.0327 22.2909 8.81348 19.0689 9.80673 16.0946C11.293 11.6439 14.9194 5.30437 23.5192 5.30437Z" fill="#36190D"/>
</g>
<mask id="mask30_5_1123" style="mask-type:luminance" maskUnits="userSpaceOnUse" x="0" y="0" width="47" height="37">
<path d="M2.54198 -2.8022e-07C1.1382 -2.8022e-07 0 1.07818 0 2.40797V34.592C0 35.9218 1.1382 37 2.54198 37H44.458C45.862 37 47 35.9218 47 34.592V2.40797C47 1.07818 45.862 -2.8022e-07 44.458 -2.8022e-07H2.54198Z" fill="white"/>
</mask>
<g mask="url(#mask30_5_1123)">
<path d="M28.348 25.7241H27.5785H23.5192H19.4599H18.6904L18.6365 26.4515C18.5623 27.4528 19.1028 29.5644 21.6789 30.39C22.2715 30.5799 22.8906 30.6762 23.5192 30.6762C24.1476 30.6762 24.7669 30.5799 25.3595 30.39C27.9356 29.5644 28.476 27.4528 28.4019 26.4515L28.348 25.7241ZM27.5785 26.5062C27.5785 26.5062 27.7483 28.7988 25.095 29.6493C24.5854 29.8126 24.0522 29.8942 23.5192 29.8942C22.986 29.8942 22.453 29.8126 21.9434 29.6493C19.2901 28.7988 19.4599 26.5062 19.4599 26.5062H23.5192H27.5785Z" fill="#36190D"/>
</g>
<mask id="mask31_5_1123" style="mask-type:luminance" maskUnits="userSpaceOnUse" x="0" y="0" width="47" height="37">
<path d="M2.54198 -2.8022e-07C1.1382 -2.8022e-07 0 1.07818 0 2.40797V34.592C0 35.9218 1.1382 37 2.54198 37H44.458C45.862 37 47 35.9218 47 34.592V2.40797C47 1.07818 45.862 -2.8022e-07 44.458 -2.8022e-07H2.54198Z" fill="white"/>
</mask>
<g mask="url(#mask31_5_1123)">
<path d="M37.4892 17.1389C36.3973 17.4059 35.2251 17.55 34.0083 17.55C28.0183 17.55 23.1619 14.0625 23.1619 9.7619C23.1619 8.13408 23.8568 6.62314 25.0466 5.37474C32.5561 6.07557 35.8369 11.9174 37.2315 16.0952C37.3467 16.4396 37.4317 16.7884 37.4892 17.1389Z" fill="#995036"/>
</g>
<mask id="mask32_5_1123" style="mask-type:luminance" maskUnits="userSpaceOnUse" x="0" y="0" width="47" height="37">
<path d="M2.54198 -2.8022e-07C1.1382 -2.8022e-07 0 1.07818 0 2.40797V34.592C0 35.9218 1.1382 37 2.54198 37H44.458C45.862 37 47 35.9218 47 34.592V2.40797C47 1.07818 45.862 -2.8022e-07 44.458 -2.8022e-07H2.54198Z" fill="white"/>
</mask>
<g mask="url(#mask32_5_1123)">
<path d="M9.81071 4.12837C9.78494 4.31037 9.81089 4.5019 9.89717 4.67975L10.4062 5.72571L10.406 5.72727L12.42 9.87183C12.42 9.87183 15.1827 9.49552 16.1603 6.8787L15.6569 6.51002L11.5073 3.46754C11.1606 3.21211 10.6826 3.18804 10.3079 3.40346C10.0262 3.56659 9.8522 3.83674 9.81071 4.12837Z" fill="#C8BAB6"/>
</g>
<mask id="mask33_5_1123" style="mask-type:luminance" maskUnits="userSpaceOnUse" x="0" y="0" width="47" height="37">
<path d="M2.54198 -2.8022e-07C1.1382 -2.8022e-07 0 1.07818 0 2.40797V34.592C0 35.9218 1.1382 37 2.54198 37H44.458C45.862 37 47 35.9218 47 34.592V2.40797C47 1.07818 45.862 -2.8022e-07 44.458 -2.8022e-07H2.54198Z" fill="white"/>
</mask>
<g mask="url(#mask33_5_1123)">
<path d="M10.8591 2.48812C10.516 2.48812 10.1799 2.5773 9.88649 2.7458C9.40193 3.02652 9.08169 3.49253 9.00602 4.0259C8.95868 4.35908 9.01169 4.69625 9.15938 5.00086L9.58307 5.87175L9.66843 6.04891L11.6823 10.1936L11.9359 10.7151L12.5356 10.6333C12.6683 10.6153 15.7974 10.1561 16.9259 7.1354L17.1218 6.61068L16.657 6.27022L16.1536 5.90136L12.0042 2.85923C11.68 2.62025 11.2727 2.48812 10.8591 2.48812ZM10.8591 3.25736C11.0888 3.25736 11.3177 3.32801 11.5072 3.46759L15.657 6.51007L16.1604 6.87875C15.1828 9.49557 12.4201 9.87188 12.4201 9.87188L10.406 5.72732L10.4061 5.72577L9.89728 4.6798C9.811 4.50195 9.78487 4.31025 9.81064 4.12842C9.85213 3.83679 10.0261 3.56664 10.3078 3.40351C10.4776 3.30584 10.6686 3.25736 10.8591 3.25736Z" fill="#36190D"/>
</g>
<mask id="mask34_5_1123" style="mask-type:luminance" maskUnits="userSpaceOnUse" x="0" y="0" width="47" height="37">
<path d="M2.54198 -2.8022e-07C1.1382 -2.8022e-07 0 1.07818 0 2.40797V34.592C0 35.9218 1.1382 37 2.54198 37H44.458C45.862 37 47 35.9218 47 34.592V2.40797C47 1.07818 45.862 -2.8022e-07 44.458 -2.8022e-07H2.54198Z" fill="white"/>
</mask>
<g mask="url(#mask34_5_1123)">
<path d="M10.4059 5.72728L12.42 9.87201C12.42 9.87201 15.1828 9.49553 16.1604 6.87888L15.657 6.51003C12.0742 8.16556 10.4059 5.72728 10.4059 5.72728Z" fill="#C0ACA4"/>
</g>
<mask id="mask35_5_1123" style="mask-type:luminance" maskUnits="userSpaceOnUse" x="0" y="0" width="47" height="37">
<path d="M2.54198 -2.8022e-07C1.1382 -2.8022e-07 0 1.07818 0 2.40797V34.592C0 35.9218 1.1382 37 2.54198 37H44.458C45.862 37 47 35.9218 47 34.592V2.40797C47 1.07818 45.862 -2.8022e-07 44.458 -2.8022e-07H2.54198Z" fill="white"/>
</mask>
<g mask="url(#mask35_5_1123)">
<g opacity="0.300003">
<mask id="mask36_5_1123" style="mask-type:luminance" maskUnits="userSpaceOnUse" x="9" y="3" width="8" height="7">
<path d="M16.1607 6.87842L11.5077 3.46709C11.1603 3.21235 10.6828 3.18741 10.3079 3.40422C9.84951 3.66935 9.67313 4.21779 9.89777 4.67999L12.4204 9.87259C12.4204 9.87259 15.1832 9.49611 16.1607 6.87842Z" fill="white"/>
</mask>
<g mask="url(#mask36_5_1123)">
<path d="M15.2708 4.96423C15.2708 4.96423 13.6077 8.2469 10.0814 8.48502" stroke="#B7A19A" stroke-width="3.504" stroke-miterlimit="10"/>
</g>
<mask id="mask37_5_1123" style="mask-type:luminance" maskUnits="userSpaceOnUse" x="9" y="3" width="8" height="7">
<path d="M16.1607 6.87842L11.5077 3.46709C11.1603 3.21235 10.6828 3.18741 10.3079 3.40422C9.84951 3.66935 9.67313 4.21779 9.89777 4.67999L12.4204 9.87259C12.4204 9.87259 15.1832 9.49611 16.1607 6.87842Z" fill="white"/>
</mask>
<g mask="url(#mask37_5_1123)">
<path d="M13.8748 3.39078C13.8748 3.39078 12.2117 6.67345 8.68539 6.91156" stroke="#B7A19A" stroke-width="3.504" stroke-miterlimit="10"/>
</g>
</g>
</g>
<mask id="mask38_5_1123" style="mask-type:luminance" maskUnits="userSpaceOnUse" x="0" y="0" width="47" height="37">
<path d="M2.54198 -2.8022e-07C1.1382 -2.8022e-07 0 1.07818 0 2.40797V34.592C0 35.9218 1.1382 37 2.54198 37H44.458C45.862 37 47 35.9218 47 34.592V2.40797C47 1.07818 45.862 -2.8022e-07 44.458 -2.8022e-07H2.54198Z" fill="white"/>
</mask>
<g mask="url(#mask38_5_1123)">
<path d="M37.2277 4.12837C37.2534 4.31037 37.2275 4.5019 37.1412 4.67975L36.6322 5.72571L36.6323 5.72727L34.6184 9.87183C34.6184 9.87183 31.8556 9.49552 30.8781 6.8787L31.3815 6.51002L35.5311 3.46754C35.8778 3.21211 36.3558 3.18804 36.7305 3.40346C37.0122 3.56659 37.1862 3.83674 37.2277 4.12837Z" fill="#C8BAB6"/>
</g>
<mask id="mask39_5_1123" style="mask-type:luminance" maskUnits="userSpaceOnUse" x="0" y="0" width="47" height="37">
<path d="M2.54198 -2.8022e-07C1.1382 -2.8022e-07 0 1.07818 0 2.40797V34.592C0 35.9218 1.1382 37 2.54198 37H44.458C45.862 37 47 35.9218 47 34.592V2.40797C47 1.07818 45.862 -2.8022e-07 44.458 -2.8022e-07H2.54198Z" fill="white"/>
</mask>
<g mask="url(#mask39_5_1123)">
<path d="M36.1794 2.48812C35.7655 2.48812 35.3585 2.62025 35.0326 2.86044L30.8845 5.90154L30.3814 6.27022L29.9166 6.61068L30.1126 7.1354C31.2411 10.1561 34.3702 10.6153 34.5029 10.6333L35.1026 10.7151L35.3559 10.1936L37.37 6.04891L37.4671 5.84941L37.4669 5.84803L37.8785 5.00173C38.0268 4.69625 38.0798 4.35908 38.0324 4.02573C37.9567 3.49253 37.6365 3.02652 37.154 2.74701C36.8586 2.5773 36.5223 2.48812 36.1794 2.48812ZM36.1794 3.25736C36.3696 3.25736 36.5606 3.30584 36.7305 3.40351C37.0121 3.56664 37.1863 3.83679 37.2276 4.12842C37.2536 4.31025 37.2274 4.50195 37.1412 4.6798L36.6323 5.72577L36.6325 5.72732L34.6184 9.87188C34.6184 9.87188 31.8556 9.49557 30.8781 6.87875L31.3815 6.51007L35.5312 3.46759C35.7208 3.32801 35.9496 3.25736 36.1794 3.25736Z" fill="#36190D"/>
</g>
<mask id="mask40_5_1123" style="mask-type:luminance" maskUnits="userSpaceOnUse" x="0" y="0" width="47" height="37">
<path d="M2.54198 -2.8022e-07C1.1382 -2.8022e-07 0 1.07818 0 2.40797V34.592C0 35.9218 1.1382 37 2.54198 37H44.458C45.862 37 47 35.9218 47 34.592V2.40797C47 1.07818 45.862 -2.8022e-07 44.458 -2.8022e-07H2.54198Z" fill="white"/>
</mask>
<g mask="url(#mask40_5_1123)">
<path d="M36.6324 5.72728L34.6183 9.87201C34.6183 9.87201 31.8556 9.49553 30.878 6.87888L31.3814 6.51003C34.9642 8.16556 36.6324 5.72728 36.6324 5.72728Z" fill="#C0ACA4"/>
</g>
<mask id="mask41_5_1123" style="mask-type:luminance" maskUnits="userSpaceOnUse" x="0" y="0" width="47" height="37">
<path d="M2.54198 -2.8022e-07C1.1382 -2.8022e-07 0 1.07818 0 2.40797V34.592C0 35.9218 1.1382 37 2.54198 37H44.458C45.862 37 47 35.9218 47 34.592V2.40797C47 1.07818 45.862 -2.8022e-07 44.458 -2.8022e-07H2.54198Z" fill="white"/>
</mask>
<g mask="url(#mask41_5_1123)">
<g opacity="0.300003">
<mask id="mask42_5_1123" style="mask-type:luminance" maskUnits="userSpaceOnUse" x="30" y="3" width="8" height="7">
<path d="M30.8777 6.87842L35.5307 3.46709C35.8781 3.21235 36.3556 3.18741 36.7305 3.40422C37.1889 3.66935 37.3653 4.21779 37.1406 4.67999L34.618 9.87259C34.618 9.87259 31.8552 9.49611 30.8777 6.87842Z" fill="white"/>
</mask>
<g mask="url(#mask42_5_1123)">
<path d="M31.7676 4.96423C31.7676 4.96423 33.4308 8.2469 36.957 8.48502" stroke="#B7A19A" stroke-width="3.504" stroke-miterlimit="10"/>
</g>
<mask id="mask43_5_1123" style="mask-type:luminance" maskUnits="userSpaceOnUse" x="30" y="3" width="8" height="7">
<path d="M30.8777 6.87842L35.5307 3.46709C35.8781 3.21235 36.3556 3.18741 36.7305 3.40422C37.1889 3.66935 37.3653 4.21779 37.1406 4.67999L34.618 9.87259C34.618 9.87259 31.8552 9.49611 30.8777 6.87842Z" fill="white"/>
</mask>
<g mask="url(#mask43_5_1123)">
<path d="M33.1636 3.39078C33.1636 3.39078 34.8267 6.67345 38.353 6.91156" stroke="#B7A19A" stroke-width="3.504" stroke-miterlimit="10"/>
</g>
</g>
</g>
<mask id="mask44_5_1123" style="mask-type:luminance" maskUnits="userSpaceOnUse" x="0" y="0" width="47" height="37">
<path d="M2.54198 -2.8022e-07C1.1382 -2.8022e-07 0 1.07818 0 2.40797V34.592C0 35.9218 1.1382 37 2.54198 37H44.458C45.862 37 47 35.9218 47 34.592V2.40797C47 1.07818 45.862 -2.8022e-07 44.458 -2.8022e-07H2.54198Z" fill="white"/>
</mask>
<g mask="url(#mask44_5_1123)">
<path d="M20.1153 12.9748C20.1153 14.356 19.1138 15.4756 17.8784 15.4756C16.643 15.4756 15.6413 14.356 15.6413 12.9748C15.6413 11.5935 16.643 10.474 17.8784 10.474C19.1138 10.474 20.1153 11.5935 20.1153 12.9748Z" fill="#36190D"/>
</g>
<mask id="mask45_5_1123" style="mask-type:luminance" maskUnits="userSpaceOnUse" x="0" y="0" width="47" height="37">
<path d="M2.54198 -2.8022e-07C1.1382 -2.8022e-07 0 1.07818 0 2.40797V34.592C0 35.9218 1.1382 37 2.54198 37H44.458C45.862 37 47 35.9218 47 34.592V2.40797C47 1.07818 45.862 -2.8022e-07 44.458 -2.8022e-07H2.54198Z" fill="white"/>
</mask>
<g mask="url(#mask45_5_1123)">
<path d="M19.483 12.0313C19.483 12.5524 19.0372 12.9748 18.4872 12.9748C17.9372 12.9748 17.4914 12.5524 17.4914 12.0313C17.4914 11.5102 17.9372 11.0879 18.4872 11.0879C19.0372 11.0879 19.483 11.5102 19.483 12.0313Z" fill="white"/>
</g>
<mask id="mask46_5_1123" style="mask-type:luminance" maskUnits="userSpaceOnUse" x="0" y="0" width="47" height="37">
<path d="M2.54198 -2.8022e-07C1.1382 -2.8022e-07 0 1.07818 0 2.40797V34.592C0 35.9218 1.1382 37 2.54198 37H44.458C45.862 37 47 35.9218 47 34.592V2.40797C47 1.07818 45.862 -2.8022e-07 44.458 -2.8022e-07H2.54198Z" fill="white"/>
</mask>
<g mask="url(#mask46_5_1123)">
<path d="M26.9231 12.9748C26.9231 14.356 27.9246 15.4756 29.16 15.4756C30.3954 15.4756 31.3971 14.356 31.3971 12.9748C31.3971 11.5935 30.3954 10.474 29.16 10.474C27.9246 10.474 26.9231 11.5935 26.9231 12.9748Z" fill="#36190D"/>
</g>
<mask id="mask47_5_1123" style="mask-type:luminance" maskUnits="userSpaceOnUse" x="0" y="0" width="47" height="37">
<path d="M2.54198 -2.8022e-07C1.1382 -2.8022e-07 0 1.07818 0 2.40797V34.592C0 35.9218 1.1382 37 2.54198 37H44.458C45.862 37 47 35.9218 47 34.592V2.40797C47 1.07818 45.862 -2.8022e-07 44.458 -2.8022e-07H2.54198Z" fill="white"/>
</mask>
<g mask="url(#mask47_5_1123)">
<path d="M27.5554 12.0313C27.5554 12.5524 28.0012 12.9748 28.5512 12.9748C29.1012 12.9748 29.547 12.5524 29.547 12.0313C29.547 11.5102 29.1012 11.0879 28.5512 11.0879C28.0012 11.0879 27.5554 11.5102 27.5554 12.0313Z" fill="white"/>
</g>
<mask id="mask48_5_1123" style="mask-type:luminance" maskUnits="userSpaceOnUse" x="0" y="0" width="47" height="37">
<path d="M2.54198 -2.8022e-07C1.1382 -2.8022e-07 0 1.07818 0 2.40797V34.592C0 35.9218 1.1382 37 2.54198 37H44.458C45.862 37 47 35.9218 47 34.592V2.40797C47 1.07818 45.862 -2.8022e-07 44.458 -2.8022e-07H2.54198Z" fill="white"/>
</mask>
<g mask="url(#mask48_5_1123)">
<path d="M27.5785 26.5062H23.5192H19.4599C19.4599 26.5062 19.2901 28.799 21.9434 29.6493C22.9626 29.9759 24.0758 29.9759 25.095 29.6493C27.7483 28.799 27.5785 26.5062 27.5785 26.5062Z" fill="#FFCCC2"/>
</g>
<mask id="mask49_5_1123" style="mask-type:luminance" maskUnits="userSpaceOnUse" x="0" y="0" width="47" height="37">
<path d="M2.54198 -2.8022e-07C1.1382 -2.8022e-07 0 1.07818 0 2.40797V34.592C0 35.9218 1.1382 37 2.54198 37H44.458C45.862 37 47 35.9218 47 34.592V2.40797C47 1.07818 45.862 -2.8022e-07 44.458 -2.8022e-07H2.54198Z" fill="white"/>
</mask>
<g mask="url(#mask49_5_1123)">
<path d="M25.4884 28.1491C25.422 28.2047 25.3482 28.2569 25.2687 28.3088C25.0793 28.4307 24.8521 28.5402 24.5814 28.6264C23.8941 28.847 23.1442 28.847 22.4569 28.6264C22.1862 28.5402 21.9588 28.4307 21.7695 28.3088C21.6899 28.2569 21.6161 28.2047 21.5499 28.1491C20.7091 27.462 20.7811 26.5059 20.7811 26.5059H26.2572C26.2572 26.5059 26.329 27.462 25.4884 28.1491Z" fill="#36190D"/>
</g>
<mask id="mask50_5_1123" style="mask-type:luminance" maskUnits="userSpaceOnUse" x="0" y="0" width="47" height="37">
<path d="M2.54198 -2.8022e-07C1.1382 -2.8022e-07 0 1.07818 0 2.40797V34.592C0 35.9218 1.1382 37 2.54198 37H44.458C45.862 37 47 35.9218 47 34.592V2.40797C47 1.07818 45.862 -2.8022e-07 44.458 -2.8022e-07H2.54198Z" fill="white"/>
</mask>
<g mask="url(#mask50_5_1123)">
<path d="M27.8358 16.2201C25.419 16.5464 23.5192 18.0125 23.5192 18.0125C23.5192 18.0125 21.6193 16.5464 19.2025 16.2201C15.9616 15.7827 13.1639 18.3024 13.3661 21.3982C13.5397 24.0581 15.4081 27.316 23.5192 27.316C31.6304 27.316 33.4988 24.0581 33.6725 21.3982C33.8746 18.3024 31.0769 15.7827 27.8358 16.2201Z" fill="#FFCCC2"/>
</g>
<mask id="mask51_5_1123" style="mask-type:luminance" maskUnits="userSpaceOnUse" x="0" y="0" width="47" height="37">
<path d="M2.54198 -2.8022e-07C1.1382 -2.8022e-07 0 1.07818 0 2.40797V34.592C0 35.9218 1.1382 37 2.54198 37H44.458C45.862 37 47 35.9218 47 34.592V2.40797C47 1.07818 45.862 -2.8022e-07 44.458 -2.8022e-07H2.54198Z" fill="white"/>
</mask>
<g mask="url(#mask51_5_1123)">
<path d="M21.2628 18.1685C21.5679 19.3624 20.2999 20.6778 18.4307 21.1064C16.5616 21.5352 14.799 20.915 14.4937 19.7212C14.1889 18.5273 15.4566 17.2119 17.326 16.7831C19.1951 16.3545 20.9577 16.9747 21.2628 18.1685Z" fill="#FFD4CC"/>
</g>
<mask id="mask52_5_1123" style="mask-type:luminance" maskUnits="userSpaceOnUse" x="0" y="0" width="47" height="37">
<path d="M2.54198 -2.8022e-07C1.1382 -2.8022e-07 0 1.07818 0 2.40797V34.592C0 35.9218 1.1382 37 2.54198 37H44.458C45.862 37 47 35.9218 47 34.592V2.40797C47 1.07818 45.862 -2.8022e-07 44.458 -2.8022e-07H2.54198Z" fill="white"/>
</mask>
<g mask="url(#mask52_5_1123)">
<path d="M25.7756 18.1685C25.4705 19.3624 26.7385 20.6778 28.6076 21.1064C30.4768 21.5352 32.2394 20.915 32.5446 19.7212C32.8497 18.5273 31.5817 17.2119 29.7124 16.7831C27.8432 16.3545 26.0807 16.9747 25.7756 18.1685Z" fill="#FFD4CC"/>
</g>
<mask id="mask53_5_1123" style="mask-type:luminance" maskUnits="userSpaceOnUse" x="0" y="0" width="47" height="37">
<path d="M2.54198 -2.8022e-07C1.1382 -2.8022e-07 0 1.07818 0 2.40797V34.592C0 35.9218 1.1382 37 2.54198 37H44.458C45.862 37 47 35.9218 47 34.592V2.40797C47 1.07818 45.862 -2.8022e-07 44.458 -2.8022e-07H2.54198Z" fill="white"/>
</mask>
<g mask="url(#mask53_5_1123)">
<path d="M20.195 19.1731C20.195 19.2672 20.1853 19.3597 20.1694 19.4478C20.0493 20.0605 19.5384 20.5218 18.9268 20.5218C18.3153 20.5218 17.8044 20.0605 17.6843 19.4478C17.6684 19.3597 17.6587 19.2672 17.6587 19.1731C17.6587 18.4283 18.2271 17.8245 18.9268 17.8245C19.6265 17.8245 20.195 18.4283 20.195 19.1731Z" fill="#582B1C"/>
</g>
<mask id="mask54_5_1123" style="mask-type:luminance" maskUnits="userSpaceOnUse" x="0" y="0" width="47" height="37">
<path d="M2.54198 -2.8022e-07C1.1382 -2.8022e-07 0 1.07818 0 2.40797V34.592C0 35.9218 1.1382 37 2.54198 37H44.458C45.862 37 47 35.9218 47 34.592V2.40797C47 1.07818 45.862 -2.8022e-07 44.458 -2.8022e-07H2.54198Z" fill="white"/>
</mask>
<g mask="url(#mask54_5_1123)">
<path d="M20.1694 19.4477C20.0493 20.0606 19.5386 20.5218 18.9268 20.5218C18.3152 20.5218 17.8045 20.0606 17.6844 19.4477C17.8045 18.8349 18.3152 18.3737 18.9268 18.3737C19.5386 18.3737 20.0493 18.8349 20.1694 19.4477Z" fill="#36190D"/>
</g>
<mask id="mask55_5_1123" style="mask-type:luminance" maskUnits="userSpaceOnUse" x="0" y="0" width="47" height="37">
<path d="M2.54198 -2.8022e-07C1.1382 -2.8022e-07 0 1.07818 0 2.40797V34.592C0 35.9218 1.1382 37 2.54198 37H44.458C45.862 37 47 35.9218 47 34.592V2.40797C47 1.07818 45.862 -2.8022e-07 44.458 -2.8022e-07H2.54198Z" fill="white"/>
</mask>
<g mask="url(#mask55_5_1123)">
<path d="M26.8434 19.1731C26.8434 19.2672 26.8531 19.3597 26.869 19.4478C26.9891 20.0605 27.4999 20.5218 28.1115 20.5218C28.7231 20.5218 29.234 20.0605 29.3541 19.4478C29.37 19.3597 29.3797 19.2672 29.3797 19.1731C29.3797 18.4283 28.8112 17.8245 28.1115 17.8245C27.4118 17.8245 26.8434 18.4283 26.8434 19.1731Z" fill="#582B1C"/>
</g>
<mask id="mask56_5_1123" style="mask-type:luminance" maskUnits="userSpaceOnUse" x="0" y="0" width="47" height="37">
<path d="M2.54198 -2.8022e-07C1.1382 -2.8022e-07 0 1.07818 0 2.40797V34.592C0 35.9218 1.1382 37 2.54198 37H44.458C45.862 37 47 35.9218 47 34.592V2.40797C47 1.07818 45.862 -2.8022e-07 44.458 -2.8022e-07H2.54198Z" fill="white"/>
</mask>
<g mask="url(#mask56_5_1123)">
<path d="M26.869 19.4477C26.9891 20.0606 27.4998 20.5218 28.1116 20.5218C28.7232 20.5218 29.2339 20.0606 29.354 19.4477C29.2339 18.8349 28.7232 18.3737 28.1116 18.3737C27.4998 18.3737 26.9891 18.8349 26.869 19.4477Z" fill="#36190D"/>
</g>
<mask id="mask57_5_1123" style="mask-type:luminance" maskUnits="userSpaceOnUse" x="0" y="0" width="47" height="37">
<path d="M2.54198 -2.8022e-07C1.1382 -2.8022e-07 0 1.07818 0 2.40797V34.592C0 35.9218 1.1382 37 2.54198 37H44.458C45.862 37 47 35.9218 47 34.592V2.40797C47 1.07818 45.862 -2.8022e-07 44.458 -2.8022e-07H2.54198Z" fill="white"/>
</mask>
<g mask="url(#mask57_5_1123)">
<path d="M25.2687 28.3088C25.0794 28.4307 24.8522 28.5402 24.5815 28.6262C23.894 28.847 23.1442 28.847 22.4568 28.6262C22.1861 28.5402 21.9589 28.4307 21.7695 28.3088C22.1312 27.9644 22.7807 27.7384 23.5191 27.7384C24.2576 27.7384 24.907 27.9644 25.2687 28.3088Z" fill="#FF2530"/>
</g>
<mask id="mask58_5_1123" style="mask-type:luminance" maskUnits="userSpaceOnUse" x="0" y="0" width="47" height="37">
<path d="M2.54198 -2.8022e-07C1.1382 -2.8022e-07 0 1.07818 0 2.40797V34.592C0 35.9218 1.1382 37 2.54198 37H44.458C45.862 37 47 35.9218 47 34.592V2.40797C47 1.07818 45.862 -2.8022e-07 44.458 -2.8022e-07H2.54198Z" fill="white"/>
</mask>
<g mask="url(#mask58_5_1123)">
<path d="M34.9041 15.1204C34.9041 15.7757 34.119 16.3069 33.1506 16.3069C32.1822 16.3069 31.3972 15.7757 31.3972 15.1204C31.3972 14.4651 32.1822 13.9338 33.1506 13.9338C34.119 13.9338 34.9041 14.4651 34.9041 15.1204Z" fill="#FFB1B1"/>
</g>
<mask id="mask59_5_1123" style="mask-type:luminance" maskUnits="userSpaceOnUse" x="0" y="0" width="47" height="37">
<path d="M2.54198 -2.8022e-07C1.1382 -2.8022e-07 0 1.07818 0 2.40797V34.592C0 35.9218 1.1382 37 2.54198 37H44.458C45.862 37 47 35.9218 47 34.592V2.40797C47 1.07818 45.862 -2.8022e-07 44.458 -2.8022e-07H2.54198Z" fill="white"/>
</mask>
<g mask="url(#mask59_5_1123)">
<path d="M12.1343 15.1204C12.1343 15.7757 12.9194 16.3069 13.8878 16.3069C14.8562 16.3069 15.6412 15.7757 15.6412 15.1204C15.6412 14.4651 14.8562 13.9338 13.8878 13.9338C12.9194 13.9338 12.1343 14.4651 12.1343 15.1204Z" fill="#FFB1B1"/>
</g>
<path d="M33.4666 30.9296C33.4666 30.9296 33.1362 29.402 32.4847 27.7151C32.4847 27.7151 33.5878 28.8762 34.3058 30.9966L33.4666 30.9296Z" fill="#36190D"/>
</svg>
