<svg width="257" height="236" viewBox="0 0 257 236" fill="none" xmlns="http://www.w3.org/2000/svg">
<path d="M11.968 228.928L12.256 228.72C12.6187 228.507 12.8747 228.4 13.024 228.4C13.3547 228.4 13.712 228.699 14.096 229.296C14.3307 229.669 14.448 229.968 14.448 230.192C14.448 230.416 14.3733 230.603 14.224 230.752C14.0853 230.901 13.92 231.035 13.728 231.152C13.536 231.269 13.3493 231.381 13.168 231.488C12.9973 231.595 12.64 231.733 12.096 231.904C11.552 232.075 11.024 232.16 10.512 232.16C10.0107 232.16 9.49867 232.096 8.976 231.968C8.464 231.829 7.93067 231.605 7.376 231.296C6.832 230.976 6.34133 230.592 5.904 230.144C5.46667 229.685 5.104 229.104 4.816 228.4C4.53867 227.685 4.4 226.912 4.4 226.08C4.4 225.248 4.53867 224.496 4.816 223.824C5.09333 223.141 5.44533 222.581 5.872 222.144C6.30933 221.696 6.80533 221.323 7.36 221.024C8.40533 220.448 9.456 220.16 10.512 220.16C11.0133 220.16 11.52 220.24 12.032 220.4C12.5547 220.549 12.9493 220.704 13.216 220.864L13.6 221.088C13.792 221.205 13.9413 221.301 14.048 221.376C14.3253 221.6 14.464 221.856 14.464 222.144C14.464 222.421 14.352 222.715 14.128 223.024C13.712 223.6 13.3387 223.888 13.008 223.888C12.816 223.888 12.544 223.771 12.192 223.536C11.744 223.173 11.1467 222.992 10.4 222.992C9.70667 222.992 9.024 223.232 8.352 223.712C8.032 223.947 7.76533 224.277 7.552 224.704C7.33867 225.131 7.232 225.616 7.232 226.16C7.232 226.693 7.33867 227.173 7.552 227.6C7.76533 228.027 8.03733 228.363 8.368 228.608C9.01867 229.077 9.696 229.312 10.4 229.312C10.7307 229.312 11.04 229.269 11.328 229.184C11.6267 229.099 11.84 229.013 11.968 228.928ZM15.2594 227.792C15.2594 226.512 15.7074 225.456 16.6034 224.624C17.4994 223.792 18.5234 223.376 19.6754 223.376C20.8274 223.376 21.846 223.792 22.7314 224.624C23.6167 225.445 24.0594 226.496 24.0594 227.776C24.0594 228.661 23.83 229.451 23.3714 230.144C22.9127 230.827 22.3527 231.333 21.6914 231.664C21.0407 231.984 20.3634 232.144 19.6594 232.144C18.9554 232.144 18.2727 231.973 17.6114 231.632C16.95 231.28 16.39 230.768 15.9314 230.096C15.4834 229.413 15.2594 228.645 15.2594 227.792ZM18.6034 228.944C18.9447 229.2 19.2914 229.328 19.6434 229.328C19.9954 229.328 20.3474 229.195 20.6994 228.928C21.0514 228.661 21.2274 228.267 21.2274 227.744C21.2274 227.221 21.062 226.832 20.7314 226.576C20.4007 226.32 20.0434 226.192 19.6594 226.192C19.2754 226.192 18.918 226.325 18.5874 226.592C18.2567 226.859 18.0914 227.253 18.0914 227.776C18.0914 228.288 18.262 228.677 18.6034 228.944ZM27.8451 224.688C28.3465 223.931 28.9491 223.552 29.6531 223.552C30.7411 223.552 31.5518 224.016 32.0851 224.944C32.2025 224.784 32.3411 224.619 32.5011 224.448C32.6718 224.267 32.9385 224.075 33.3011 223.872C33.6638 223.659 34.0371 223.552 34.4211 223.552C35.2745 223.552 35.9891 223.883 36.5651 224.544C37.1411 225.195 37.4291 226.277 37.4291 227.792V230.592C37.4291 230.837 37.4185 231.024 37.3971 231.152C37.3865 231.269 37.3385 231.408 37.2531 231.568C37.1145 231.856 36.7038 232 36.0211 232C35.3491 232 34.9385 231.851 34.7891 231.552C34.7145 231.392 34.6665 231.253 34.6451 231.136C34.6345 231.008 34.6291 230.821 34.6291 230.576V227.776C34.6291 226.848 34.2985 226.384 33.6371 226.384C33.2638 226.384 33.0078 226.507 32.8691 226.752C32.7411 226.997 32.6771 227.344 32.6771 227.792V230.592C32.6771 230.848 32.6665 231.035 32.6451 231.152C32.6345 231.269 32.5865 231.408 32.5011 231.568C32.3518 231.856 31.9358 232 31.2531 232C30.5811 232 30.1705 231.851 30.0211 231.552C29.9465 231.392 29.8985 231.253 29.8771 231.136C29.8665 231.008 29.8611 230.821 29.8611 230.576V227.776C29.8611 226.848 29.5305 226.384 28.8691 226.384C28.2291 226.384 27.9091 226.848 27.9091 227.776V230.608C27.9091 230.853 27.8985 231.04 27.8771 231.168C27.8665 231.285 27.8185 231.424 27.7331 231.584C27.5731 231.861 27.1571 232 26.4851 232C25.8131 232 25.4025 231.856 25.2531 231.568C25.1785 231.408 25.1305 231.269 25.1091 231.152C25.0985 231.035 25.0931 230.848 25.0931 230.592V224.96C25.0931 224.715 25.0985 224.533 25.1091 224.416C25.1305 224.288 25.1838 224.149 25.2691 224C25.4291 223.712 25.8078 223.568 26.4051 223.568C27.0025 223.568 27.3918 223.664 27.5731 223.856C27.7545 224.048 27.8451 224.325 27.8451 224.688ZM38.7025 234.288V224.944C38.7025 224.699 38.7078 224.517 38.7185 224.4C38.7398 224.283 38.7878 224.149 38.8625 224C39.0118 223.712 39.3692 223.568 39.9345 223.568C40.4998 223.568 40.8785 223.643 41.0705 223.792C41.2732 223.931 41.3905 224.139 41.4225 224.416C41.8278 223.861 42.4625 223.584 43.3265 223.584C44.2012 223.584 45.0278 223.995 45.8065 224.816C46.5852 225.637 46.9745 226.592 46.9745 227.68C46.9745 228.768 46.5852 229.723 45.8065 230.544C45.0385 231.365 44.2172 231.776 43.3425 231.776C42.4678 231.776 41.8332 231.531 41.4385 231.04V234.272C41.4385 234.517 41.4278 234.699 41.4065 234.816C41.3958 234.933 41.3478 235.067 41.2625 235.216C41.1878 235.376 41.0545 235.488 40.8625 235.552C40.6705 235.616 40.4092 235.648 40.0785 235.648C39.7478 235.648 39.4812 235.616 39.2785 235.552C39.0865 235.488 38.9478 235.381 38.8625 235.232C38.7878 235.083 38.7398 234.949 38.7185 234.832C38.7078 234.715 38.7025 234.533 38.7025 234.288ZM41.8705 226.752C41.6252 227.04 41.5025 227.355 41.5025 227.696C41.5025 228.037 41.6252 228.352 41.8705 228.64C42.1265 228.917 42.4465 229.056 42.8305 229.056C43.2252 229.056 43.5558 228.917 43.8225 228.64C44.0998 228.363 44.2385 228.048 44.2385 227.696C44.2385 227.344 44.1105 227.029 43.8545 226.752C43.5985 226.464 43.2625 226.32 42.8465 226.32C42.4412 226.32 42.1158 226.464 41.8705 226.752ZM53.487 224.464C53.551 223.867 53.9723 223.568 54.751 223.568C55.167 223.568 55.4763 223.6 55.679 223.664C55.8817 223.728 56.0203 223.84 56.095 224C56.1803 224.16 56.2283 224.304 56.239 224.432C56.2603 224.549 56.271 224.731 56.271 224.976V230.576C56.271 230.821 56.2603 231.008 56.239 231.136C56.2283 231.253 56.1857 231.392 56.111 231.552C55.9617 231.829 55.5937 231.968 55.007 231.968C54.431 231.968 54.0417 231.899 53.839 231.76C53.647 231.611 53.535 231.397 53.503 231.12C53.1083 231.685 52.447 231.968 51.519 231.968C50.6017 231.968 49.7483 231.547 48.959 230.704C48.1697 229.861 47.775 228.885 47.775 227.776C47.775 226.656 48.1697 225.68 48.959 224.848C49.759 224.005 50.6337 223.584 51.583 223.584C51.9457 223.584 52.2763 223.648 52.575 223.776C52.8737 223.904 53.0817 224.027 53.199 224.144C53.3163 224.251 53.4123 224.357 53.487 224.464ZM50.575 227.792C50.575 228.144 50.7137 228.464 50.991 228.752C51.2683 229.029 51.6043 229.168 51.999 229.168C52.3937 229.168 52.719 229.024 52.975 228.736C53.2417 228.448 53.375 228.133 53.375 227.792C53.375 227.44 53.247 227.115 52.991 226.816C52.7457 226.517 52.4097 226.368 51.983 226.368C51.567 226.368 51.2257 226.517 50.959 226.816C50.703 227.115 50.575 227.44 50.575 227.792ZM63.2743 223.664C63.4769 223.728 63.6423 223.84 63.7703 224C63.9089 224.149 63.9783 224.395 63.9783 224.736C63.9783 225.077 63.8769 225.451 63.6743 225.856C63.4716 226.261 63.1783 226.464 62.7943 226.464C62.6023 226.464 62.4156 226.421 62.2343 226.336C62.0636 226.251 61.8343 226.208 61.5463 226.208C61.2583 226.208 60.9863 226.309 60.7303 226.512C60.4849 226.715 60.3623 226.96 60.3623 227.248V230.608C60.3623 230.853 60.3516 231.04 60.3303 231.168C60.3196 231.285 60.2716 231.424 60.1863 231.584C60.0263 231.861 59.6103 232 58.9383 232C58.4263 232 58.0583 231.909 57.8343 231.728C57.6636 231.579 57.5676 231.349 57.5463 231.04C57.5463 230.933 57.5463 230.779 57.5463 230.576V224.96C57.5463 224.715 57.5516 224.533 57.5623 224.416C57.5836 224.288 57.6316 224.149 57.7063 224C57.8556 223.712 58.2716 223.568 58.9543 223.568C59.5943 223.568 59.9943 223.691 60.1543 223.936C60.2716 224.107 60.3303 224.283 60.3303 224.464C60.3836 224.389 60.4583 224.299 60.5543 224.192C60.6609 224.085 60.8796 223.941 61.2103 223.76C61.5409 223.579 61.8289 223.488 62.0743 223.488C62.3303 223.488 62.5436 223.504 62.7143 223.536C62.8849 223.557 63.0716 223.6 63.2743 223.664ZM69.7548 226.4L68.7148 226.336V228.544C68.7148 228.832 68.7574 229.04 68.8428 229.168C68.9388 229.296 69.1094 229.36 69.3548 229.36C69.6108 229.36 69.8028 229.371 69.9308 229.392C70.0694 229.403 70.2134 229.451 70.3628 229.536C70.6081 229.675 70.7308 230.032 70.7308 230.608C70.7308 231.28 70.5814 231.691 70.2828 231.84C70.1228 231.915 69.9788 231.963 69.8508 231.984C69.7334 231.995 69.5574 232 69.3228 232C68.2134 232 67.3708 231.749 66.7948 231.248C66.2188 230.747 65.9308 229.899 65.9308 228.704V226.336C65.7281 226.368 65.5094 226.384 65.2747 226.384C65.0401 226.384 64.8428 226.293 64.6828 226.112C64.5334 225.931 64.4588 225.621 64.4588 225.184C64.4588 224.747 64.4854 224.432 64.5388 224.24C64.5921 224.037 64.6668 223.893 64.7628 223.808C64.9334 223.669 65.1468 223.6 65.4028 223.6L65.9308 223.664V222.016C65.9308 221.771 65.9361 221.589 65.9468 221.472C65.9681 221.355 66.0214 221.227 66.1068 221.088C66.2454 220.821 66.6561 220.688 67.3388 220.688C68.0641 220.688 68.4961 220.885 68.6348 221.28C68.6881 221.451 68.7148 221.723 68.7148 222.096V223.664C69.1841 223.621 69.5361 223.6 69.7708 223.6C70.0161 223.6 70.1974 223.611 70.3148 223.632C70.4428 223.643 70.5868 223.691 70.7468 223.776C71.0241 223.915 71.1628 224.325 71.1628 225.008C71.1628 225.68 71.0188 226.091 70.7308 226.24C70.5708 226.315 70.4268 226.363 70.2988 226.384C70.1814 226.395 70.0001 226.4 69.7548 226.4ZM79.8618 226.784C79.8618 227.435 79.6964 227.92 79.3658 228.24C79.0458 228.549 78.6884 228.704 78.2938 228.704H74.5018C74.5018 229.003 74.6778 229.253 75.0298 229.456C75.3818 229.659 75.7338 229.76 76.0858 229.76C76.7044 229.76 77.1898 229.696 77.5418 229.568L77.7178 229.504C77.9738 229.387 78.1871 229.328 78.3578 229.328C78.6991 229.328 78.9924 229.568 79.2378 230.048C79.3764 230.336 79.4458 230.581 79.4458 230.784C79.4458 231.733 78.3098 232.208 76.0378 232.208C75.2484 232.208 74.5444 232.075 73.9258 231.808C73.3178 231.531 72.8431 231.168 72.5018 230.72C71.8298 229.856 71.4938 228.891 71.4938 227.824C71.4938 226.48 71.9258 225.408 72.7898 224.608C73.6644 223.797 74.7524 223.392 76.0538 223.392C77.5364 223.392 78.6244 223.915 79.3177 224.96C79.6804 225.515 79.8618 226.123 79.8618 226.784ZM76.4858 227.248C76.8911 227.248 77.0938 227.077 77.0938 226.736C77.0938 226.491 76.9978 226.293 76.8058 226.144C76.6244 225.995 76.3578 225.92 76.0058 225.92C75.6644 225.92 75.3231 226.064 74.9818 226.352C74.6404 226.629 74.4698 226.928 74.4698 227.248H76.4858ZM90.2965 230.944C89.8912 231.477 89.2458 231.744 88.3605 231.744C87.4752 231.744 86.6432 231.339 85.8645 230.528C85.0965 229.707 84.7125 228.752 84.7125 227.664C84.7125 226.576 85.1018 225.621 85.8805 224.8C86.6592 223.979 87.5125 223.568 88.4405 223.568C88.8032 223.568 89.1338 223.637 89.4325 223.776C89.7312 223.904 89.9338 224.027 90.0405 224.144C90.1578 224.251 90.2485 224.352 90.3125 224.448C90.3445 224.149 90.4512 223.925 90.6325 223.776C90.8245 223.616 91.1285 223.536 91.5445 223.536C91.9605 223.536 92.2645 223.568 92.4565 223.632C92.6485 223.696 92.7818 223.808 92.8565 223.968C92.9418 224.117 92.9898 224.251 93.0005 224.368C93.0218 224.485 93.0325 224.667 93.0325 224.912V231.536C93.0325 232.763 92.6058 233.749 91.7525 234.496C90.8992 235.253 89.9392 235.632 88.8725 235.632C88.0618 235.632 87.2885 235.435 86.5525 235.04C85.8165 234.645 85.4485 234.288 85.4485 233.968C85.4485 233.552 85.6085 233.184 85.9285 232.864C86.1312 232.64 86.2858 232.485 86.3925 232.4C86.5098 232.315 86.6432 232.272 86.7925 232.272C86.9418 232.272 87.0965 232.336 87.2565 232.464C87.7685 232.859 88.3232 233.056 88.9205 233.056C89.3258 233.056 89.6565 232.896 89.9125 232.576C90.1685 232.256 90.2965 231.872 90.2965 231.424V230.944ZM87.4485 227.68C87.4485 228.021 87.5818 228.331 87.8485 228.608C88.1258 228.885 88.4565 229.024 88.8405 229.024C89.2352 229.024 89.5605 228.885 89.8165 228.608C90.0725 228.32 90.2005 228.011 90.2005 227.68C90.2005 227.339 90.0778 227.024 89.8325 226.736C89.5872 226.437 89.2565 226.288 88.8405 226.288C88.4245 226.288 88.0885 226.432 87.8325 226.72C87.5765 227.008 87.4485 227.328 87.4485 227.68ZM99.7839 224.464C99.8479 223.867 100.269 223.568 101.048 223.568C101.464 223.568 101.773 223.6 101.976 223.664C102.179 223.728 102.317 223.84 102.392 224C102.477 224.16 102.525 224.304 102.536 224.432C102.557 224.549 102.568 224.731 102.568 224.976V230.576C102.568 230.821 102.557 231.008 102.536 231.136C102.525 231.253 102.483 231.392 102.408 231.552C102.259 231.829 101.891 231.968 101.304 231.968C100.728 231.968 100.339 231.899 100.136 231.76C99.9439 231.611 99.8319 231.397 99.7999 231.12C99.4052 231.685 98.7439 231.968 97.8159 231.968C96.8985 231.968 96.0452 231.547 95.2559 230.704C94.4665 229.861 94.0719 228.885 94.0719 227.776C94.0719 226.656 94.4665 225.68 95.2559 224.848C96.0559 224.005 96.9305 223.584 97.8799 223.584C98.2425 223.584 98.5732 223.648 98.8719 223.776C99.1705 223.904 99.3785 224.027 99.4959 224.144C99.6132 224.251 99.7092 224.357 99.7839 224.464ZM96.8719 227.792C96.8719 228.144 97.0105 228.464 97.2879 228.752C97.5652 229.029 97.9012 229.168 98.2959 229.168C98.6905 229.168 99.0159 229.024 99.2719 228.736C99.5385 228.448 99.6719 228.133 99.6719 227.792C99.6719 227.44 99.5439 227.115 99.2879 226.816C99.0425 226.517 98.7065 226.368 98.2799 226.368C97.8639 226.368 97.5225 226.517 97.2559 226.816C96.9999 227.115 96.8719 227.44 96.8719 227.792ZM103.907 231.248C103.704 231.12 103.603 230.917 103.603 230.64C103.603 230.363 103.806 229.941 104.211 229.376C104.328 229.195 104.515 229.104 104.771 229.104C105.038 229.104 105.395 229.237 105.843 229.504C106.291 229.76 106.696 229.888 107.059 229.888C107.71 229.888 108.035 229.76 108.035 229.504C108.035 229.301 107.678 229.152 106.963 229.056C106.291 228.96 105.624 228.709 104.963 228.304C104.654 228.112 104.398 227.813 104.195 227.408C103.992 226.992 103.891 226.501 103.891 225.936C103.891 224.251 105.048 223.408 107.363 223.408C108.12 223.408 108.899 223.589 109.699 223.952C110.072 224.123 110.259 224.336 110.259 224.592C110.259 224.848 110.142 225.163 109.907 225.536C109.672 225.909 109.432 226.096 109.187 226.096C109.059 226.096 108.819 226.016 108.467 225.856C108.126 225.696 107.752 225.616 107.347 225.616C106.718 225.616 106.403 225.733 106.403 225.968C106.403 226.288 106.766 226.496 107.491 226.592C108.195 226.667 108.878 226.869 109.539 227.2C109.848 227.349 110.104 227.611 110.307 227.984C110.52 228.347 110.627 228.805 110.627 229.36C110.627 229.915 110.52 230.389 110.307 230.784C110.104 231.168 109.816 231.456 109.443 231.648C108.76 231.979 107.902 232.144 106.867 232.144C105.843 232.144 104.856 231.845 103.907 231.248ZM116.317 226.4L115.277 226.336V228.544C115.277 228.832 115.32 229.04 115.405 229.168C115.501 229.296 115.672 229.36 115.917 229.36C116.173 229.36 116.365 229.371 116.493 229.392C116.632 229.403 116.776 229.451 116.925 229.536C117.171 229.675 117.293 230.032 117.293 230.608C117.293 231.28 117.144 231.691 116.845 231.84C116.685 231.915 116.541 231.963 116.413 231.984C116.296 231.995 116.12 232 115.885 232C114.776 232 113.933 231.749 113.357 231.248C112.781 230.747 112.493 229.899 112.493 228.704V226.336C112.291 226.368 112.072 226.384 111.837 226.384C111.603 226.384 111.405 226.293 111.245 226.112C111.096 225.931 111.021 225.621 111.021 225.184C111.021 224.747 111.048 224.432 111.101 224.24C111.155 224.037 111.229 223.893 111.325 223.808C111.496 223.669 111.709 223.6 111.965 223.6L112.493 223.664V222.016C112.493 221.771 112.499 221.589 112.509 221.472C112.531 221.355 112.584 221.227 112.669 221.088C112.808 220.821 113.219 220.688 113.901 220.688C114.627 220.688 115.059 220.885 115.197 221.28C115.251 221.451 115.277 221.723 115.277 222.096V223.664C115.747 223.621 116.099 223.6 116.333 223.6C116.579 223.6 116.76 223.611 116.877 223.632C117.005 223.643 117.149 223.691 117.309 223.776C117.587 223.915 117.725 224.325 117.725 225.008C117.725 225.68 117.581 226.091 117.293 226.24C117.133 226.315 116.989 226.363 116.861 226.384C116.744 226.395 116.563 226.4 116.317 226.4ZM118.369 227.792C118.369 226.512 118.817 225.456 119.713 224.624C120.609 223.792 121.633 223.376 122.785 223.376C123.937 223.376 124.955 223.792 125.841 224.624C126.726 225.445 127.169 226.496 127.169 227.776C127.169 228.661 126.939 229.451 126.481 230.144C126.022 230.827 125.462 231.333 124.801 231.664C124.15 231.984 123.473 232.144 122.769 232.144C122.065 232.144 121.382 231.973 120.721 231.632C120.059 231.28 119.499 230.768 119.041 230.096C118.593 229.413 118.369 228.645 118.369 227.792ZM121.713 228.944C122.054 229.2 122.401 229.328 122.753 229.328C123.105 229.328 123.457 229.195 123.809 228.928C124.161 228.661 124.337 228.267 124.337 227.744C124.337 227.221 124.171 226.832 123.841 226.576C123.51 226.32 123.153 226.192 122.769 226.192C122.385 226.192 122.027 226.325 121.697 226.592C121.366 226.859 121.201 227.253 121.201 227.776C121.201 228.288 121.371 228.677 121.713 228.944ZM128.267 231.248C128.064 231.12 127.963 230.917 127.963 230.64C127.963 230.363 128.165 229.941 128.571 229.376C128.688 229.195 128.875 229.104 129.131 229.104C129.397 229.104 129.755 229.237 130.203 229.504C130.651 229.76 131.056 229.888 131.419 229.888C132.069 229.888 132.395 229.76 132.395 229.504C132.395 229.301 132.037 229.152 131.323 229.056C130.651 228.96 129.984 228.709 129.323 228.304C129.013 228.112 128.757 227.813 128.555 227.408C128.352 226.992 128.251 226.501 128.251 225.936C128.251 224.251 129.408 223.408 131.723 223.408C132.48 223.408 133.259 223.589 134.059 223.952C134.432 224.123 134.619 224.336 134.619 224.592C134.619 224.848 134.501 225.163 134.267 225.536C134.032 225.909 133.792 226.096 133.547 226.096C133.419 226.096 133.179 226.016 132.827 225.856C132.485 225.696 132.112 225.616 131.707 225.616C131.077 225.616 130.763 225.733 130.763 225.968C130.763 226.288 131.125 226.496 131.851 226.592C132.555 226.667 133.237 226.869 133.899 227.2C134.208 227.349 134.464 227.611 134.667 227.984C134.88 228.347 134.987 228.805 134.987 229.36C134.987 229.915 134.88 230.389 134.667 230.784C134.464 231.168 134.176 231.456 133.803 231.648C133.12 231.979 132.261 232.144 131.227 232.144C130.203 232.144 129.216 231.845 128.267 231.248ZM142.718 227.792C142.718 228.24 142.867 228.592 143.166 228.848C143.464 229.093 143.779 229.216 144.11 229.216C144.451 229.216 144.766 229.12 145.054 228.928C145.352 228.725 145.592 228.624 145.774 228.624C146.094 228.624 146.483 228.907 146.942 229.472C147.187 229.781 147.31 230.059 147.31 230.304C147.31 230.709 147.016 231.088 146.43 231.44C145.822 231.867 145.075 232.08 144.19 232.08C143.198 232.08 142.243 231.723 141.326 231.008C140.888 230.667 140.531 230.213 140.254 229.648C139.976 229.072 139.838 228.443 139.838 227.76C139.838 227.067 139.976 226.443 140.254 225.888C140.531 225.323 140.888 224.869 141.326 224.528C142.211 223.824 143.155 223.472 144.158 223.472C144.563 223.472 144.958 223.531 145.342 223.648C145.726 223.755 146.008 223.861 146.19 223.968L146.446 224.128C146.638 224.256 146.787 224.357 146.894 224.432C147.171 224.645 147.31 224.891 147.31 225.168C147.31 225.435 147.198 225.739 146.974 226.08C146.59 226.667 146.222 226.96 145.87 226.96C145.667 226.96 145.379 226.843 145.006 226.608C144.814 226.427 144.536 226.336 144.174 226.336C143.822 226.336 143.491 226.464 143.182 226.72C142.872 226.976 142.718 227.333 142.718 227.792ZM148.103 227.792C148.103 226.512 148.551 225.456 149.447 224.624C150.343 223.792 151.367 223.376 152.519 223.376C153.671 223.376 154.69 223.792 155.575 224.624C156.46 225.445 156.903 226.496 156.903 227.776C156.903 228.661 156.674 229.451 156.215 230.144C155.756 230.827 155.196 231.333 154.535 231.664C153.884 231.984 153.207 232.144 152.503 232.144C151.799 232.144 151.116 231.973 150.455 231.632C149.794 231.28 149.234 230.768 148.775 230.096C148.327 229.413 148.103 228.645 148.103 227.792ZM151.447 228.944C151.788 229.2 152.135 229.328 152.487 229.328C152.839 229.328 153.191 229.195 153.543 228.928C153.895 228.661 154.071 228.267 154.071 227.744C154.071 227.221 153.906 226.832 153.575 226.576C153.244 226.32 152.887 226.192 152.503 226.192C152.119 226.192 151.762 226.325 151.431 226.592C151.1 226.859 150.935 227.253 150.935 227.776C150.935 228.288 151.106 228.677 151.447 228.944ZM162.625 223.568C163.692 223.568 164.577 223.979 165.281 224.8C165.996 225.611 166.353 226.603 166.353 227.776V230.592C166.353 230.837 166.342 231.024 166.321 231.152C166.31 231.269 166.268 231.403 166.193 231.552C166.044 231.84 165.628 231.984 164.945 231.984C164.188 231.984 163.75 231.787 163.633 231.392C163.569 231.211 163.537 230.939 163.537 230.576V227.76C163.537 227.323 163.409 226.981 163.153 226.736C162.908 226.491 162.572 226.368 162.145 226.368C161.729 226.368 161.388 226.496 161.121 226.752C160.865 227.008 160.737 227.344 160.737 227.76V230.592C160.737 230.837 160.726 231.024 160.705 231.152C160.694 231.269 160.646 231.403 160.561 231.552C160.422 231.84 160.012 231.984 159.329 231.984C158.657 231.984 158.246 231.84 158.097 231.552C158.022 231.392 157.974 231.253 157.953 231.136C157.942 231.008 157.937 230.821 157.937 230.576V224.912C157.937 224.677 157.942 224.501 157.953 224.384C157.974 224.256 158.028 224.117 158.113 223.968C158.262 223.701 158.673 223.568 159.345 223.568C159.996 223.568 160.396 223.691 160.545 223.936C160.652 224.117 160.705 224.336 160.705 224.592C160.748 224.517 160.844 224.411 160.993 224.272C161.142 224.133 161.286 224.021 161.425 223.936C161.788 223.691 162.188 223.568 162.625 223.568ZM176.583 226.4L175.543 226.336V228.544C175.543 228.832 175.586 229.04 175.671 229.168C175.767 229.296 175.938 229.36 176.183 229.36C176.439 229.36 176.631 229.371 176.759 229.392C176.898 229.403 177.042 229.451 177.191 229.536C177.436 229.675 177.559 230.032 177.559 230.608C177.559 231.28 177.41 231.691 177.111 231.84C176.951 231.915 176.807 231.963 176.679 231.984C176.562 231.995 176.386 232 176.151 232C175.042 232 174.199 231.749 173.623 231.248C173.047 230.747 172.759 229.899 172.759 228.704V226.336C172.556 226.368 172.338 226.384 172.103 226.384C171.868 226.384 171.671 226.293 171.511 226.112C171.362 225.931 171.287 225.621 171.287 225.184C171.287 224.747 171.314 224.432 171.367 224.24C171.42 224.037 171.495 223.893 171.591 223.808C171.762 223.669 171.975 223.6 172.231 223.6L172.759 223.664V222.016C172.759 221.771 172.764 221.589 172.775 221.472C172.796 221.355 172.85 221.227 172.935 221.088C173.074 220.821 173.484 220.688 174.167 220.688C174.892 220.688 175.324 220.885 175.463 221.28C175.516 221.451 175.543 221.723 175.543 222.096V223.664C176.012 223.621 176.364 223.6 176.599 223.6C176.844 223.6 177.026 223.611 177.143 223.632C177.271 223.643 177.415 223.691 177.575 223.776C177.852 223.915 177.991 224.325 177.991 225.008C177.991 225.68 177.847 226.091 177.559 226.24C177.399 226.315 177.255 226.363 177.127 226.384C177.01 226.395 176.828 226.4 176.583 226.4ZM182.618 231.968C181.541 231.968 180.645 231.563 179.93 230.752C179.226 229.931 178.874 228.933 178.874 227.76V224.96C178.874 224.704 178.88 224.517 178.89 224.4C178.912 224.283 178.96 224.144 179.034 223.984C179.184 223.696 179.6 223.552 180.282 223.552C181.029 223.552 181.466 223.755 181.594 224.16C181.658 224.331 181.69 224.603 181.69 224.976V227.776C181.69 228.213 181.813 228.555 182.058 228.8C182.314 229.045 182.65 229.168 183.066 229.168C183.493 229.168 183.834 229.04 184.09 228.784C184.357 228.528 184.49 228.192 184.49 227.776V224.944C184.49 224.699 184.496 224.517 184.506 224.4C184.528 224.272 184.581 224.128 184.666 223.968C184.805 223.691 185.216 223.552 185.898 223.552C186.57 223.552 186.981 223.696 187.13 223.984C187.205 224.144 187.248 224.288 187.258 224.416C187.28 224.533 187.29 224.715 187.29 224.96V230.624C187.29 230.859 187.28 231.04 187.258 231.168C187.248 231.285 187.2 231.419 187.114 231.568C186.954 231.845 186.544 231.984 185.882 231.984C185.232 231.984 184.832 231.856 184.682 231.6C184.576 231.419 184.522 231.2 184.522 230.944C184.48 231.019 184.384 231.125 184.234 231.264C184.085 231.403 183.941 231.52 183.802 231.616C183.44 231.851 183.045 231.968 182.618 231.968ZM188.642 231.248C188.439 231.12 188.338 230.917 188.338 230.64C188.338 230.363 188.54 229.941 188.946 229.376C189.063 229.195 189.25 229.104 189.506 229.104C189.772 229.104 190.13 229.237 190.578 229.504C191.026 229.76 191.431 229.888 191.794 229.888C192.444 229.888 192.77 229.76 192.77 229.504C192.77 229.301 192.412 229.152 191.698 229.056C191.026 228.96 190.359 228.709 189.698 228.304C189.388 228.112 189.132 227.813 188.93 227.408C188.727 226.992 188.626 226.501 188.626 225.936C188.626 224.251 189.783 223.408 192.098 223.408C192.855 223.408 193.634 223.589 194.434 223.952C194.807 224.123 194.994 224.336 194.994 224.592C194.994 224.848 194.876 225.163 194.642 225.536C194.407 225.909 194.167 226.096 193.922 226.096C193.794 226.096 193.554 226.016 193.202 225.856C192.86 225.696 192.487 225.616 192.082 225.616C191.452 225.616 191.138 225.733 191.138 225.968C191.138 226.288 191.5 226.496 192.226 226.592C192.93 226.667 193.612 226.869 194.274 227.2C194.583 227.349 194.839 227.611 195.042 227.984C195.255 228.347 195.362 228.805 195.362 229.36C195.362 229.915 195.255 230.389 195.042 230.784C194.839 231.168 194.551 231.456 194.178 231.648C193.495 231.979 192.636 232.144 191.602 232.144C190.578 232.144 189.591 231.845 188.642 231.248ZM205.925 224.464C205.989 223.867 206.41 223.568 207.189 223.568C207.605 223.568 207.914 223.6 208.117 223.664C208.319 223.728 208.458 223.84 208.533 224C208.618 224.16 208.666 224.304 208.677 224.432C208.698 224.549 208.709 224.731 208.709 224.976V230.576C208.709 230.821 208.698 231.008 208.677 231.136C208.666 231.253 208.623 231.392 208.549 231.552C208.399 231.829 208.031 231.968 207.445 231.968C206.869 231.968 206.479 231.899 206.277 231.76C206.085 231.611 205.973 231.397 205.941 231.12C205.546 231.685 204.885 231.968 203.957 231.968C203.039 231.968 202.186 231.547 201.397 230.704C200.607 229.861 200.213 228.885 200.213 227.776C200.213 226.656 200.607 225.68 201.397 224.848C202.197 224.005 203.071 223.584 204.021 223.584C204.383 223.584 204.714 223.648 205.013 223.776C205.311 223.904 205.519 224.027 205.637 224.144C205.754 224.251 205.85 224.357 205.925 224.464ZM203.013 227.792C203.013 228.144 203.151 228.464 203.429 228.752C203.706 229.029 204.042 229.168 204.437 229.168C204.831 229.168 205.157 229.024 205.413 228.736C205.679 228.448 205.813 228.133 205.813 227.792C205.813 227.44 205.685 227.115 205.429 226.816C205.183 226.517 204.847 226.368 204.421 226.368C204.005 226.368 203.663 226.517 203.397 226.816C203.141 227.115 203.013 227.44 203.013 227.792ZM212.736 224.688C213.237 223.931 213.84 223.552 214.544 223.552C215.632 223.552 216.442 224.016 216.976 224.944C217.093 224.784 217.232 224.619 217.392 224.448C217.562 224.267 217.829 224.075 218.192 223.872C218.554 223.659 218.928 223.552 219.312 223.552C220.165 223.552 220.88 223.883 221.456 224.544C222.032 225.195 222.32 226.277 222.32 227.792V230.592C222.32 230.837 222.309 231.024 222.288 231.152C222.277 231.269 222.229 231.408 222.144 231.568C222.005 231.856 221.594 232 220.912 232C220.24 232 219.829 231.851 219.68 231.552C219.605 231.392 219.557 231.253 219.536 231.136C219.525 231.008 219.52 230.821 219.52 230.576V227.776C219.52 226.848 219.189 226.384 218.528 226.384C218.154 226.384 217.898 226.507 217.76 226.752C217.632 226.997 217.568 227.344 217.568 227.792V230.592C217.568 230.848 217.557 231.035 217.536 231.152C217.525 231.269 217.477 231.408 217.392 231.568C217.242 231.856 216.826 232 216.144 232C215.472 232 215.061 231.851 214.912 231.552C214.837 231.392 214.789 231.253 214.768 231.136C214.757 231.008 214.752 230.821 214.752 230.576V227.776C214.752 226.848 214.421 226.384 213.76 226.384C213.12 226.384 212.8 226.848 212.8 227.776V230.608C212.8 230.853 212.789 231.04 212.768 231.168C212.757 231.285 212.709 231.424 212.624 231.584C212.464 231.861 212.048 232 211.376 232C210.704 232 210.293 231.856 210.144 231.568C210.069 231.408 210.021 231.269 210 231.152C209.989 231.035 209.984 230.848 209.984 230.592V224.96C209.984 224.715 209.989 224.533 210 224.416C210.021 224.288 210.074 224.149 210.16 224C210.32 223.712 210.698 223.568 211.296 223.568C211.893 223.568 212.282 223.664 212.464 223.856C212.645 224.048 212.736 224.325 212.736 224.688ZM223.593 224.976C223.593 224.731 223.598 224.549 223.609 224.432C223.63 224.304 223.678 224.16 223.753 224C223.902 223.723 224.318 223.584 225.001 223.584C225.513 223.584 225.876 223.675 226.089 223.856C226.27 224.005 226.366 224.235 226.377 224.544C226.388 224.651 226.393 224.805 226.393 225.008V230.608C226.393 230.853 226.382 231.04 226.361 231.168C226.35 231.285 226.302 231.424 226.217 231.584C226.078 231.861 225.668 232 224.985 232C224.313 232 223.902 231.856 223.753 231.568C223.678 231.408 223.63 231.269 223.609 231.152C223.598 231.035 223.593 230.848 223.593 230.592V224.976ZM226.217 222.016C226.142 222.165 226.004 222.272 225.801 222.336C225.598 222.4 225.326 222.432 224.985 222.432C224.654 222.432 224.388 222.4 224.185 222.336C223.982 222.272 223.838 222.16 223.753 222C223.678 221.84 223.63 221.701 223.609 221.584C223.598 221.456 223.593 221.269 223.593 221.024C223.593 220.779 223.598 220.597 223.609 220.48C223.63 220.352 223.678 220.213 223.753 220.064C223.902 219.776 224.318 219.632 225.001 219.632C225.673 219.632 226.078 219.776 226.217 220.064C226.302 220.224 226.35 220.368 226.361 220.496C226.382 220.613 226.393 220.795 226.393 221.04C226.393 221.285 226.382 221.472 226.361 221.6C226.35 221.717 226.302 221.856 226.217 222.016ZM233.015 230.944C232.61 231.477 231.965 231.744 231.079 231.744C230.194 231.744 229.362 231.339 228.583 230.528C227.815 229.707 227.431 228.752 227.431 227.664C227.431 226.576 227.821 225.621 228.599 224.8C229.378 223.979 230.231 223.568 231.159 223.568C231.522 223.568 231.853 223.637 232.151 223.776C232.45 223.904 232.653 224.027 232.759 224.144C232.877 224.251 232.967 224.352 233.031 224.448C233.063 224.149 233.17 223.925 233.351 223.776C233.543 223.616 233.847 223.536 234.263 223.536C234.679 223.536 234.983 223.568 235.175 223.632C235.367 223.696 235.501 223.808 235.575 223.968C235.661 224.117 235.709 224.251 235.719 224.368C235.741 224.485 235.751 224.667 235.751 224.912V231.536C235.751 232.763 235.325 233.749 234.471 234.496C233.618 235.253 232.658 235.632 231.591 235.632C230.781 235.632 230.007 235.435 229.271 235.04C228.535 234.645 228.167 234.288 228.167 233.968C228.167 233.552 228.327 233.184 228.647 232.864C228.85 232.64 229.005 232.485 229.111 232.4C229.229 232.315 229.362 232.272 229.511 232.272C229.661 232.272 229.815 232.336 229.975 232.464C230.487 232.859 231.042 233.056 231.639 233.056C232.045 233.056 232.375 232.896 232.631 232.576C232.887 232.256 233.015 231.872 233.015 231.424V230.944ZM230.167 227.68C230.167 228.021 230.301 228.331 230.567 228.608C230.845 228.885 231.175 229.024 231.559 229.024C231.954 229.024 232.279 228.885 232.535 228.608C232.791 228.32 232.919 228.011 232.919 227.68C232.919 227.339 232.797 227.024 232.551 226.736C232.306 226.437 231.975 226.288 231.559 226.288C231.143 226.288 230.807 226.432 230.551 226.72C230.295 227.008 230.167 227.328 230.167 227.68ZM236.791 227.792C236.791 226.512 237.239 225.456 238.135 224.624C239.031 223.792 240.055 223.376 241.207 223.376C242.359 223.376 243.377 223.792 244.263 224.624C245.148 225.445 245.591 226.496 245.591 227.776C245.591 228.661 245.361 229.451 244.903 230.144C244.444 230.827 243.884 231.333 243.223 231.664C242.572 231.984 241.895 232.144 241.191 232.144C240.487 232.144 239.804 231.973 239.143 231.632C238.481 231.28 237.921 230.768 237.463 230.096C237.015 229.413 236.791 228.645 236.791 227.792ZM240.135 228.944C240.476 229.2 240.823 229.328 241.175 229.328C241.527 229.328 241.879 229.195 242.231 228.928C242.583 228.661 242.759 228.267 242.759 227.744C242.759 227.221 242.593 226.832 242.263 226.576C241.932 226.32 241.575 226.192 241.191 226.192C240.807 226.192 240.449 226.325 240.119 226.592C239.788 226.859 239.623 227.253 239.623 227.776C239.623 228.288 239.793 228.677 240.135 228.944ZM246.688 231.248C246.486 231.12 246.384 230.917 246.384 230.64C246.384 230.363 246.587 229.941 246.992 229.376C247.11 229.195 247.296 229.104 247.552 229.104C247.819 229.104 248.176 229.237 248.624 229.504C249.072 229.76 249.478 229.888 249.84 229.888C250.491 229.888 250.816 229.76 250.816 229.504C250.816 229.301 250.459 229.152 249.744 229.056C249.072 228.96 248.406 228.709 247.744 228.304C247.435 228.112 247.179 227.813 246.976 227.408C246.774 226.992 246.672 226.501 246.672 225.936C246.672 224.251 247.83 223.408 250.144 223.408C250.902 223.408 251.68 223.589 252.48 223.952C252.854 224.123 253.04 224.336 253.04 224.592C253.04 224.848 252.923 225.163 252.688 225.536C252.454 225.909 252.214 226.096 251.968 226.096C251.84 226.096 251.6 226.016 251.248 225.856C250.907 225.696 250.534 225.616 250.128 225.616C249.499 225.616 249.184 225.733 249.184 225.968C249.184 226.288 249.547 226.496 250.272 226.592C250.976 226.667 251.659 226.869 252.32 227.2C252.63 227.349 252.886 227.611 253.088 227.984C253.302 228.347 253.408 228.805 253.408 229.36C253.408 229.915 253.302 230.389 253.088 230.784C252.886 231.168 252.598 231.456 252.224 231.648C251.542 231.979 250.683 232.144 249.648 232.144C248.624 232.144 247.638 231.845 246.688 231.248Z" fill="white"/>
<path d="M41.496 169.28C41.7662 169.787 41.9182 170.243 41.952 170.648C42.0196 171.053 42.0533 171.644 42.0533 172.421V200.541C42.0533 202.872 41.4116 204.24 40.128 204.645C39.4862 204.848 38.6756 204.949 37.696 204.949C36.7164 204.949 35.9396 204.865 35.3653 204.696C34.7911 204.527 34.352 204.324 34.048 204.088C33.744 203.852 33.5076 203.514 33.3387 203.075C33.1698 202.5 33.0853 201.622 33.0853 200.44V183.467C32.2409 184.514 31.008 186.186 29.3867 188.483C27.7653 190.746 26.7351 192.164 26.296 192.739C25.8569 193.313 25.5529 193.718 25.384 193.955C25.2151 194.157 24.7929 194.461 24.1173 194.867C23.4756 195.238 22.7662 195.424 21.9893 195.424C21.2462 195.424 20.5538 195.255 19.912 194.917C19.304 194.546 18.8649 194.191 18.5947 193.853L18.1893 193.296C17.5138 192.452 16.1796 190.661 14.1867 187.925C12.1938 185.156 11.1129 183.669 10.944 183.467V200.541C10.944 201.318 10.9102 201.909 10.8427 202.315C10.8089 202.686 10.6569 203.108 10.3867 203.581C9.88 204.493 8.56267 204.949 6.43467 204.949C4.37422 204.949 3.09067 204.493 2.584 203.581C2.31378 203.108 2.14489 202.669 2.07733 202.264C2.04356 201.859 2.02667 201.251 2.02667 200.44V172.32C2.02667 171.543 2.04356 170.969 2.07733 170.597C2.14489 170.192 2.31378 169.736 2.584 169.229C3.09067 168.351 4.408 167.912 6.536 167.912C7.448 167.912 8.22489 168.03 8.86667 168.267C9.54222 168.469 9.98133 168.689 10.184 168.925L10.488 169.229L21.9893 184.328C27.7316 176.728 31.5653 171.712 33.4907 169.28C34.0649 168.368 35.416 167.912 37.544 167.912C39.7058 167.912 41.0231 168.368 41.496 169.28ZM46.1126 182.757C46.1126 181.98 46.1295 181.406 46.1633 181.035C46.2308 180.629 46.3828 180.173 46.6193 179.667C47.0922 178.788 48.4095 178.349 50.5713 178.349C52.1926 178.349 53.341 178.636 54.0166 179.211C54.5908 179.684 54.8948 180.41 54.9286 181.389C54.9624 181.727 54.9793 182.217 54.9793 182.859V200.592C54.9793 201.369 54.9455 201.96 54.8779 202.365C54.8442 202.737 54.6922 203.176 54.4219 203.683C53.9828 204.561 52.6824 205 50.5206 205C48.3926 205 47.0922 204.544 46.6193 203.632C46.3828 203.125 46.2308 202.686 46.1633 202.315C46.1295 201.943 46.1126 201.352 46.1126 200.541V182.757ZM54.4219 173.384C54.1855 173.857 53.7464 174.195 53.1046 174.397C52.4628 174.6 51.6015 174.701 50.5206 174.701C49.4735 174.701 48.629 174.6 47.9873 174.397C47.3455 174.195 46.8895 173.84 46.6193 173.333C46.3828 172.827 46.2308 172.388 46.1633 172.016C46.1295 171.611 46.1126 171.02 46.1126 170.243C46.1126 169.466 46.1295 168.892 46.1633 168.52C46.2308 168.115 46.3828 167.676 46.6193 167.203C47.0922 166.291 48.4095 165.835 50.5713 165.835C52.6993 165.835 53.9828 166.291 54.4219 167.203C54.6922 167.709 54.8442 168.165 54.8779 168.571C54.9455 168.942 54.9793 169.516 54.9793 170.293C54.9793 171.07 54.9455 171.661 54.8779 172.067C54.8442 172.438 54.6922 172.877 54.4219 173.384ZM98.7458 178.907C100.502 179.954 101.38 181.068 101.38 182.251C101.38 182.926 101.043 183.855 100.367 185.037L89.8791 203.024C89.5413 203.598 89.0009 204.122 88.2578 204.595C87.5147 205.034 86.7715 205.253 86.0284 205.253C85.3191 205.253 84.6267 205.084 83.9511 204.747C83.3093 204.375 82.8533 204.004 82.5831 203.632L82.1271 203.075L71.5884 185.037C70.9129 183.923 70.5751 183.011 70.5751 182.301C70.5751 181.085 71.4533 179.954 73.2098 178.907C74.4933 178.164 75.5067 177.792 76.2498 177.792C76.9929 177.792 77.5671 178.028 77.9724 178.501C78.4115 178.94 78.8675 179.616 79.3404 180.528L85.9778 193.296L92.6151 180.528C92.9867 179.886 93.2569 179.43 93.4258 179.16C93.6284 178.856 93.9324 178.569 94.3378 178.299C94.7431 177.995 95.2835 177.843 95.9591 177.843C96.6347 177.843 97.5635 178.197 98.7458 178.907ZM119.946 181.136C120.148 179.244 121.483 178.299 123.948 178.299C125.266 178.299 126.245 178.4 126.887 178.603C127.529 178.805 127.968 179.16 128.204 179.667C128.475 180.173 128.627 180.629 128.66 181.035C128.728 181.406 128.762 181.98 128.762 182.757V200.491C128.762 201.268 128.728 201.859 128.66 202.264C128.627 202.636 128.492 203.075 128.255 203.581C127.782 204.46 126.617 204.899 124.759 204.899C122.935 204.899 121.702 204.679 121.06 204.24C120.452 203.767 120.098 203.092 119.996 202.213C118.747 204.004 116.652 204.899 113.714 204.899C110.809 204.899 108.107 203.564 105.607 200.896C103.108 198.228 101.858 195.137 101.858 191.624C101.858 188.077 103.108 184.987 105.607 182.352C108.14 179.684 110.91 178.349 113.916 178.349C115.065 178.349 116.112 178.552 117.058 178.957C118.004 179.363 118.662 179.751 119.034 180.123C119.405 180.46 119.709 180.798 119.946 181.136ZM110.724 191.675C110.724 192.789 111.164 193.803 112.042 194.715C112.92 195.593 113.984 196.032 115.234 196.032C116.484 196.032 117.514 195.576 118.324 194.664C119.169 193.752 119.591 192.756 119.591 191.675C119.591 190.56 119.186 189.53 118.375 188.584C117.598 187.638 116.534 187.165 115.183 187.165C113.866 187.165 112.785 187.638 111.94 188.584C111.13 189.53 110.724 190.56 110.724 191.675ZM149.621 180.984C149.824 179.194 151.141 178.299 153.573 178.299C154.857 178.299 155.803 178.4 156.411 178.603C157.019 178.805 157.441 179.16 157.677 179.667C157.948 180.14 158.1 180.562 158.133 180.933C158.201 181.305 158.235 181.879 158.235 182.656V212.245C158.235 213.022 158.201 213.596 158.133 213.968C158.1 214.34 157.948 214.762 157.677 215.235C157.441 215.708 157.002 216.045 156.36 216.248C155.752 216.451 154.925 216.552 153.877 216.552C152.83 216.552 152.003 216.451 151.395 216.248C150.787 216.045 150.348 215.691 150.077 215.184C149.841 214.711 149.689 214.289 149.621 213.917C149.588 213.546 149.571 212.972 149.571 212.195V201.96C148.22 203.514 146.311 204.291 143.845 204.291C140.839 204.291 138.12 202.99 135.688 200.389C133.256 197.788 132.04 194.765 132.04 191.32C132.04 187.875 133.273 184.852 135.739 182.251C138.205 179.65 140.805 178.349 143.541 178.349C146.311 178.349 148.338 179.228 149.621 180.984ZM141.971 194.36C142.849 195.238 143.896 195.677 145.112 195.677C146.328 195.677 147.341 195.238 148.152 194.36C148.963 193.448 149.368 192.468 149.368 191.421C149.368 190.34 148.98 189.344 148.203 188.432C147.426 187.486 146.379 187.013 145.061 187.013C143.778 187.013 142.731 187.469 141.92 188.381C141.109 189.26 140.704 190.256 140.704 191.371C140.704 192.485 141.126 193.482 141.971 194.36ZM174.146 204.899C170.734 204.899 167.897 203.615 165.634 201.048C163.404 198.447 162.29 195.289 162.29 191.573V182.707C162.29 181.896 162.307 181.305 162.34 180.933C162.408 180.562 162.56 180.123 162.796 179.616C163.269 178.704 164.587 178.248 166.748 178.248C169.113 178.248 170.498 178.89 170.903 180.173C171.106 180.714 171.207 181.575 171.207 182.757V191.624C171.207 193.009 171.595 194.09 172.372 194.867C173.183 195.644 174.247 196.032 175.564 196.032C176.915 196.032 177.996 195.627 178.807 194.816C179.651 194.005 180.074 192.941 180.074 191.624V182.656C180.074 181.879 180.091 181.305 180.124 180.933C180.192 180.528 180.361 180.072 180.631 179.565C181.07 178.687 182.371 178.248 184.532 178.248C186.66 178.248 187.961 178.704 188.434 179.616C188.67 180.123 188.805 180.579 188.839 180.984C188.907 181.356 188.94 181.93 188.94 182.707V200.643C188.94 201.386 188.907 201.96 188.839 202.365C188.805 202.737 188.653 203.159 188.383 203.632C187.876 204.51 186.576 204.949 184.482 204.949C182.421 204.949 181.155 204.544 180.682 203.733C180.344 203.159 180.175 202.467 180.175 201.656C180.04 201.892 179.736 202.23 179.263 202.669C178.79 203.108 178.334 203.48 177.895 203.784C176.747 204.527 175.497 204.899 174.146 204.899ZM193.016 182.757C193.016 181.98 193.033 181.406 193.067 181.035C193.134 180.629 193.286 180.173 193.523 179.667C193.996 178.788 195.313 178.349 197.475 178.349C199.096 178.349 200.245 178.636 200.92 179.211C201.494 179.684 201.798 180.41 201.832 181.389C201.866 181.727 201.883 182.217 201.883 182.859V200.592C201.883 201.369 201.849 201.96 201.782 202.365C201.748 202.737 201.596 203.176 201.326 203.683C200.886 204.561 199.586 205 197.424 205C195.296 205 193.996 204.544 193.523 203.632C193.286 203.125 193.134 202.686 193.067 202.315C193.033 201.943 193.016 201.352 193.016 200.541V182.757ZM201.326 173.384C201.089 173.857 200.65 174.195 200.008 174.397C199.366 174.6 198.505 174.701 197.424 174.701C196.377 174.701 195.533 174.6 194.891 174.397C194.249 174.195 193.793 173.84 193.523 173.333C193.286 172.827 193.134 172.388 193.067 172.016C193.033 171.611 193.016 171.02 193.016 170.243C193.016 169.466 193.033 168.892 193.067 168.52C193.134 168.115 193.286 167.676 193.523 167.203C193.996 166.291 195.313 165.835 197.475 165.835C199.603 165.835 200.886 166.291 201.326 167.203C201.596 167.709 201.748 168.165 201.782 168.571C201.849 168.942 201.883 169.516 201.883 170.293C201.883 171.07 201.849 171.661 201.782 172.067C201.748 172.438 201.596 172.877 201.326 173.384ZM221.434 187.267L218.141 187.064V194.056C218.141 194.968 218.276 195.627 218.546 196.032C218.85 196.437 219.391 196.64 220.168 196.64C220.978 196.64 221.586 196.674 221.992 196.741C222.431 196.775 222.887 196.927 223.36 197.197C224.137 197.636 224.525 198.768 224.525 200.592C224.525 202.72 224.052 204.02 223.106 204.493C222.6 204.73 222.144 204.882 221.738 204.949C221.367 204.983 220.809 205 220.066 205C216.553 205 213.885 204.206 212.061 202.619C210.237 201.031 209.325 198.346 209.325 194.563V187.064C208.683 187.165 207.991 187.216 207.248 187.216C206.505 187.216 205.88 186.929 205.373 186.355C204.9 185.78 204.664 184.801 204.664 183.416C204.664 182.031 204.748 181.035 204.917 180.427C205.086 179.785 205.322 179.329 205.626 179.059C206.167 178.62 206.842 178.4 207.653 178.4L209.325 178.603V173.384C209.325 172.607 209.342 172.033 209.376 171.661C209.443 171.29 209.612 170.884 209.882 170.445C210.321 169.601 211.622 169.179 213.784 169.179C216.081 169.179 217.449 169.804 217.888 171.053C218.057 171.594 218.141 172.455 218.141 173.637V178.603C219.627 178.468 220.742 178.4 221.485 178.4C222.262 178.4 222.836 178.434 223.208 178.501C223.613 178.535 224.069 178.687 224.576 178.957C225.454 179.396 225.893 180.697 225.893 182.859C225.893 184.987 225.437 186.287 224.525 186.76C224.018 186.996 223.562 187.148 223.157 187.216C222.785 187.25 222.211 187.267 221.434 187.267ZM246.019 181.136C246.221 179.244 247.556 178.299 250.021 178.299C251.339 178.299 252.318 178.4 252.96 178.603C253.602 178.805 254.041 179.16 254.277 179.667C254.548 180.173 254.7 180.629 254.733 181.035C254.801 181.406 254.835 181.98 254.835 182.757V200.491C254.835 201.268 254.801 201.859 254.733 202.264C254.7 202.636 254.564 203.075 254.328 203.581C253.855 204.46 252.69 204.899 250.832 204.899C249.008 204.899 247.775 204.679 247.133 204.24C246.525 203.767 246.171 203.092 246.069 202.213C244.82 204.004 242.725 204.899 239.787 204.899C236.882 204.899 234.18 203.564 231.68 200.896C229.18 198.228 227.931 195.137 227.931 191.624C227.931 188.077 229.18 184.987 231.68 182.352C234.213 179.684 236.983 178.349 239.989 178.349C241.138 178.349 242.185 178.552 243.131 178.957C244.076 179.363 244.735 179.751 245.107 180.123C245.478 180.46 245.782 180.798 246.019 181.136ZM236.797 191.675C236.797 192.789 237.236 193.803 238.115 194.715C238.993 195.593 240.057 196.032 241.307 196.032C242.556 196.032 243.587 195.576 244.397 194.664C245.242 193.752 245.664 192.756 245.664 191.675C245.664 190.56 245.259 189.53 244.448 188.584C243.671 187.638 242.607 187.165 241.256 187.165C239.939 187.165 238.858 187.638 238.013 188.584C237.203 189.53 236.797 190.56 236.797 191.675Z" fill="white"/>
<mask id="mask0_203_7789" style="mask-type:luminance" maskUnits="userSpaceOnUse" x="43" y="0" width="174" height="144">
<path d="M52.4058 1.36545e-05C47.2116 1.36545e-05 43 4.18388 43 9.34417V134.235C43 139.395 47.2116 143.579 52.4058 143.579H207.504C212.699 143.579 216.909 139.395 216.909 134.235V9.34417C216.909 4.18388 212.699 1.36545e-05 207.504 1.36545e-05H52.4058Z" fill="white"/>
</mask>
<g mask="url(#mask0_203_7789)">
<path d="M170.053 144.338C169.257 144.251 168.461 144.101 167.67 143.883C165.789 143.364 164.561 142.789 164.509 142.765L165.706 140.252C165.717 140.257 166.786 140.753 168.419 141.203C175.144 143.057 182.426 138.986 184.325 132.312C184.622 131.268 184.77 130.19 184.925 129.049C185.166 127.286 185.416 125.461 186.254 123.687C187.597 120.847 189.756 118.795 192.332 117.909L193.248 120.536C191.391 121.175 189.806 122.713 188.787 124.869C188.13 126.258 187.921 127.795 187.698 129.423C187.537 130.609 187.37 131.836 187.018 133.068C184.931 140.402 177.498 145.152 170.053 144.338Z" fill="white"/>
</g>
<mask id="mask1_203_7789" style="mask-type:luminance" maskUnits="userSpaceOnUse" x="43" y="0" width="174" height="144">
<path d="M52.4058 1.36545e-05C47.2116 1.36545e-05 43 4.18388 43 9.34417V134.235C43 139.395 47.2116 143.579 52.4058 143.579H207.504C212.699 143.579 216.909 139.395 216.909 134.235V9.34417C216.909 4.18388 212.699 1.36545e-05 207.504 1.36545e-05H52.4058Z" fill="white"/>
</mask>
<g mask="url(#mask1_203_7789)">
<path d="M194.189 114.111L191.349 115.088C188.001 116.24 185.226 118.843 183.536 122.417C182.5 124.607 182.207 126.753 181.948 128.648C181.802 129.725 181.674 130.655 181.434 131.5C180.253 135.652 176.178 138.667 171.746 138.667C170.89 138.667 170.041 138.553 169.222 138.327C167.877 137.956 166.982 137.55 166.974 137.546L164.251 136.251L162.991 138.976L161.794 141.488L160.51 144.182L163.219 145.461C163.371 145.533 164.765 146.179 166.867 146.759C167.799 147.017 168.76 147.2 169.725 147.306C170.383 147.378 171.053 147.414 171.717 147.414C180.161 147.414 187.642 141.849 189.91 133.881C190.317 132.45 190.507 131.061 190.674 129.836C190.874 128.369 191.046 127.113 191.506 126.139C192.178 124.718 193.146 123.73 194.231 123.357L197.07 122.38L196.087 119.559L195.172 116.932L194.189 114.111ZM192.333 117.909L193.248 120.536C191.391 121.175 189.807 122.714 188.788 124.87C188.13 126.258 187.92 127.795 187.699 129.423C187.536 130.609 187.369 131.836 187.018 133.069C185.087 139.854 178.578 144.429 171.717 144.429C171.164 144.429 170.609 144.399 170.054 144.339C169.257 144.251 168.461 144.101 167.671 143.883C165.789 143.364 164.56 142.789 164.51 142.765L165.706 140.252C165.717 140.257 166.786 140.753 168.42 141.204C169.522 141.508 170.639 141.652 171.746 141.652C177.388 141.652 182.738 137.892 184.326 132.312C184.623 131.268 184.77 130.19 184.926 129.049C185.166 127.285 185.415 125.462 186.255 123.687C187.598 120.847 189.757 118.795 192.333 117.909Z" fill="#36190D"/>
</g>
<mask id="mask2_203_7789" style="mask-type:luminance" maskUnits="userSpaceOnUse" x="43" y="0" width="174" height="144">
<path d="M52.4058 1.36545e-05C47.2116 1.36545e-05 43 4.18388 43 9.34417V134.235C43 139.395 47.2116 143.579 52.4058 143.579H207.504C212.699 143.579 216.909 139.395 216.909 134.235V9.34417C216.909 4.18388 212.699 1.36545e-05 207.504 1.36545e-05H52.4058Z" fill="white"/>
</mask>
<g mask="url(#mask2_203_7789)">
<path d="M187.554 116.292C187.655 115.195 188.056 114.036 188.983 112.94C189.773 112.007 190.82 111.327 191.969 110.9C192.401 110.739 192.911 110.578 193.491 110.445C196.675 109.712 199.125 107.168 199.545 103.947C199.575 103.718 199.6 103.48 199.619 103.235C199.619 103.235 205.133 108.592 202.745 116.236C201.909 118.91 200.076 121.208 197.515 122.376C196.568 122.807 195.471 123.129 194.269 123.169C190.428 123.296 187.204 120.095 187.554 116.292Z" fill="#995036"/>
</g>
<mask id="mask3_203_7789" style="mask-type:luminance" maskUnits="userSpaceOnUse" x="43" y="0" width="174" height="144">
<path d="M52.4058 1.36545e-05C47.2116 1.36545e-05 43 4.18388 43 9.34417V134.235C43 139.395 47.2116 143.579 52.4058 143.579H207.504C212.699 143.579 216.909 139.395 216.909 134.235V9.34417C216.909 4.18388 212.699 1.36545e-05 207.504 1.36545e-05H52.4058Z" fill="white"/>
</mask>
<g mask="url(#mask3_203_7789)">
<path d="M197.112 96.6248L196.623 103.008C196.608 103.2 196.589 103.384 196.566 103.563C196.311 105.511 194.839 107.07 192.813 107.536C192.167 107.685 191.528 107.876 190.916 108.104C189.23 108.731 187.766 109.74 186.684 111.019C185.447 112.481 184.733 114.164 184.562 116.021C184.325 118.61 185.177 121.106 186.962 123.05C188.777 125.025 191.359 126.157 194.048 126.157C194.154 126.157 194.262 126.156 194.37 126.153C195.848 126.103 197.328 125.745 198.768 125.089C201.997 123.617 204.492 120.713 205.614 117.121C208.514 107.841 201.998 101.371 201.719 101.1L197.112 96.6248ZM199.619 103.235C199.619 103.235 205.133 108.592 202.745 116.236C201.909 118.91 200.076 121.208 197.515 122.375C196.568 122.807 195.472 123.129 194.269 123.169C194.195 123.171 194.121 123.172 194.048 123.172C190.305 123.172 187.212 120.021 187.554 116.292C187.655 115.196 188.057 114.036 188.983 112.94C189.773 112.007 190.82 111.327 191.97 110.899C192.401 110.739 192.911 110.578 193.491 110.445C196.676 109.712 199.125 107.167 199.546 103.946C199.575 103.717 199.6 103.481 199.619 103.235Z" fill="#36190D"/>
</g>
<mask id="mask4_203_7789" style="mask-type:luminance" maskUnits="userSpaceOnUse" x="43" y="0" width="174" height="144">
<path d="M52.4058 1.36545e-05C47.2116 1.36545e-05 43 4.18388 43 9.34417V134.235C43 139.395 47.2116 143.579 52.4058 143.579H207.504C212.699 143.579 216.909 139.395 216.909 134.235V9.34417C216.909 4.18388 212.699 1.36545e-05 207.504 1.36545e-05H52.4058Z" fill="white"/>
</mask>
<g mask="url(#mask4_203_7789)">
<path d="M198.951 113.067C199.812 115.115 198.28 117.701 195.528 118.843C192.776 119.985 189.848 119.25 188.987 117.202C188.126 115.154 189.658 112.568 192.41 111.427C195.162 110.285 198.09 111.019 198.951 113.067Z" fill="#A95A3C"/>
</g>
<mask id="mask5_203_7789" style="mask-type:luminance" maskUnits="userSpaceOnUse" x="43" y="0" width="174" height="144">
<path d="M52.4058 1.36545e-05C47.2116 1.36545e-05 43 4.18388 43 9.34417V134.235C43 139.395 47.2116 143.579 52.4058 143.579H207.504C212.699 143.579 216.909 139.395 216.909 134.235V9.34417C216.909 4.18388 212.699 1.36545e-05 207.504 1.36545e-05H52.4058Z" fill="white"/>
</mask>
<g mask="url(#mask5_203_7789)">
<path d="M169.832 144.342H90.22C90.22 120.612 100.203 98.2022 100.203 98.2022H159.842C159.842 98.2022 169.832 120.612 169.832 144.342Z" fill="white"/>
</g>
<mask id="mask6_203_7789" style="mask-type:luminance" maskUnits="userSpaceOnUse" x="43" y="0" width="174" height="144">
<path d="M52.4058 1.36545e-05C47.2116 1.36545e-05 43 4.18388 43 9.34417V134.235C43 139.395 47.2116 143.579 52.4058 143.579H207.504C212.699 143.579 216.909 139.395 216.909 134.235V9.34417C216.909 4.18388 212.699 1.36545e-05 207.504 1.36545e-05H52.4058Z" fill="white"/>
</mask>
<g mask="url(#mask6_203_7789)">
<path d="M158.74 142.501C158.74 143.121 158.723 143.734 158.688 144.342H101.369C101.333 143.734 101.316 143.121 101.316 142.501C101.316 139.003 101.876 135.651 102.907 132.529C106.812 120.676 117.478 112.169 130.031 112.169C142.579 112.169 153.244 120.67 157.15 132.524C158.181 135.645 158.74 139.003 158.74 142.501Z" fill="#FFBDB1"/>
</g>
<mask id="mask7_203_7789" style="mask-type:luminance" maskUnits="userSpaceOnUse" x="43" y="0" width="174" height="144">
<path d="M52.4058 1.36545e-05C47.2116 1.36545e-05 43 4.18388 43 9.34417V134.235C43 139.395 47.2116 143.579 52.4058 143.579H207.504C212.699 143.579 216.909 139.395 216.909 134.235V9.34417C216.909 4.18388 212.699 1.36545e-05 207.504 1.36545e-05H52.4058Z" fill="white"/>
</mask>
<g mask="url(#mask7_203_7789)">
<path d="M157.149 132.524C151.618 137.776 141.541 141.285 130.025 141.285C118.515 141.285 108.438 137.776 102.907 132.53C106.812 120.676 117.477 112.169 130.031 112.169C142.579 112.169 153.245 120.67 157.149 132.524Z" fill="#FFCCC2"/>
</g>
<mask id="mask8_203_7789" style="mask-type:luminance" maskUnits="userSpaceOnUse" x="43" y="0" width="174" height="144">
<path d="M52.4058 1.36545e-05C47.2116 1.36545e-05 43 4.18388 43 9.34417V134.235C43 139.395 47.2116 143.579 52.4058 143.579H207.504C212.699 143.579 216.909 139.395 216.909 134.235V9.34417C216.909 4.18388 212.699 1.36545e-05 207.504 1.36545e-05H52.4058Z" fill="white"/>
</mask>
<g mask="url(#mask8_203_7789)">
<path d="M185.508 74.3258C183.633 74.3258 181.904 75.2525 180.881 76.8055C179.52 78.8893 177.898 80.9672 176.056 82.9906C170.548 89.0412 164.318 93.2076 160.969 95.2176L159.843 95.2169H101.462L96.4926 90.2038L94.6375 88.333L92.5334 89.9229C92.4509 89.9847 84.2022 96.2216 75.8048 102.928C73.1252 105.068 71.2118 107.973 70.4178 111.106C69.5352 114.573 69.479 119.752 74.2249 124.724L74.2486 124.749L74.2729 124.773L82.8813 133.385L81.4232 136.774C80.8063 138.213 80.8929 139.818 81.6592 141.178C82.4228 142.532 83.7457 143.44 85.2898 143.667C85.9147 143.756 86.5586 143.809 87.2174 143.825C87.216 143.999 87.2153 144.171 87.2153 144.342V147.328H90.2203H92.5577C93.4654 148.057 94.5962 148.455 95.7514 148.455C96.9316 148.455 98.0503 148.049 98.9336 147.328H169.832H172.836V144.342C172.836 137.246 171.97 129.605 170.26 121.595C182.77 114.685 190.36 104.613 194.583 97.1966C197.398 92.2346 198.982 88.0158 199.675 85.942C200.164 84.4864 200.014 82.8797 199.265 81.5357C198.519 80.1971 197.234 79.2233 195.739 78.8638C194.341 78.5291 192.997 78.3598 191.745 78.3598C191.538 78.3598 191.34 78.3645 191.151 78.3726C190.723 77.5944 190.224 76.8747 189.659 76.2202C188.634 75.0213 187.117 74.3258 185.508 74.3258ZM93.8637 117.336C94.2628 115.756 94.6733 114.248 95.0859 112.815C94.2756 115.6 93.8624 117.335 93.8624 117.335C93.8631 117.335 93.8631 117.336 93.8637 117.336ZM185.508 77.3108C186.198 77.3108 186.888 77.5904 187.38 78.1656C188.102 79.0009 188.824 80.148 189.329 81.7003C189.329 81.7003 190.138 81.3448 191.745 81.3448C192.61 81.3448 193.707 81.4483 195.032 81.7655C196.47 82.1109 197.29 83.6108 196.824 84.9998C196.004 87.452 194.468 91.3187 191.967 95.727C187.382 103.783 179.528 113.649 166.833 120.022C168.512 127.283 169.832 135.722 169.832 144.342H97.5836C97.5295 144.423 97.47 144.513 97.4192 144.589C97.031 145.167 96.3973 145.47 95.7514 145.47C95.2955 145.47 94.8336 145.319 94.4488 145.007C94.1857 144.793 93.953 144.569 93.7393 144.342H90.2203C90.2203 143.102 90.2528 141.866 90.3048 140.636C89.3323 140.786 88.451 140.846 87.6685 140.846C86.934 140.846 86.286 140.793 85.7301 140.714C84.4275 140.522 83.6693 139.152 84.186 137.947L86.4396 132.708L76.4047 122.669C72.7241 118.814 72.5658 114.842 73.3308 111.836C73.9922 109.227 75.5776 106.94 77.6871 105.255C86.1501 98.4963 94.352 92.2991 94.352 92.2991L100.204 98.2019C100.202 98.204 100.202 98.2067 100.2 98.2087C100.201 98.208 100.204 98.2019 100.204 98.2019H159.843C159.843 98.2019 159.981 98.5151 160.219 99.0843C162.103 98.0823 170.793 93.2218 178.284 84.9931C180.095 83.0047 181.84 80.82 183.396 78.4398C183.886 77.6965 184.697 77.3108 185.508 77.3108Z" fill="#36190D"/>
</g>
<mask id="mask9_203_7789" style="mask-type:luminance" maskUnits="userSpaceOnUse" x="43" y="0" width="174" height="144">
<path d="M52.4058 1.36545e-05C47.2116 1.36545e-05 43 4.18388 43 9.34417V134.235C43 139.395 47.2116 143.579 52.4058 143.579H207.504C212.699 143.579 216.909 139.395 216.909 134.235V9.34417C216.909 4.18388 212.699 1.36545e-05 207.504 1.36545e-05H52.4058Z" fill="white"/>
</mask>
<g mask="url(#mask9_203_7789)">
<path d="M196.824 85C196.004 87.4522 194.468 91.3189 191.967 95.7272C187.19 104.12 178.88 114.488 165.229 120.814C165.229 120.814 159.67 116.51 159.841 99.2814C159.841 99.2814 169.83 94.2797 178.283 84.9933C180.095 83.0049 181.841 80.8202 183.396 78.44C184.302 77.0637 186.31 76.9139 187.38 78.1658C188.102 79.0004 188.824 80.1482 189.329 81.7005C189.329 81.7005 191.246 80.8592 195.033 81.7657C196.47 82.1111 197.29 83.611 196.824 85Z" fill="white"/>
</g>
<mask id="mask10_203_7789" style="mask-type:luminance" maskUnits="userSpaceOnUse" x="43" y="0" width="174" height="144">
<path d="M52.4058 1.36545e-05C47.2116 1.36545e-05 43 4.18388 43 9.34417V134.235C43 139.395 47.2116 143.579 52.4058 143.579H207.504C212.699 143.579 216.909 139.395 216.909 134.235V9.34417C216.909 4.18388 212.699 1.36545e-05 207.504 1.36545e-05H52.4058Z" fill="white"/>
</mask>
<g mask="url(#mask10_203_7789)">
<path d="M196.824 85C196.004 87.4522 194.468 91.3189 191.967 95.7272C185.798 94.6708 180.685 90.5494 178.283 84.9933C180.095 83.0049 181.84 80.8202 183.396 78.44C184.302 77.0637 186.31 76.9139 187.38 78.1658C188.101 79.0004 188.824 80.1482 189.329 81.7005C189.329 81.7005 191.246 80.8592 195.032 81.7657C196.47 82.1111 197.29 83.611 196.824 85Z" fill="#FFD4CC"/>
</g>
<mask id="mask11_203_7789" style="mask-type:luminance" maskUnits="userSpaceOnUse" x="43" y="0" width="174" height="144">
<path d="M52.4058 1.36545e-05C47.2116 1.36545e-05 43 4.18388 43 9.34417V134.235C43 139.395 47.2116 143.579 52.4058 143.579H207.504C212.699 143.579 216.909 139.395 216.909 134.235V9.34417C216.909 4.18388 212.699 1.36545e-05 207.504 1.36545e-05H52.4058Z" fill="white"/>
</mask>
<g mask="url(#mask11_203_7789)">
<path d="M102.374 135.509C102.188 136.173 101.933 136.831 101.609 137.461C100.058 140.529 98.4454 143.063 97.4187 144.59C96.7572 145.576 95.3788 145.761 94.4482 145.007C92.0431 143.049 91.8017 140.351 91.8017 140.351C89.2174 140.953 87.1701 140.919 85.7295 140.714C84.4269 140.522 83.6687 139.152 84.1861 137.947L86.4397 132.709L76.4049 122.67C72.7242 118.814 72.566 114.842 73.3309 111.836C73.9924 109.227 75.5777 106.94 77.6865 105.255C86.1502 98.4963 94.3522 92.2992 94.3522 92.2992L100.203 98.202C96.3453 108.213 93.8625 117.335 93.8625 117.335C96.7363 120.656 99.073 123.751 100.796 126.183C102.733 128.922 103.277 132.359 102.374 135.509Z" fill="white"/>
</g>
<mask id="mask12_203_7789" style="mask-type:luminance" maskUnits="userSpaceOnUse" x="43" y="0" width="174" height="144">
<path d="M52.4058 1.36545e-05C47.2116 1.36545e-05 43 4.18388 43 9.34417V134.235C43 139.395 47.2116 143.579 52.4058 143.579H207.504C212.699 143.579 216.909 139.395 216.909 134.235V9.34417C216.909 4.18388 212.699 1.36545e-05 207.504 1.36545e-05H52.4058Z" fill="white"/>
</mask>
<g mask="url(#mask12_203_7789)">
<path d="M102.374 135.509C102.188 136.173 101.933 136.831 101.609 137.461C100.058 140.529 98.4453 143.063 97.4186 144.59C96.7572 145.576 95.3788 145.761 94.4482 145.007C92.0431 143.049 91.8016 140.351 91.8016 140.351C89.2174 140.953 87.1701 140.919 85.7295 140.714C84.4269 140.522 83.6687 139.152 84.1861 137.947L86.4396 132.709C86.4396 132.709 94.5104 130.271 102.374 135.509Z" fill="#FFD4CC"/>
</g>
<mask id="mask13_203_7789" style="mask-type:luminance" maskUnits="userSpaceOnUse" x="43" y="0" width="174" height="144">
<path d="M52.4058 1.36545e-05C47.2116 1.36545e-05 43 4.18388 43 9.34417V134.235C43 139.395 47.2116 143.579 52.4058 143.579H207.504C212.699 143.579 216.909 139.395 216.909 134.235V9.34417C216.909 4.18388 212.699 1.36545e-05 207.504 1.36545e-05H52.4058Z" fill="white"/>
</mask>
<g mask="url(#mask13_203_7789)">
<path d="M95.6693 147.979C95.5516 147.979 95.4333 147.975 95.3149 147.967C93.5544 147.853 91.9535 146.871 91.033 145.339C90.6299 144.669 90.354 143.982 90.1666 143.382C88.3824 143.855 87.2097 143.829 87.05 143.82L87.1644 140.837C87.1779 140.836 88.6266 140.866 90.7449 140.062L92.5953 139.36L92.7773 141.32C92.778 141.327 92.9186 142.655 93.6126 143.808C94.0326 144.507 94.7245 144.937 95.5104 144.988C96.2631 145.039 96.9631 144.72 97.4406 144.12C97.6144 143.901 97.7835 143.652 97.9425 143.378L100.429 138.78C101.794 136.255 102.279 133.415 101.796 130.784C101.571 129.561 101.162 128.413 100.58 127.373C100.218 126.728 99.7294 126.076 99.0862 125.378L92.7543 118.518C93.9047 119.253 95.0484 119.999 96.1772 120.766C101.083 124.099 104.373 128.188 104.751 130.247C105.356 133.542 104.761 137.074 103.075 140.192L100.566 144.833C100.312 145.271 100.061 145.639 99.7983 145.97C98.7737 147.259 97.2844 147.979 95.6693 147.979Z" fill="#36190D"/>
</g>
<mask id="mask14_203_7789" style="mask-type:luminance" maskUnits="userSpaceOnUse" x="43" y="0" width="174" height="144">
<path d="M52.4058 1.36545e-05C47.2116 1.36545e-05 43 4.18388 43 9.34417V134.235C43 139.395 47.2116 143.579 52.4058 143.579H207.504C212.699 143.579 216.909 139.395 216.909 134.235V9.34417C216.909 4.18388 212.699 1.36545e-05 207.504 1.36545e-05H52.4058Z" fill="white"/>
</mask>
<g mask="url(#mask14_203_7789)">
<path d="M134.168 128.525C134.168 130.799 132.314 132.641 130.026 132.641C127.738 132.641 125.883 130.799 125.883 128.525C125.883 126.252 127.738 124.409 130.026 124.409C132.314 124.409 134.168 126.252 134.168 128.525Z" fill="#FFA72F"/>
</g>
<mask id="mask15_203_7789" style="mask-type:luminance" maskUnits="userSpaceOnUse" x="43" y="0" width="174" height="144">
<path d="M52.4058 1.36545e-05C47.2116 1.36545e-05 43 4.18388 43 9.34417V134.235C43 139.395 47.2116 143.579 52.4058 143.579H207.504C212.699 143.579 216.909 139.395 216.909 134.235V9.34417C216.909 4.18388 212.699 1.36545e-05 207.504 1.36545e-05H52.4058Z" fill="white"/>
</mask>
<g mask="url(#mask15_203_7789)">
<path d="M130.026 121.424C126.085 121.424 122.879 124.609 122.879 128.525C122.879 132.441 126.085 135.627 130.026 135.627C133.967 135.627 137.173 132.441 137.173 128.525C137.173 124.609 133.967 121.424 130.026 121.424ZM130.026 124.409C132.314 124.409 134.168 126.252 134.168 128.525C134.168 130.799 132.314 132.641 130.026 132.641C127.738 132.641 125.883 130.799 125.883 128.525C125.883 126.252 127.738 124.409 130.026 124.409Z" fill="#36190D"/>
</g>
<mask id="mask16_203_7789" style="mask-type:luminance" maskUnits="userSpaceOnUse" x="43" y="0" width="174" height="144">
<path d="M52.4058 1.36545e-05C47.2116 1.36545e-05 43 4.18388 43 9.34417V134.235C43 139.395 47.2116 143.579 52.4058 143.579H207.504C212.699 143.579 216.909 139.395 216.909 134.235V9.34417C216.909 4.18388 212.699 1.36545e-05 207.504 1.36545e-05H52.4058Z" fill="white"/>
</mask>
<g mask="url(#mask16_203_7789)">
<path d="M141.687 123.061C141.611 122.991 140.409 121.814 140.226 117.808C140.236 117.344 140.243 113.192 137.374 110.256C135.591 108.43 133.119 107.505 130.026 107.505C126.932 107.505 124.46 108.43 122.677 110.255C119.696 113.308 119.825 117.752 119.827 117.752C119.643 121.879 118.4 123.031 118.405 123.031L118.401 123.034C117.763 123.478 117.786 124.424 118.446 124.836L118.45 124.839C121.895 126.996 127.781 127.314 129.514 127.361L130.528 127.369L131.116 127.366V127.34C133.32 127.242 138.471 126.8 141.609 124.835L141.618 124.829C142.25 124.422 142.286 123.515 141.687 123.061Z" fill="#FFA72F"/>
</g>
<mask id="mask17_203_7789" style="mask-type:luminance" maskUnits="userSpaceOnUse" x="43" y="0" width="174" height="144">
<path d="M52.4058 1.36545e-05C47.2116 1.36545e-05 43 4.18388 43 9.34417V134.235C43 139.395 47.2116 143.579 52.4058 143.579H207.504C212.699 143.579 216.909 139.395 216.909 134.235V9.34417C216.909 4.18388 212.699 1.36545e-05 207.504 1.36545e-05H52.4058Z" fill="white"/>
</mask>
<g mask="url(#mask17_203_7789)">
<path d="M130.026 104.52C126.089 104.52 122.891 105.75 120.521 108.176C118.918 109.818 117.771 112 117.204 114.487C117.085 115.006 116.797 116.411 116.831 117.62H116.826C116.732 119.727 116.326 120.705 116.175 121.001C115.361 121.784 114.905 122.873 114.933 124.02C114.967 125.385 115.681 126.635 116.845 127.363C120.828 129.857 126.975 130.279 129.433 130.345C129.451 130.345 129.47 130.346 129.488 130.346L130.503 130.354C130.511 130.355 130.52 130.355 130.528 130.355C130.534 130.355 130.539 130.355 130.545 130.355L131.133 130.351C131.314 130.35 131.491 130.333 131.664 130.302C134.649 130.138 139.745 129.531 143.211 127.36C143.221 127.354 143.23 127.348 143.24 127.341C144.368 126.616 145.065 125.399 145.116 124.079C145.162 122.924 144.708 121.81 143.887 121.012C143.751 120.761 143.336 119.835 143.231 117.758C143.241 116.561 143.045 111.774 139.53 108.176C137.161 105.75 133.963 104.52 130.026 104.52ZM130.026 107.505C133.119 107.505 135.591 108.43 137.374 110.256C140.243 113.193 140.236 117.344 140.226 117.808C140.409 121.814 141.611 122.991 141.687 123.062C142.286 123.516 142.25 124.422 141.618 124.829L141.609 124.835C138.471 126.801 133.32 127.241 131.115 127.34V127.366L130.528 127.369L129.514 127.361C127.781 127.315 121.895 126.997 118.45 124.838L118.446 124.836C117.786 124.424 117.763 123.477 118.401 123.034L118.406 123.031C118.4 123.031 119.643 121.879 119.827 117.752C119.825 117.752 119.696 113.308 122.677 110.255C124.46 108.43 126.932 107.505 130.026 107.505Z" fill="#36190D"/>
</g>
<mask id="mask18_203_7789" style="mask-type:luminance" maskUnits="userSpaceOnUse" x="43" y="0" width="174" height="144">
<path d="M52.4058 1.36545e-05C47.2116 1.36545e-05 43 4.18388 43 9.34417V134.235C43 139.395 47.2116 143.579 52.4058 143.579H207.504C212.699 143.579 216.909 139.395 216.909 134.235V9.34417C216.909 4.18388 212.699 1.36545e-05 207.504 1.36545e-05H52.4058Z" fill="white"/>
</mask>
<g mask="url(#mask18_203_7789)">
<path d="M136.861 110.749C139.924 113.793 140.231 118.424 137.546 121.092C134.861 123.76 130.201 123.455 127.137 120.41C124.072 117.366 123.766 112.736 126.451 110.068C129.136 107.4 133.797 107.705 136.861 110.749Z" fill="#FFB455"/>
</g>
<mask id="mask19_203_7789" style="mask-type:luminance" maskUnits="userSpaceOnUse" x="43" y="0" width="174" height="144">
<path d="M52.4058 1.36545e-05C47.2116 1.36545e-05 43 4.18388 43 9.34417V134.235C43 139.395 47.2116 143.579 52.4058 143.579H207.504C212.699 143.579 216.909 139.395 216.909 134.235V9.34417C216.909 4.18388 212.699 1.36545e-05 207.504 1.36545e-05H52.4058Z" fill="white"/>
</mask>
<g mask="url(#mask19_203_7789)">
<path d="M162.743 99.1411C162.419 98.1163 161.78 96.8167 161.78 96.8167H130.026H98.2719C98.2719 96.8167 97.6321 98.1163 97.3081 99.1411C97.3081 99.1411 108.571 112.696 130.023 112.699C130.024 112.699 130.025 112.699 130.026 112.699H130.029C151.48 112.696 162.743 99.1411 162.743 99.1411Z" fill="#FF2530" stroke="#36190D" stroke-width="6.30667" stroke-miterlimit="10"/>
</g>
<mask id="mask20_203_7789" style="mask-type:luminance" maskUnits="userSpaceOnUse" x="43" y="0" width="174" height="144">
<path d="M52.4058 1.36545e-05C47.2116 1.36545e-05 43 4.18388 43 9.34417V134.235C43 139.395 47.2116 143.579 52.4058 143.579H207.504C212.699 143.579 216.909 139.395 216.909 134.235V9.34417C216.909 4.18388 212.699 1.36545e-05 207.504 1.36545e-05H52.4058Z" fill="white"/>
</mask>
<g mask="url(#mask20_203_7789)">
<path d="M94.4272 35.4673C94.4272 35.4673 82.7293 47.9416 64.621 49.8709C60.3777 50.3232 56.7559 53.2161 55.4276 57.2461C55.4025 57.3234 55.3775 57.4007 55.3532 57.4793C53.3613 63.9177 57.5276 70.5692 64.1462 72.0241C65.9886 72.4293 68.1292 72.6974 70.5356 72.6712C80.5258 72.5617 89.6232 66.9646 94.5422 58.3247C95.8536 56.0204 97.0325 53.3479 97.8657 50.3023L94.4272 35.4673Z" fill="white"/>
</g>
<mask id="mask21_203_7789" style="mask-type:luminance" maskUnits="userSpaceOnUse" x="43" y="0" width="174" height="144">
<path d="M52.4058 1.36545e-05C47.2116 1.36545e-05 43 4.18388 43 9.34417V134.235C43 139.395 47.2116 143.579 52.4058 143.579H207.504C212.699 143.579 216.909 139.395 216.909 134.235V9.34417C216.909 4.18388 212.699 1.36545e-05 207.504 1.36545e-05H52.4058Z" fill="white"/>
</mask>
<g mask="url(#mask21_203_7789)">
<path d="M96.0853 29.3198L92.2316 33.4298C92.0652 33.6045 80.9699 45.1266 64.3002 46.9027C58.8698 47.4813 54.266 51.1766 52.5725 56.3174C52.5413 56.4115 52.5102 56.5076 52.4811 56.6037C51.2976 60.4267 51.771 64.4527 53.8135 67.937C55.8967 71.4919 59.4265 74.0441 63.4967 74.9392C65.6664 75.4157 67.9253 75.6576 70.21 75.6576C70.3284 75.6576 70.4481 75.6569 70.5685 75.6556C81.467 75.5366 91.6553 69.4584 97.1567 59.7944C98.7217 57.0452 99.9357 54.1153 100.765 51.0859L100.962 50.3628L100.793 49.6324L97.3548 34.7973L96.0853 29.3198ZM94.427 35.4673L97.8655 50.3024C97.0322 53.3479 95.8534 56.0197 94.5419 58.3247C89.6229 66.9646 80.5255 72.5617 70.5353 72.6706C70.4264 72.6719 70.3175 72.6726 70.21 72.6726C67.9355 72.6726 65.9051 72.4112 64.146 72.0241C57.5273 70.5692 53.3611 63.9171 55.3529 57.4793C55.3772 57.4007 55.4023 57.3234 55.428 57.2461C56.7556 53.2162 60.3774 50.3225 64.6207 49.8709C82.729 47.9416 94.427 35.4673 94.427 35.4673Z" fill="#36190D"/>
</g>
<mask id="mask22_203_7789" style="mask-type:luminance" maskUnits="userSpaceOnUse" x="43" y="0" width="174" height="144">
<path d="M52.4058 1.36545e-05C47.2116 1.36545e-05 43 4.18388 43 9.34417V134.235C43 139.395 47.2116 143.579 52.4058 143.579H207.504C212.699 143.579 216.909 139.395 216.909 134.235V9.34417C216.909 4.18388 212.699 1.36545e-05 207.504 1.36545e-05H52.4058Z" fill="white"/>
</mask>
<g mask="url(#mask22_203_7789)">
<path d="M87.6196 60.4562C84.7993 65.2657 79.7991 68.4799 74.2301 69.0739C71.8183 69.3333 70.0706 69.039 68.8147 68.5504C66.4806 67.6439 65.1652 65.0359 65.9233 62.6577C65.9768 62.487 66.0417 62.3223 66.1134 62.1631C67.8489 58.2487 74.153 58.3313 74.153 58.3313C85.1192 57.9899 88.9648 51.3203 89.468 50.3486C89.5093 50.272 89.5275 50.231 89.5275 50.231C90.3804 54.1401 89.255 57.66 87.6196 60.4562Z" fill="#FFE3E3"/>
</g>
<mask id="mask23_203_7789" style="mask-type:luminance" maskUnits="userSpaceOnUse" x="43" y="0" width="174" height="144">
<path d="M52.4058 1.36545e-05C47.2116 1.36545e-05 43 4.18388 43 9.34417V134.235C43 139.395 47.2116 143.579 52.4058 143.579H207.504C212.699 143.579 216.909 139.395 216.909 134.235V9.34417C216.909 4.18388 212.699 1.36545e-05 207.504 1.36545e-05H52.4058Z" fill="white"/>
</mask>
<g mask="url(#mask23_203_7789)">
<path d="M89.4681 50.3487C89.1834 52.5153 88.3778 54.4869 87.3829 56.1945C84.568 61.0033 79.5618 64.2175 73.9989 64.8122C71.5878 65.0716 69.834 64.7766 68.578 64.288C67.5115 63.8761 66.6579 63.1053 66.1128 62.1632C67.849 58.2488 74.1531 58.3307 74.1531 58.3307C85.1192 57.9894 88.9642 51.3198 89.4681 50.3487Z" fill="#F5B8AF"/>
</g>
<mask id="mask24_203_7789" style="mask-type:luminance" maskUnits="userSpaceOnUse" x="43" y="0" width="174" height="144">
<path d="M52.4058 1.36545e-05C47.2116 1.36545e-05 43 4.18388 43 9.34417V134.235C43 139.395 47.2116 143.579 52.4058 143.579H207.504C212.699 143.579 216.909 139.395 216.909 134.235V9.34417C216.909 4.18388 212.699 1.36545e-05 207.504 1.36545e-05H52.4058Z" fill="white"/>
</mask>
<g mask="url(#mask24_203_7789)">
<path d="M165.624 35.4673C165.624 35.4673 177.323 47.9416 195.431 49.8709C199.674 50.3232 203.296 53.2161 204.624 57.2461C204.649 57.3234 204.674 57.4007 204.698 57.4793C206.69 63.9177 202.524 70.5692 195.905 72.0241C194.063 72.4293 191.922 72.6974 189.516 72.6712C179.526 72.5617 170.428 66.9646 165.509 58.3247C164.198 56.0204 163.019 53.3479 162.186 50.3023L165.624 35.4673Z" fill="#995036"/>
</g>
<mask id="mask25_203_7789" style="mask-type:luminance" maskUnits="userSpaceOnUse" x="43" y="0" width="174" height="144">
<path d="M52.4058 1.36545e-05C47.2116 1.36545e-05 43 4.18388 43 9.34417V134.235C43 139.395 47.2116 143.579 52.4058 143.579H207.504C212.699 143.579 216.909 139.395 216.909 134.235V9.34417C216.909 4.18388 212.699 1.36545e-05 207.504 1.36545e-05H52.4058Z" fill="white"/>
</mask>
<g mask="url(#mask25_203_7789)">
<path d="M163.964 29.3476L162.697 34.7976L159.258 49.6326L159.089 50.3631L159.287 51.0862C160.116 54.1149 161.329 57.0448 162.894 59.7939C168.396 69.4586 178.584 75.5369 189.483 75.6558C189.604 75.6572 189.723 75.6578 189.842 75.6578C192.126 75.6578 194.385 75.4159 196.554 74.9388C200.625 74.0437 204.155 71.4921 206.238 67.9372C208.281 64.4529 208.753 60.427 207.57 56.6019C207.541 56.5072 207.51 56.4118 207.479 56.317C205.786 51.1769 201.182 47.4809 195.751 46.903C179.039 45.1222 167.929 33.5449 167.819 33.4287L163.964 29.3476ZM165.624 35.4675C165.624 35.4675 177.323 47.9419 195.431 49.8705C199.674 50.3228 203.296 53.2164 204.624 57.2457C204.649 57.323 204.674 57.4009 204.698 57.4796C206.691 63.9173 202.524 70.5688 195.905 72.0243C194.147 72.4114 192.116 72.6728 189.842 72.6728C189.733 72.6728 189.625 72.6721 189.516 72.6708C179.526 72.5613 170.428 66.9648 165.51 58.3243C164.198 56.02 163.019 53.3474 162.186 50.3026L165.624 35.4675Z" fill="#36190D"/>
</g>
<mask id="mask26_203_7789" style="mask-type:luminance" maskUnits="userSpaceOnUse" x="43" y="0" width="174" height="144">
<path d="M52.4058 1.36545e-05C47.2116 1.36545e-05 43 4.18388 43 9.34417V134.235C43 139.395 47.2116 143.579 52.4058 143.579H207.504C212.699 143.579 216.909 139.395 216.909 134.235V9.34417C216.909 4.18388 212.699 1.36545e-05 207.504 1.36545e-05H52.4058Z" fill="white"/>
</mask>
<g mask="url(#mask26_203_7789)">
<path d="M172.432 60.4562C175.252 65.2657 180.252 68.4799 185.821 69.0739C188.233 69.3333 189.981 69.039 191.237 68.5504C193.571 67.6439 194.886 65.0359 194.128 62.6577C194.075 62.487 194.01 62.3223 193.938 62.1631C192.203 58.2487 185.899 58.3313 185.899 58.3313C174.932 57.9899 171.087 51.3203 170.584 50.3486C170.542 50.272 170.524 50.231 170.524 50.231C169.671 54.1401 170.797 57.66 172.432 60.4562Z" fill="#FFE3E3"/>
</g>
<mask id="mask27_203_7789" style="mask-type:luminance" maskUnits="userSpaceOnUse" x="43" y="0" width="174" height="144">
<path d="M52.4058 1.36545e-05C47.2116 1.36545e-05 43 4.18388 43 9.34417V134.235C43 139.395 47.2116 143.579 52.4058 143.579H207.504C212.699 143.579 216.909 139.395 216.909 134.235V9.34417C216.909 4.18388 212.699 1.36545e-05 207.504 1.36545e-05H52.4058Z" fill="white"/>
</mask>
<g mask="url(#mask27_203_7789)">
<path d="M170.583 50.3487C170.868 52.5153 171.674 54.4869 172.669 56.1945C175.484 61.0033 180.49 64.2175 186.053 64.8122C188.464 65.0716 190.218 64.7766 191.474 64.288C192.54 63.8761 193.394 63.1053 193.939 62.1632C192.203 58.2488 185.898 58.3307 185.898 58.3307C174.932 57.9894 171.087 51.3198 170.583 50.3487Z" fill="#F5B8AF"/>
</g>
<mask id="mask28_203_7789" style="mask-type:luminance" maskUnits="userSpaceOnUse" x="43" y="0" width="174" height="144">
<path d="M52.4058 1.36545e-05C47.2116 1.36545e-05 43 4.18388 43 9.34417V134.235C43 139.395 47.2116 143.579 52.4058 143.579H207.504C212.699 143.579 216.909 139.395 216.909 134.235V9.34417C216.909 4.18388 212.699 1.36545e-05 207.504 1.36545e-05H52.4058Z" fill="white"/>
</mask>
<g mask="url(#mask28_203_7789)">
<path d="M130.026 20.5838C98.2047 20.5838 84.7862 45.1844 79.2869 62.4554C75.6117 73.997 80.1228 86.5003 90.5702 93.3459C91.2242 93.7747 91.8837 94.19 92.5472 94.5932C115.318 108.411 144.733 108.411 167.504 94.5932C168.168 94.19 168.827 93.7747 169.481 93.3459C179.929 86.5003 184.44 73.997 180.765 62.4554C175.265 45.1844 161.847 20.5838 130.026 20.5838Z" fill="white"/>
</g>
<mask id="mask29_203_7789" style="mask-type:luminance" maskUnits="userSpaceOnUse" x="43" y="0" width="174" height="144">
<path d="M52.4058 1.36545e-05C47.2116 1.36545e-05 43 4.18388 43 9.34417V134.235C43 139.395 47.2116 143.579 52.4058 143.579H207.504C212.699 143.579 216.909 139.395 216.909 134.235V9.34417C216.909 4.18388 212.699 1.36545e-05 207.504 1.36545e-05H52.4058Z" fill="white"/>
</mask>
<g mask="url(#mask29_203_7789)">
<path d="M130.026 17.5986C115.052 17.5986 102.466 22.7723 92.6174 32.9766C85.5909 40.2557 80.1424 49.8707 76.4218 61.5548C72.3097 74.4693 77.3308 88.2466 88.9158 95.8382C89.5881 96.2784 90.2827 96.7165 90.9813 97.1405C102.626 104.207 116.127 107.942 130.026 107.942C143.924 107.942 157.425 104.207 169.07 97.1405C169.769 96.7165 170.464 96.2777 171.136 95.8382C182.721 88.2466 187.742 74.4693 183.63 61.5548C179.909 49.8707 174.46 40.2557 167.434 32.9766C157.585 22.7723 144.999 17.5986 130.026 17.5986ZM130.026 20.5836C161.847 20.5836 175.265 45.1842 180.765 62.4553C184.44 73.9969 179.929 86.5001 169.481 93.3457C168.827 93.7745 168.168 94.1898 167.504 94.593C156.119 101.502 143.072 104.957 130.026 104.957C116.979 104.957 103.933 101.502 92.5471 94.593C91.8836 94.1898 91.2241 93.7745 90.5701 93.3457C80.1227 86.5001 75.6116 73.9969 79.2868 62.4553C84.7861 45.1842 98.2046 20.5836 130.026 20.5836Z" fill="#36190D"/>
</g>
<mask id="mask30_203_7789" style="mask-type:luminance" maskUnits="userSpaceOnUse" x="43" y="0" width="174" height="144">
<path d="M52.4058 1.36545e-05C47.2116 1.36545e-05 43 4.18388 43 9.34417V134.235C43 139.395 47.2116 143.579 52.4058 143.579H207.504C212.699 143.579 216.909 139.395 216.909 134.235V9.34417C216.909 4.18388 212.699 1.36545e-05 207.504 1.36545e-05H52.4058Z" fill="white"/>
</mask>
<g mask="url(#mask30_203_7789)">
<path d="M147.893 99.8228H145.046H130.026H115.006H112.158L111.959 102.645C111.684 106.531 113.684 114.725 123.217 117.928C125.409 118.666 127.7 119.039 130.026 119.039C132.351 119.039 134.643 118.666 136.835 117.928C146.368 114.725 148.367 106.531 148.093 102.645L147.893 99.8228ZM145.046 102.858C145.046 102.858 145.674 111.754 135.857 115.054C133.971 115.688 131.998 116.005 130.026 116.005C128.053 116.005 126.081 115.688 124.195 115.054C114.377 111.754 115.006 102.858 115.006 102.858H130.026H145.046Z" fill="#36190D"/>
</g>
<mask id="mask31_203_7789" style="mask-type:luminance" maskUnits="userSpaceOnUse" x="43" y="0" width="174" height="144">
<path d="M52.4058 1.36545e-05C47.2116 1.36545e-05 43 4.18388 43 9.34417V134.235C43 139.395 47.2116 143.579 52.4058 143.579H207.504C212.699 143.579 216.909 139.395 216.909 134.235V9.34417C216.909 4.18388 212.699 1.36545e-05 207.504 1.36545e-05H52.4058Z" fill="white"/>
</mask>
<g mask="url(#mask31_203_7789)">
<path d="M181.718 66.5077C177.677 67.5439 173.34 68.103 168.838 68.103C146.673 68.103 128.704 54.5696 128.704 37.8812C128.704 31.5644 131.275 25.7012 135.677 20.8567C163.464 23.5763 175.604 46.2456 180.764 62.4576C181.19 63.7942 181.505 65.1476 181.718 66.5077Z" fill="#995036"/>
</g>
<mask id="mask32_203_7789" style="mask-type:luminance" maskUnits="userSpaceOnUse" x="43" y="0" width="174" height="144">
<path d="M52.4058 1.36545e-05C47.2116 1.36545e-05 43 4.18388 43 9.34417V134.235C43 139.395 47.2116 143.579 52.4058 143.579H207.504C212.699 143.579 216.909 139.395 216.909 134.235V9.34417C216.909 4.18388 212.699 1.36545e-05 207.504 1.36545e-05H52.4058Z" fill="white"/>
</mask>
<g mask="url(#mask32_203_7789)">
<path d="M79.3015 16.0202C79.2062 16.7265 79.3022 17.4697 79.6214 18.1598L81.505 22.2187L81.5043 22.2248L88.9562 38.3077C88.9562 38.3077 99.1791 36.8475 102.796 26.6929L100.934 25.2622L85.5793 13.4558C84.2963 12.4646 82.5276 12.3712 81.1412 13.2072C80.0989 13.8402 79.455 14.8885 79.3015 16.0202Z" fill="#C8BAB6"/>
</g>
<mask id="mask33_203_7789" style="mask-type:luminance" maskUnits="userSpaceOnUse" x="43" y="0" width="174" height="144">
<path d="M52.4058 1.36545e-05C47.2116 1.36545e-05 43 4.18388 43 9.34417V134.235C43 139.395 47.2116 143.579 52.4058 143.579H207.504C212.699 143.579 216.909 139.395 216.909 134.235V9.34417C216.909 4.18388 212.699 1.36545e-05 207.504 1.36545e-05H52.4058Z" fill="white"/>
</mask>
<g mask="url(#mask33_203_7789)">
<path d="M83.1809 9.65513C81.9114 9.65513 80.6677 10.0012 79.5821 10.6551C77.7892 11.7444 76.6042 13.5527 76.3242 15.6225C76.149 16.9154 76.3452 18.2238 76.8917 19.4058L78.4594 22.7853L78.7753 23.4728L86.2272 39.5564L87.1652 41.5798L89.3843 41.2626C89.8753 41.1928 101.454 39.4106 105.629 27.6889L106.354 25.6528L104.634 24.3316L102.772 22.9002L87.4182 11.0952C86.2184 10.1679 84.7115 9.65513 83.1809 9.65513ZM83.1809 12.6402C84.0311 12.6402 84.8779 12.9143 85.5792 13.456L100.934 25.2623L102.797 26.693C99.1797 36.8476 88.9569 38.3079 88.9569 38.3079L81.5043 22.2249L81.505 22.2188L79.622 18.16C79.3028 17.4698 79.2061 16.7259 79.3015 16.0203C79.455 14.8887 80.0989 13.8403 81.1411 13.2073C81.7694 12.8283 82.4762 12.6402 83.1809 12.6402Z" fill="#36190D"/>
</g>
<mask id="mask34_203_7789" style="mask-type:luminance" maskUnits="userSpaceOnUse" x="43" y="0" width="174" height="144">
<path d="M52.4058 1.36545e-05C47.2116 1.36545e-05 43 4.18388 43 9.34417V134.235C43 139.395 47.2116 143.579 52.4058 143.579H207.504C212.699 143.579 216.909 139.395 216.909 134.235V9.34417C216.909 4.18388 212.699 1.36545e-05 207.504 1.36545e-05H52.4058Z" fill="white"/>
</mask>
<g mask="url(#mask34_203_7789)">
<path d="M81.5042 22.2247L88.9567 38.3083C88.9567 38.3083 99.1796 36.8474 102.797 26.6935L100.934 25.2621C87.6771 31.6865 81.5042 22.2247 81.5042 22.2247Z" fill="#C0ACA4"/>
</g>
<mask id="mask35_203_7789" style="mask-type:luminance" maskUnits="userSpaceOnUse" x="43" y="0" width="174" height="144">
<path d="M52.4058 1.36545e-05C47.2116 1.36545e-05 43 4.18388 43 9.34417V134.235C43 139.395 47.2116 143.579 52.4058 143.579H207.504C212.699 143.579 216.909 139.395 216.909 134.235V9.34417C216.909 4.18388 212.699 1.36545e-05 207.504 1.36545e-05H52.4058Z" fill="white"/>
</mask>
<g mask="url(#mask35_203_7789)">
<g opacity="0.300003">
<mask id="mask36_203_7789" style="mask-type:luminance" maskUnits="userSpaceOnUse" x="79" y="12" width="24" height="27">
<path d="M102.798 26.6919L85.5809 13.4542C84.2952 12.4657 82.5286 12.3689 81.1414 13.2102C79.4452 14.2391 78.7925 16.3673 79.6237 18.1609L88.9579 38.3108C88.9579 38.3108 99.1807 36.8499 102.798 26.6919Z" fill="white"/>
</mask>
<g mask="url(#mask36_203_7789)">
<path d="M99.5051 19.2638C99.5051 19.2638 93.3511 32.0023 80.3032 32.9263" stroke="#B7A19A" stroke-width="3.504" stroke-miterlimit="10"/>
</g>
<mask id="mask37_203_7789" style="mask-type:luminance" maskUnits="userSpaceOnUse" x="79" y="12" width="24" height="27">
<path d="M102.798 26.6919L85.5809 13.4542C84.2952 12.4657 82.5286 12.3689 81.1414 13.2102C79.4452 14.2391 78.7925 16.3673 79.6237 18.1609L88.9579 38.3108C88.9579 38.3108 99.1807 36.8499 102.798 26.6919Z" fill="white"/>
</mask>
<g mask="url(#mask37_203_7789)">
<path d="M94.3396 13.1581C94.3396 13.1581 88.1856 25.8966 75.1377 26.8206" stroke="#B7A19A" stroke-width="3.504" stroke-miterlimit="10"/>
</g>
</g>
</g>
<mask id="mask38_203_7789" style="mask-type:luminance" maskUnits="userSpaceOnUse" x="43" y="0" width="174" height="144">
<path d="M52.4058 1.36545e-05C47.2116 1.36545e-05 43 4.18388 43 9.34417V134.235C43 139.395 47.2116 143.579 52.4058 143.579H207.504C212.699 143.579 216.909 139.395 216.909 134.235V9.34417C216.909 4.18388 212.699 1.36545e-05 207.504 1.36545e-05H52.4058Z" fill="white"/>
</mask>
<g mask="url(#mask38_203_7789)">
<path d="M180.75 16.0202C180.845 16.7265 180.749 17.4697 180.43 18.1598L178.546 22.2187L178.547 22.2248L171.095 38.3077C171.095 38.3077 160.872 36.8475 157.255 26.6929L159.118 25.2622L174.472 13.4558C175.755 12.4646 177.524 12.3712 178.91 13.2072C179.953 13.8402 180.596 14.8885 180.75 16.0202Z" fill="#C8BAB6"/>
</g>
<mask id="mask39_203_7789" style="mask-type:luminance" maskUnits="userSpaceOnUse" x="43" y="0" width="174" height="144">
<path d="M52.4058 1.36545e-05C47.2116 1.36545e-05 43 4.18388 43 9.34417V134.235C43 139.395 47.2116 143.579 52.4058 143.579H207.504C212.699 143.579 216.909 139.395 216.909 134.235V9.34417C216.909 4.18388 212.699 1.36545e-05 207.504 1.36545e-05H52.4058Z" fill="white"/>
</mask>
<g mask="url(#mask39_203_7789)">
<path d="M176.871 9.65513C175.34 9.65513 173.833 10.1679 172.628 11.0999L157.279 22.9009L155.417 24.3316L153.698 25.6528L154.423 27.6889C158.598 39.4106 170.176 41.1928 170.668 41.2626L172.887 41.5798L173.824 39.5564L181.277 23.4728L181.636 22.6987L181.635 22.6933L183.158 19.4092C183.707 18.2238 183.903 16.9154 183.728 15.6218C183.448 13.5527 182.263 11.7444 180.477 10.6598C179.384 10.0012 178.14 9.65513 176.871 9.65513ZM176.871 12.6402C177.575 12.6402 178.282 12.8283 178.91 13.2073C179.952 13.8403 180.597 14.8887 180.75 16.0203C180.846 16.7259 180.749 17.4698 180.43 18.16L178.547 22.2188L178.548 22.2249L171.095 38.3079C171.095 38.3079 160.872 36.8476 157.255 26.693L159.118 25.2623L174.473 13.456C175.174 12.9143 176.021 12.6402 176.871 12.6402Z" fill="#36190D"/>
</g>
<mask id="mask40_203_7789" style="mask-type:luminance" maskUnits="userSpaceOnUse" x="43" y="0" width="174" height="144">
<path d="M52.4058 1.36545e-05C47.2116 1.36545e-05 43 4.18388 43 9.34417V134.235C43 139.395 47.2116 143.579 52.4058 143.579H207.504C212.699 143.579 216.909 139.395 216.909 134.235V9.34417C216.909 4.18388 212.699 1.36545e-05 207.504 1.36545e-05H52.4058Z" fill="white"/>
</mask>
<g mask="url(#mask40_203_7789)">
<path d="M178.547 22.2247L171.095 38.3083C171.095 38.3083 160.872 36.8474 157.255 26.6935L159.118 25.2621C172.374 31.6865 178.547 22.2247 178.547 22.2247Z" fill="#C0ACA4"/>
</g>
<mask id="mask41_203_7789" style="mask-type:luminance" maskUnits="userSpaceOnUse" x="43" y="0" width="174" height="144">
<path d="M52.4058 1.36545e-05C47.2116 1.36545e-05 43 4.18388 43 9.34417V134.235C43 139.395 47.2116 143.579 52.4058 143.579H207.504C212.699 143.579 216.909 139.395 216.909 134.235V9.34417C216.909 4.18388 212.699 1.36545e-05 207.504 1.36545e-05H52.4058Z" fill="white"/>
</mask>
<g mask="url(#mask41_203_7789)">
<g opacity="0.300003">
<mask id="mask42_203_7789" style="mask-type:luminance" maskUnits="userSpaceOnUse" x="157" y="12" width="24" height="27">
<path d="M157.254 26.6919L174.471 13.4542C175.756 12.4657 177.523 12.3689 178.91 13.2102C180.606 14.2391 181.259 16.3673 180.428 18.1609L171.094 38.3108C171.094 38.3108 160.871 36.8499 157.254 26.6919Z" fill="white"/>
</mask>
<g mask="url(#mask42_203_7789)">
<path d="M160.546 19.2638C160.546 19.2638 166.7 32.0023 179.748 32.9263" stroke="#B7A19A" stroke-width="3.504" stroke-miterlimit="10"/>
</g>
<mask id="mask43_203_7789" style="mask-type:luminance" maskUnits="userSpaceOnUse" x="157" y="12" width="24" height="27">
<path d="M157.254 26.6919L174.471 13.4542C175.756 12.4657 177.523 12.3689 178.91 13.2102C180.606 14.2391 181.259 16.3673 180.428 18.1609L171.094 38.3108C171.094 38.3108 160.871 36.8499 157.254 26.6919Z" fill="white"/>
</mask>
<g mask="url(#mask43_203_7789)">
<path d="M165.712 13.1581C165.712 13.1581 171.866 25.8966 184.914 26.8206" stroke="#B7A19A" stroke-width="3.504" stroke-miterlimit="10"/>
</g>
</g>
</g>
<mask id="mask44_203_7789" style="mask-type:luminance" maskUnits="userSpaceOnUse" x="43" y="0" width="174" height="144">
<path d="M52.4058 1.36545e-05C47.2116 1.36545e-05 43 4.18388 43 9.34417V134.235C43 139.395 47.2116 143.579 52.4058 143.579H207.504C212.699 143.579 216.909 139.395 216.909 134.235V9.34417C216.909 4.18388 212.699 1.36545e-05 207.504 1.36545e-05H52.4058Z" fill="white"/>
</mask>
<g mask="url(#mask44_203_7789)">
<path d="M117.431 50.3487C117.431 55.7086 113.725 60.0531 109.154 60.0531C104.582 60.0531 100.876 55.7086 100.876 50.3487C100.876 44.9889 104.582 40.6444 109.154 40.6444C113.725 40.6444 117.431 44.9889 117.431 50.3487Z" fill="#36190D"/>
</g>
<mask id="mask45_203_7789" style="mask-type:luminance" maskUnits="userSpaceOnUse" x="43" y="0" width="174" height="144">
<path d="M52.4058 1.36545e-05C47.2116 1.36545e-05 43 4.18388 43 9.34417V134.235C43 139.395 47.2116 143.579 52.4058 143.579H207.504C212.699 143.579 216.909 139.395 216.909 134.235V9.34417C216.909 4.18388 212.699 1.36545e-05 207.504 1.36545e-05H52.4058Z" fill="white"/>
</mask>
<g mask="url(#mask45_203_7789)">
<path d="M115.091 46.6876C115.091 48.7096 113.441 50.3486 111.406 50.3486C109.371 50.3486 107.722 48.7096 107.722 46.6876C107.722 44.6655 109.371 43.0265 111.406 43.0265C113.441 43.0265 115.091 44.6655 115.091 46.6876Z" fill="white"/>
</g>
<mask id="mask46_203_7789" style="mask-type:luminance" maskUnits="userSpaceOnUse" x="43" y="0" width="174" height="144">
<path d="M52.4058 1.36545e-05C47.2116 1.36545e-05 43 4.18388 43 9.34417V134.235C43 139.395 47.2116 143.579 52.4058 143.579H207.504C212.699 143.579 216.909 139.395 216.909 134.235V9.34417C216.909 4.18388 212.699 1.36545e-05 207.504 1.36545e-05H52.4058Z" fill="white"/>
</mask>
<g mask="url(#mask46_203_7789)">
<path d="M142.621 50.3487C142.621 55.7086 146.327 60.0531 150.898 60.0531C155.469 60.0531 159.176 55.7086 159.176 50.3487C159.176 44.9889 155.469 40.6444 150.898 40.6444C146.327 40.6444 142.621 44.9889 142.621 50.3487Z" fill="#36190D"/>
</g>
<mask id="mask47_203_7789" style="mask-type:luminance" maskUnits="userSpaceOnUse" x="43" y="0" width="174" height="144">
<path d="M52.4058 1.36545e-05C47.2116 1.36545e-05 43 4.18388 43 9.34417V134.235C43 139.395 47.2116 143.579 52.4058 143.579H207.504C212.699 143.579 216.909 139.395 216.909 134.235V9.34417C216.909 4.18388 212.699 1.36545e-05 207.504 1.36545e-05H52.4058Z" fill="white"/>
</mask>
<g mask="url(#mask47_203_7789)">
<path d="M144.961 46.6876C144.961 48.7096 146.61 50.3486 148.645 50.3486C150.68 50.3486 152.33 48.7096 152.33 46.6876C152.33 44.6655 150.68 43.0265 148.645 43.0265C146.61 43.0265 144.961 44.6655 144.961 46.6876Z" fill="white"/>
</g>
<mask id="mask48_203_7789" style="mask-type:luminance" maskUnits="userSpaceOnUse" x="43" y="0" width="174" height="144">
<path d="M52.4058 1.36545e-05C47.2116 1.36545e-05 43 4.18388 43 9.34417V134.235C43 139.395 47.2116 143.579 52.4058 143.579H207.504C212.699 143.579 216.909 139.395 216.909 134.235V9.34417C216.909 4.18388 212.699 1.36545e-05 207.504 1.36545e-05H52.4058Z" fill="white"/>
</mask>
<g mask="url(#mask48_203_7789)">
<path d="M145.046 102.857H130.026H115.006C115.006 102.857 114.377 111.755 124.195 115.054C127.966 116.322 132.085 116.322 135.856 115.054C145.674 111.755 145.046 102.857 145.046 102.857Z" fill="#FFCCC2"/>
</g>
<mask id="mask49_203_7789" style="mask-type:luminance" maskUnits="userSpaceOnUse" x="43" y="0" width="174" height="144">
<path d="M52.4058 1.36545e-05C47.2116 1.36545e-05 43 4.18388 43 9.34417V134.235C43 139.395 47.2116 143.579 52.4058 143.579H207.504C212.699 143.579 216.909 139.395 216.909 134.235V9.34417C216.909 4.18388 212.699 1.36545e-05 207.504 1.36545e-05H52.4058Z" fill="white"/>
</mask>
<g mask="url(#mask49_203_7789)">
<path d="M137.312 109.233C137.067 109.449 136.793 109.651 136.499 109.853C135.798 110.326 134.958 110.75 133.956 111.085C131.413 111.941 128.638 111.941 126.095 111.085C125.093 110.75 124.252 110.326 123.551 109.853C123.257 109.651 122.984 109.449 122.739 109.233C119.628 106.567 119.894 102.856 119.894 102.856H140.157C140.157 102.856 140.423 106.567 137.312 109.233Z" fill="#36190D"/>
</g>
<mask id="mask50_203_7789" style="mask-type:luminance" maskUnits="userSpaceOnUse" x="43" y="0" width="174" height="144">
<path d="M52.4058 1.36545e-05C47.2116 1.36545e-05 43 4.18388 43 9.34417V134.235C43 139.395 47.2116 143.579 52.4058 143.579H207.504C212.699 143.579 216.909 139.395 216.909 134.235V9.34417C216.909 4.18388 212.699 1.36545e-05 207.504 1.36545e-05H52.4058Z" fill="white"/>
</mask>
<g mask="url(#mask50_203_7789)">
<path d="M145.998 62.9424C137.056 64.2084 130.026 69.8976 130.026 69.8976C130.026 69.8976 122.996 64.2084 114.053 62.9424C102.061 61.2449 91.7091 71.0225 92.4571 83.0359C93.0996 93.3578 100.013 106 130.026 106C160.039 106 166.952 93.3578 167.595 83.0359C168.343 71.0225 157.991 61.2449 145.998 62.9424Z" fill="#FFCCC2"/>
</g>
<mask id="mask51_203_7789" style="mask-type:luminance" maskUnits="userSpaceOnUse" x="43" y="0" width="174" height="144">
<path d="M52.4058 1.36545e-05C47.2116 1.36545e-05 43 4.18388 43 9.34417V134.235C43 139.395 47.2116 143.579 52.4058 143.579H207.504C212.699 143.579 216.909 139.395 216.909 134.235V9.34417C216.909 4.18388 212.699 1.36545e-05 207.504 1.36545e-05H52.4058Z" fill="white"/>
</mask>
<g mask="url(#mask51_203_7789)">
<path d="M121.677 70.503C122.805 75.1358 118.114 80.2403 111.198 81.9035C104.281 83.5673 97.7593 81.1609 96.6299 76.5281C95.5017 71.8954 100.193 66.7909 107.11 65.127C114.026 63.4638 120.548 65.8702 121.677 70.503Z" fill="#FFD4CC"/>
</g>
<mask id="mask52_203_7789" style="mask-type:luminance" maskUnits="userSpaceOnUse" x="43" y="0" width="174" height="144">
<path d="M52.4058 1.36545e-05C47.2116 1.36545e-05 43 4.18388 43 9.34417V134.235C43 139.395 47.2116 143.579 52.4058 143.579H207.504C212.699 143.579 216.909 139.395 216.909 134.235V9.34417C216.909 4.18388 212.699 1.36545e-05 207.504 1.36545e-05H52.4058Z" fill="white"/>
</mask>
<g mask="url(#mask52_203_7789)">
<path d="M138.375 70.503C137.246 75.1358 141.938 80.2403 148.854 81.9035C155.77 83.5673 162.292 81.1609 163.422 76.5281C164.551 71.8954 159.859 66.7909 152.942 65.127C146.026 63.4638 139.504 65.8702 138.375 70.503Z" fill="#FFD4CC"/>
</g>
<mask id="mask53_203_7789" style="mask-type:luminance" maskUnits="userSpaceOnUse" x="43" y="0" width="174" height="144">
<path d="M52.4058 1.36545e-05C47.2116 1.36545e-05 43 4.18388 43 9.34417V134.235C43 139.395 47.2116 143.579 52.4058 143.579H207.504C212.699 143.579 216.909 139.395 216.909 134.235V9.34417C216.909 4.18388 212.699 1.36545e-05 207.504 1.36545e-05H52.4058Z" fill="white"/>
</mask>
<g mask="url(#mask53_203_7789)">
<path d="M117.726 74.4016C117.726 74.7665 117.69 75.1253 117.631 75.4674C117.187 77.8449 115.296 79.6351 113.033 79.6351C110.77 79.6351 108.88 77.8449 108.436 75.4674C108.377 75.1253 108.341 74.7665 108.341 74.4016C108.341 71.5113 110.444 69.1681 113.033 69.1681C115.622 69.1681 117.726 71.5113 117.726 74.4016Z" fill="#582B1C"/>
</g>
<mask id="mask54_203_7789" style="mask-type:luminance" maskUnits="userSpaceOnUse" x="43" y="0" width="174" height="144">
<path d="M52.4058 1.36545e-05C47.2116 1.36545e-05 43 4.18388 43 9.34417V134.235C43 139.395 47.2116 143.579 52.4058 143.579H207.504C212.699 143.579 216.909 139.395 216.909 134.235V9.34417C216.909 4.18388 212.699 1.36545e-05 207.504 1.36545e-05H52.4058Z" fill="white"/>
</mask>
<g mask="url(#mask54_203_7789)">
<path d="M117.631 75.4671C117.186 77.8454 115.297 79.6349 113.033 79.6349C110.77 79.6349 108.88 77.8454 108.436 75.4671C108.88 73.0889 110.77 71.2994 113.033 71.2994C115.297 71.2994 117.186 73.0889 117.631 75.4671Z" fill="#36190D"/>
</g>
<mask id="mask55_203_7789" style="mask-type:luminance" maskUnits="userSpaceOnUse" x="43" y="0" width="174" height="144">
<path d="M52.4058 1.36545e-05C47.2116 1.36545e-05 43 4.18388 43 9.34417V134.235C43 139.395 47.2116 143.579 52.4058 143.579H207.504C212.699 143.579 216.909 139.395 216.909 134.235V9.34417C216.909 4.18388 212.699 1.36545e-05 207.504 1.36545e-05H52.4058Z" fill="white"/>
</mask>
<g mask="url(#mask55_203_7789)">
<path d="M142.326 74.4016C142.326 74.7665 142.362 75.1253 142.421 75.4674C142.865 77.8449 144.755 79.6351 147.018 79.6351C149.281 79.6351 151.172 77.8449 151.616 75.4674C151.675 75.1253 151.711 74.7665 151.711 74.4016C151.711 71.5113 149.607 69.1681 147.018 69.1681C144.429 69.1681 142.326 71.5113 142.326 74.4016Z" fill="#582B1C"/>
</g>
<mask id="mask56_203_7789" style="mask-type:luminance" maskUnits="userSpaceOnUse" x="43" y="0" width="174" height="144">
<path d="M52.4058 1.36545e-05C47.2116 1.36545e-05 43 4.18388 43 9.34417V134.235C43 139.395 47.2116 143.579 52.4058 143.579H207.504C212.699 143.579 216.909 139.395 216.909 134.235V9.34417C216.909 4.18388 212.699 1.36545e-05 207.504 1.36545e-05H52.4058Z" fill="white"/>
</mask>
<g mask="url(#mask56_203_7789)">
<path d="M142.421 75.4671C142.865 77.8454 144.755 79.6349 147.018 79.6349C149.281 79.6349 151.171 77.8454 151.615 75.4671C151.171 73.0889 149.281 71.2994 147.018 71.2994C144.755 71.2994 142.865 73.0889 142.421 75.4671Z" fill="#36190D"/>
</g>
<mask id="mask57_203_7789" style="mask-type:luminance" maskUnits="userSpaceOnUse" x="43" y="0" width="174" height="144">
<path d="M52.4058 1.36545e-05C47.2116 1.36545e-05 43 4.18388 43 9.34417V134.235C43 139.395 47.2116 143.579 52.4058 143.579H207.504C212.699 143.579 216.909 139.395 216.909 134.235V9.34417C216.909 4.18388 212.699 1.36545e-05 207.504 1.36545e-05H52.4058Z" fill="white"/>
</mask>
<g mask="url(#mask57_203_7789)">
<path d="M136.499 109.853C135.799 110.326 134.958 110.75 133.956 111.084C131.413 111.941 128.638 111.941 126.095 111.084C125.093 110.75 124.252 110.326 123.552 109.853C124.89 108.516 127.293 107.639 130.025 107.639C132.758 107.639 135.161 108.516 136.499 109.853Z" fill="#FF2530"/>
</g>
<mask id="mask58_203_7789" style="mask-type:luminance" maskUnits="userSpaceOnUse" x="43" y="0" width="174" height="144">
<path d="M52.4058 1.36545e-05C47.2116 1.36545e-05 43 4.18388 43 9.34417V134.235C43 139.395 47.2116 143.579 52.4058 143.579H207.504C212.699 143.579 216.909 139.395 216.909 134.235V9.34417C216.909 4.18388 212.699 1.36545e-05 207.504 1.36545e-05H52.4058Z" fill="white"/>
</mask>
<g mask="url(#mask58_203_7789)">
<path d="M172.152 58.6746C172.152 61.2175 169.247 63.2792 165.664 63.2792C162.081 63.2792 159.176 61.2175 159.176 58.6746C159.176 56.1318 162.081 54.0701 165.664 54.0701C169.247 54.0701 172.152 56.1318 172.152 58.6746Z" fill="#FFB1B1"/>
</g>
<mask id="mask59_203_7789" style="mask-type:luminance" maskUnits="userSpaceOnUse" x="43" y="0" width="174" height="144">
<path d="M52.4058 1.36545e-05C47.2116 1.36545e-05 43 4.18388 43 9.34417V134.235C43 139.395 47.2116 143.579 52.4058 143.579H207.504C212.699 143.579 216.909 139.395 216.909 134.235V9.34417C216.909 4.18388 212.699 1.36545e-05 207.504 1.36545e-05H52.4058Z" fill="white"/>
</mask>
<g mask="url(#mask59_203_7789)">
<path d="M87.8994 58.6746C87.8994 61.2175 90.8043 63.2792 94.3875 63.2792C97.9708 63.2792 100.876 61.2175 100.876 58.6746C100.876 56.1318 97.9708 54.0701 94.3875 54.0701C90.8043 54.0701 87.8994 56.1318 87.8994 58.6746Z" fill="#FFB1B1"/>
</g>
<path d="M166.833 120.023C166.833 120.023 165.61 114.095 163.2 107.549C163.2 107.549 167.282 112.055 169.938 120.283L166.833 120.023Z" fill="#36190D"/>
</svg>
